%TF.GenerationSoftware,KiCad,Pcbnew,8.0.4*%
%TF.CreationDate,2025-06-19T21:58:06-05:00*%
%TF.ProjectId,pcb,7063622e-6b69-4636-9164-5f7063625858,01*%
%TF.SameCoordinates,Original*%
%TF.FileFunction,Soldermask,Bot*%
%TF.FilePolarity,Negative*%
%FSLAX46Y46*%
G04 Gerber Fmt 4.6, Leading zero omitted, Abs format (unit mm)*
G04 Created by KiCad (PCBNEW 8.0.4) date 2025-06-19 21:58:06*
%MOMM*%
%LPD*%
G01*
G04 APERTURE LIST*
%ADD10C,4.000000*%
%ADD11C,2.200000*%
%ADD12C,3.240000*%
%ADD13R,1.800000X1.800000*%
%ADD14C,1.800000*%
%ADD15R,1.700000X1.700000*%
%ADD16O,1.700000X1.700000*%
G04 APERTURE END LIST*
D10*
%TO.C,SW13*%
X240110000Y-123390000D03*
D11*
X242650000Y-118310000D03*
X236300000Y-120850000D03*
%TD*%
D10*
%TO.C,SW12*%
X200160000Y-123390000D03*
D11*
X202700000Y-118310000D03*
X196350000Y-120850000D03*
%TD*%
D10*
%TO.C,SW10*%
X180160000Y-123390000D03*
D11*
X182700000Y-118310000D03*
X176350000Y-120850000D03*
%TD*%
D10*
%TO.C,SW8*%
X160160000Y-123390000D03*
D11*
X162700000Y-118310000D03*
X156350000Y-120850000D03*
%TD*%
D10*
%TO.C,SW6*%
X140160000Y-123390000D03*
D11*
X142700000Y-118310000D03*
X136350000Y-120850000D03*
%TD*%
D10*
%TO.C,SW5*%
X120160000Y-123390000D03*
D11*
X122700000Y-118310000D03*
X116350000Y-120850000D03*
%TD*%
D10*
%TO.C,SW3*%
X100160000Y-123390000D03*
D11*
X102700000Y-118310000D03*
X96350000Y-120850000D03*
%TD*%
D10*
%TO.C,SW1*%
X80160000Y-123390000D03*
D11*
X82700000Y-118310000D03*
X76350000Y-120850000D03*
%TD*%
D10*
%TO.C,SW11*%
X190160000Y-103390000D03*
D11*
X192700000Y-98310000D03*
X186350000Y-100850000D03*
%TD*%
D10*
%TO.C,SW9*%
X170160000Y-103390000D03*
D11*
X172700000Y-98310000D03*
X166350000Y-100850000D03*
%TD*%
D10*
%TO.C,SW7*%
X150160000Y-103390000D03*
D11*
X152700000Y-98310000D03*
X146350000Y-100850000D03*
%TD*%
D10*
%TO.C,SW4*%
X110160000Y-103390000D03*
D11*
X112700000Y-98310000D03*
X106350000Y-100850000D03*
%TD*%
D10*
%TO.C,SW2*%
X90160000Y-103390000D03*
D11*
X92700000Y-98310000D03*
X86350000Y-100850000D03*
%TD*%
D12*
%TO.C,J4*%
X182250000Y-70810000D03*
X191850000Y-70810000D03*
D13*
X184550000Y-78310000D03*
D14*
X187050000Y-78310000D03*
X189550000Y-78310000D03*
%TD*%
D12*
%TO.C,J3*%
X162250000Y-70810000D03*
X171850000Y-70810000D03*
D13*
X164550000Y-78310000D03*
D14*
X167050000Y-78310000D03*
X169550000Y-78310000D03*
%TD*%
D15*
%TO.C,J1*%
X65125000Y-83310000D03*
D16*
X67665000Y-83310000D03*
X70205000Y-83310000D03*
X72745000Y-83310000D03*
X75285000Y-83310000D03*
X77825000Y-83310000D03*
X80365000Y-83310000D03*
X82905000Y-83310000D03*
X85445000Y-83310000D03*
X87985000Y-83310000D03*
X90525000Y-83310000D03*
X93065000Y-83310000D03*
X95605000Y-83310000D03*
X98145000Y-83310000D03*
X100685000Y-83310000D03*
X103225000Y-83310000D03*
X105765000Y-83310000D03*
X108305000Y-83310000D03*
X110845000Y-83310000D03*
X113385000Y-83310000D03*
%TD*%
%TO.C,J2*%
X113385000Y-68070000D03*
X110845000Y-68070000D03*
X108305000Y-68070000D03*
X105765000Y-68070000D03*
X103225000Y-68070000D03*
X100685000Y-68070000D03*
X98145000Y-68070000D03*
X95605000Y-68070000D03*
X93065000Y-68070000D03*
X90525000Y-68070000D03*
X87985000Y-68070000D03*
X85445000Y-68070000D03*
X82905000Y-68070000D03*
X80365000Y-68070000D03*
X77825000Y-68070000D03*
X75285000Y-68070000D03*
X72745000Y-68070000D03*
X70205000Y-68070000D03*
X67665000Y-68070000D03*
D15*
X65125000Y-68070000D03*
%TD*%
D11*
%TO.C,H4*%
X253350000Y-132900000D03*
%TD*%
%TO.C,H3*%
X66900000Y-132900000D03*
%TD*%
%TO.C,H2*%
X253350000Y-63150000D03*
%TD*%
%TO.C,H1*%
X66900000Y-63150000D03*
%TD*%
M02*
