%TF.GenerationSoftware,KiCad,Pcbnew,8.0.4*%
%TF.CreationDate,2025-06-19T21:58:06-05:00*%
%TF.ProjectId,pcb,7063622e-6b69-4636-9164-5f7063625858,01*%
%TF.SameCoordinates,Original*%
%TF.FileFunction,Copper,L1,Top*%
%TF.FilePolarity,Positive*%
%FSLAX46Y46*%
G04 Gerber Fmt 4.6, Leading zero omitted, Abs format (unit mm)*
G04 Created by KiCad (PCBNEW 8.0.4) date 2025-06-19 21:58:06*
%MOMM*%
%LPD*%
G01*
G04 APERTURE LIST*
%TA.AperFunction,ComponentPad*%
%ADD10C,2.200000*%
%TD*%
%TA.AperFunction,ComponentPad*%
%ADD11C,3.240000*%
%TD*%
%TA.AperFunction,ComponentPad*%
%ADD12R,1.800000X1.800000*%
%TD*%
%TA.AperFunction,ComponentPad*%
%ADD13C,1.800000*%
%TD*%
%TA.AperFunction,ComponentPad*%
%ADD14R,1.700000X1.700000*%
%TD*%
%TA.AperFunction,ComponentPad*%
%ADD15O,1.700000X1.700000*%
%TD*%
%TA.AperFunction,ViaPad*%
%ADD16C,0.700000*%
%TD*%
%TA.AperFunction,Conductor*%
%ADD17C,0.300000*%
%TD*%
%TA.AperFunction,Conductor*%
%ADD18C,0.500000*%
%TD*%
G04 APERTURE END LIST*
D10*
%TO.P,SW13,1,1*%
%TO.N,G*%
X242650000Y-118310000D03*
%TO.P,SW13,2,2*%
%TO.N,B8*%
X236300000Y-120850000D03*
%TD*%
%TO.P,SW12,1,1*%
%TO.N,G*%
X202700000Y-118310000D03*
%TO.P,SW12,2,2*%
%TO.N,B7*%
X196350000Y-120850000D03*
%TD*%
%TO.P,SW10,1,1*%
%TO.N,G*%
X182700000Y-118310000D03*
%TO.P,SW10,2,2*%
%TO.N,B5*%
X176350000Y-120850000D03*
%TD*%
%TO.P,SW8,1,1*%
%TO.N,G*%
X162700000Y-118310000D03*
%TO.P,SW8,2,2*%
%TO.N,B3*%
X156350000Y-120850000D03*
%TD*%
%TO.P,SW6,1,1*%
%TO.N,G*%
X142700000Y-118310000D03*
%TO.P,SW6,2,2*%
%TO.N,A7*%
X136350000Y-120850000D03*
%TD*%
%TO.P,SW5,1,1*%
%TO.N,G*%
X122700000Y-118310000D03*
%TO.P,SW5,2,2*%
%TO.N,A6*%
X116350000Y-120850000D03*
%TD*%
%TO.P,SW3,1,1*%
%TO.N,G*%
X102700000Y-118310000D03*
%TO.P,SW3,2,2*%
%TO.N,A4*%
X96350000Y-120850000D03*
%TD*%
%TO.P,SW1,1,1*%
%TO.N,G*%
X82700000Y-118310000D03*
%TO.P,SW1,2,2*%
%TO.N,A2*%
X76350000Y-120850000D03*
%TD*%
%TO.P,SW11,1,1*%
%TO.N,G*%
X192700000Y-98310000D03*
%TO.P,SW11,2,2*%
%TO.N,B6*%
X186350000Y-100850000D03*
%TD*%
%TO.P,SW9,1,1*%
%TO.N,G*%
X172700000Y-98310000D03*
%TO.P,SW9,2,2*%
%TO.N,B4*%
X166350000Y-100850000D03*
%TD*%
%TO.P,SW7,1,1*%
%TO.N,G*%
X152700000Y-98310000D03*
%TO.P,SW7,2,2*%
%TO.N,A15*%
X146350000Y-100850000D03*
%TD*%
%TO.P,SW4,1,1*%
%TO.N,G*%
X112700000Y-98310000D03*
%TO.P,SW4,2,2*%
%TO.N,A5*%
X106350000Y-100850000D03*
%TD*%
%TO.P,SW2,1,1*%
%TO.N,G*%
X92700000Y-98310000D03*
%TO.P,SW2,2,2*%
%TO.N,A3*%
X86350000Y-100850000D03*
%TD*%
D11*
%TO.P,J4,*%
%TO.N,*%
X182250000Y-70810000D03*
X191850000Y-70810000D03*
D12*
%TO.P,J4,1,Pin_1*%
%TO.N,5V*%
X184550000Y-78310000D03*
D13*
%TO.P,J4,2,Pin_2*%
%TO.N,B0*%
X187050000Y-78310000D03*
%TO.P,J4,3,Pin_3*%
%TO.N,G*%
X189550000Y-78310000D03*
%TD*%
D11*
%TO.P,J3,*%
%TO.N,*%
X162250000Y-70810000D03*
X171850000Y-70810000D03*
D12*
%TO.P,J3,1,Pin_1*%
%TO.N,5V*%
X164550000Y-78310000D03*
D13*
%TO.P,J3,2,Pin_2*%
%TO.N,B1*%
X167050000Y-78310000D03*
%TO.P,J3,3,Pin_3*%
%TO.N,G*%
X169550000Y-78310000D03*
%TD*%
D14*
%TO.P,J1,1,Pin_1*%
%TO.N,B12*%
X65125000Y-83310000D03*
D15*
%TO.P,J1,2,Pin_2*%
%TO.N,B13*%
X67665000Y-83310000D03*
%TO.P,J1,3,Pin_3*%
%TO.N,B14*%
X70205000Y-83310000D03*
%TO.P,J1,4,Pin_4*%
%TO.N,B15*%
X72745000Y-83310000D03*
%TO.P,J1,5,Pin_5*%
%TO.N,A8*%
X75285000Y-83310000D03*
%TO.P,J1,6,Pin_6*%
%TO.N,A9*%
X77825000Y-83310000D03*
%TO.P,J1,7,Pin_7*%
%TO.N,A10*%
X80365000Y-83310000D03*
%TO.P,J1,8,Pin_8*%
%TO.N,A11*%
X82905000Y-83310000D03*
%TO.P,J1,9,Pin_9*%
%TO.N,A12*%
X85445000Y-83310000D03*
%TO.P,J1,10,Pin_10*%
%TO.N,A15*%
X87985000Y-83310000D03*
%TO.P,J1,11,Pin_11*%
%TO.N,B3*%
X90525000Y-83310000D03*
%TO.P,J1,12,Pin_12*%
%TO.N,B4*%
X93065000Y-83310000D03*
%TO.P,J1,13,Pin_13*%
%TO.N,B5*%
X95605000Y-83310000D03*
%TO.P,J1,14,Pin_14*%
%TO.N,B6*%
X98145000Y-83310000D03*
%TO.P,J1,15,Pin_15*%
%TO.N,B7*%
X100685000Y-83310000D03*
%TO.P,J1,16,Pin_16*%
%TO.N,B8*%
X103225000Y-83310000D03*
%TO.P,J1,17,Pin_17*%
%TO.N,B9*%
X105765000Y-83310000D03*
%TO.P,J1,18,Pin_18*%
%TO.N,5V*%
X108305000Y-83310000D03*
%TO.P,J1,19,Pin_19*%
%TO.N,G*%
X110845000Y-83310000D03*
%TO.P,J1,20,Pin_20*%
%TO.N,unconnected-(J1-Pin_20-Pad20)*%
X113385000Y-83310000D03*
%TD*%
%TO.P,J2,20,Pin_20*%
%TO.N,VB*%
X113385000Y-68070000D03*
%TO.P,J2,19,Pin_19*%
%TO.N,C13*%
X110845000Y-68070000D03*
%TO.P,J2,18,Pin_18*%
%TO.N,C14*%
X108305000Y-68070000D03*
%TO.P,J2,17,Pin_17*%
%TO.N,C15*%
X105765000Y-68070000D03*
%TO.P,J2,16,Pin_16*%
%TO.N,A0*%
X103225000Y-68070000D03*
%TO.P,J2,15,Pin_15*%
%TO.N,A1*%
X100685000Y-68070000D03*
%TO.P,J2,14,Pin_14*%
%TO.N,A2*%
X98145000Y-68070000D03*
%TO.P,J2,13,Pin_13*%
%TO.N,A3*%
X95605000Y-68070000D03*
%TO.P,J2,12,Pin_12*%
%TO.N,A4*%
X93065000Y-68070000D03*
%TO.P,J2,11,Pin_11*%
%TO.N,A5*%
X90525000Y-68070000D03*
%TO.P,J2,10,Pin_10*%
%TO.N,A6*%
X87985000Y-68070000D03*
%TO.P,J2,9,Pin_9*%
%TO.N,A7*%
X85445000Y-68070000D03*
%TO.P,J2,8,Pin_8*%
%TO.N,B0*%
X82905000Y-68070000D03*
%TO.P,J2,7,Pin_7*%
%TO.N,B1*%
X80365000Y-68070000D03*
%TO.P,J2,6,Pin_6*%
%TO.N,B10*%
X77825000Y-68070000D03*
%TO.P,J2,5,Pin_5*%
%TO.N,B11*%
X75285000Y-68070000D03*
%TO.P,J2,4,Pin_4*%
%TO.N,R*%
X72745000Y-68070000D03*
%TO.P,J2,3,Pin_3*%
%TO.N,unconnected-(J2-Pin_3-Pad3)*%
X70205000Y-68070000D03*
%TO.P,J2,2,Pin_2*%
%TO.N,G*%
X67665000Y-68070000D03*
D14*
%TO.P,J2,1,Pin_1*%
X65125000Y-68070000D03*
%TD*%
D16*
%TO.N,B0*%
X167750000Y-62000000D03*
X166250000Y-62000000D03*
%TO.N,B3*%
X101750000Y-93250000D03*
X100500000Y-91800000D03*
%TO.N,B5*%
X103625000Y-90950000D03*
X102125000Y-89375000D03*
%TO.N,B7*%
X103750000Y-89250000D03*
X102000000Y-87500000D03*
%TO.N,G*%
X154500000Y-98000000D03*
X174500000Y-98250000D03*
X194000000Y-99500000D03*
X243750000Y-119750000D03*
X204250000Y-119250000D03*
X184000000Y-119500000D03*
X163750000Y-119750000D03*
X144250000Y-119250000D03*
X124250000Y-119250000D03*
X104250000Y-119000000D03*
X84250000Y-119000000D03*
X114500000Y-98250000D03*
X94500000Y-98310000D03*
X189550000Y-80000000D03*
X169550000Y-79800000D03*
X67665000Y-70000000D03*
X65125000Y-69750000D03*
X110845000Y-85250000D03*
%TO.N,A5*%
X90750000Y-71750000D03*
X90750000Y-74000000D03*
%TO.N,B0*%
X83000000Y-62750000D03*
X83000000Y-65000000D03*
%TO.N,B1*%
X81000000Y-62750000D03*
X80500000Y-64950000D03*
%TD*%
D17*
%TO.N,A5*%
X102000000Y-100500000D02*
X102350000Y-100850000D01*
X102350000Y-100850000D02*
X106350000Y-100850000D01*
X89250000Y-100500000D02*
X102000000Y-100500000D01*
X88750000Y-100000000D02*
X89250000Y-100500000D01*
X88750000Y-89750000D02*
X88750000Y-100000000D01*
X86750000Y-87750000D02*
X88750000Y-89750000D01*
X86750000Y-82250000D02*
X86750000Y-87750000D01*
X90750000Y-78250000D02*
X86750000Y-82250000D01*
X90750000Y-74000000D02*
X90750000Y-78250000D01*
D18*
%TO.N,5V*%
X184550000Y-80650000D02*
X184550000Y-78310000D01*
X158000000Y-83250000D02*
X181950000Y-83250000D01*
X181950000Y-83250000D02*
X184550000Y-80650000D01*
X155750000Y-81000000D02*
X158000000Y-83250000D01*
D17*
%TO.N,B8*%
X224100000Y-120850000D02*
X236300000Y-120850000D01*
X190500000Y-87250000D02*
X224100000Y-120850000D01*
X103225000Y-85975000D02*
X104500000Y-87250000D01*
X104500000Y-87250000D02*
X190500000Y-87250000D01*
X103225000Y-83310000D02*
X103225000Y-85975000D01*
%TO.N,B3*%
X156350000Y-114350000D02*
X156350000Y-120850000D01*
X135500000Y-93500000D02*
X156350000Y-114350000D01*
X102000000Y-93500000D02*
X135500000Y-93500000D01*
X101750000Y-93250000D02*
X102000000Y-93500000D01*
X90525000Y-86275000D02*
X90525000Y-83310000D01*
X100200000Y-91500000D02*
X95750000Y-91500000D01*
X100500000Y-91800000D02*
X100200000Y-91500000D01*
X95750000Y-91500000D02*
X90525000Y-86275000D01*
%TO.N,A15*%
X146350000Y-96600000D02*
X146350000Y-100850000D01*
X142250000Y-92500000D02*
X146350000Y-96600000D01*
X94000000Y-92500000D02*
X142250000Y-92500000D01*
X87985000Y-86485000D02*
X94000000Y-92500000D01*
X87985000Y-83310000D02*
X87985000Y-86485000D01*
%TO.N,B6*%
X98145000Y-86145000D02*
X98145000Y-83310000D01*
X100250000Y-88250000D02*
X98145000Y-86145000D01*
X186350000Y-90600000D02*
X184000000Y-88250000D01*
X186350000Y-100850000D02*
X186350000Y-90600000D01*
X184000000Y-88250000D02*
X100250000Y-88250000D01*
%TO.N,B7*%
X100685000Y-86185000D02*
X100685000Y-83310000D01*
X102000000Y-87500000D02*
X100685000Y-86185000D01*
X196350000Y-115100000D02*
X196350000Y-120850000D01*
X182000000Y-100750000D02*
X196350000Y-115100000D01*
X182000000Y-89250000D02*
X182000000Y-100750000D01*
X103750000Y-89250000D02*
X182000000Y-89250000D01*
%TO.N,B4*%
X97000000Y-90250000D02*
X93065000Y-86315000D01*
X163000000Y-90250000D02*
X97000000Y-90250000D01*
X166350000Y-93600000D02*
X163000000Y-90250000D01*
X166350000Y-100850000D02*
X166350000Y-93600000D01*
X93065000Y-86315000D02*
X93065000Y-83310000D01*
%TO.N,B5*%
X104175000Y-91500000D02*
X151500000Y-91500000D01*
X176350000Y-116350000D02*
X176350000Y-120850000D01*
X103625000Y-90950000D02*
X104175000Y-91500000D01*
X151500000Y-91500000D02*
X176350000Y-116350000D01*
X95605000Y-86605000D02*
X95605000Y-83310000D01*
X98250000Y-89250000D02*
X95605000Y-86605000D01*
X102000000Y-89250000D02*
X98250000Y-89250000D01*
X102125000Y-89375000D02*
X102000000Y-89250000D01*
%TO.N,B0*%
X187050000Y-62300000D02*
X187050000Y-78310000D01*
X186750000Y-62000000D02*
X187050000Y-62300000D01*
X167750000Y-62000000D02*
X186750000Y-62000000D01*
X141000000Y-62000000D02*
X166250000Y-62000000D01*
D18*
%TO.N,5V*%
X158440000Y-78310000D02*
X164550000Y-78310000D01*
X155750000Y-81000000D02*
X158440000Y-78310000D01*
D17*
%TO.N,B0*%
X83750000Y-62000000D02*
X141000000Y-62000000D01*
X83000000Y-62750000D02*
X83750000Y-62000000D01*
D18*
%TO.N,G*%
X154190000Y-98310000D02*
X154500000Y-98000000D01*
X152700000Y-98310000D02*
X154190000Y-98310000D01*
X174440000Y-98310000D02*
X174500000Y-98250000D01*
X172700000Y-98310000D02*
X174440000Y-98310000D01*
X192810000Y-98310000D02*
X194000000Y-99500000D01*
X192700000Y-98310000D02*
X192810000Y-98310000D01*
X242650000Y-118650000D02*
X243750000Y-119750000D01*
X242650000Y-118310000D02*
X242650000Y-118650000D01*
X203310000Y-118310000D02*
X204250000Y-119250000D01*
X202700000Y-118310000D02*
X203310000Y-118310000D01*
X182810000Y-118310000D02*
X184000000Y-119500000D01*
X182700000Y-118310000D02*
X182810000Y-118310000D01*
X162700000Y-118700000D02*
X163750000Y-119750000D01*
X162700000Y-118310000D02*
X162700000Y-118700000D01*
X143310000Y-118310000D02*
X144250000Y-119250000D01*
X142700000Y-118310000D02*
X143310000Y-118310000D01*
X123310000Y-118310000D02*
X124250000Y-119250000D01*
X122700000Y-118310000D02*
X123310000Y-118310000D01*
X103560000Y-118310000D02*
X104250000Y-119000000D01*
X102700000Y-118310000D02*
X103560000Y-118310000D01*
X83560000Y-118310000D02*
X84250000Y-119000000D01*
X82700000Y-118310000D02*
X83560000Y-118310000D01*
X114440000Y-98310000D02*
X114500000Y-98250000D01*
X112700000Y-98310000D02*
X114440000Y-98310000D01*
X189550000Y-80000000D02*
X189550000Y-78310000D01*
X169550000Y-79800000D02*
X169550000Y-78310000D01*
X67665000Y-70000000D02*
X67665000Y-68070000D01*
X65125000Y-69750000D02*
X65125000Y-68070000D01*
X110845000Y-85250000D02*
X110845000Y-83310000D01*
X94500000Y-98310000D02*
X92700000Y-98310000D01*
%TO.N,5V*%
X109250000Y-81000000D02*
X155750000Y-81000000D01*
X108305000Y-81945000D02*
X109250000Y-81000000D01*
X108305000Y-83310000D02*
X108305000Y-81945000D01*
D17*
%TO.N,A5*%
X90525000Y-71525000D02*
X90750000Y-71750000D01*
X90525000Y-68070000D02*
X90525000Y-71525000D01*
%TO.N,A3*%
X81500000Y-82747943D02*
X81500000Y-82175000D01*
X81565000Y-82812943D02*
X81500000Y-82747943D01*
X81565000Y-83807057D02*
X81565000Y-82812943D01*
X81500000Y-96000000D02*
X81500000Y-83872057D01*
X81500000Y-83872057D02*
X81565000Y-83807057D01*
X81500000Y-82175000D02*
X95605000Y-68070000D01*
X86350000Y-100850000D02*
X81500000Y-96000000D01*
%TO.N,A6*%
X79165000Y-76835000D02*
X87930000Y-68070000D01*
X79165000Y-107915000D02*
X79165000Y-76835000D01*
X116250000Y-119500000D02*
X115750000Y-119500000D01*
X85000000Y-113750000D02*
X79165000Y-107915000D01*
X87930000Y-68070000D02*
X87985000Y-68070000D01*
X116250000Y-120750000D02*
X116250000Y-119500000D01*
X116350000Y-120850000D02*
X116250000Y-120750000D01*
X115750000Y-119500000D02*
X110000000Y-113750000D01*
X110000000Y-113750000D02*
X85000000Y-113750000D01*
%TO.N,A7*%
X100250000Y-119000000D02*
X109500000Y-128250000D01*
X109500000Y-128250000D02*
X133000000Y-128250000D01*
X87750000Y-119000000D02*
X100250000Y-119000000D01*
X81750000Y-113000000D02*
X87750000Y-119000000D01*
X77750000Y-113000000D02*
X81750000Y-113000000D01*
X76500000Y-111750000D02*
X77750000Y-113000000D01*
X76500000Y-71250000D02*
X76500000Y-111750000D01*
X133000000Y-128250000D02*
X136350000Y-124900000D01*
X82265000Y-71250000D02*
X76500000Y-71250000D01*
X136350000Y-124900000D02*
X136350000Y-120850000D01*
X85445000Y-68070000D02*
X82265000Y-71250000D01*
%TO.N,B0*%
X82905000Y-68070000D02*
X82905000Y-65095000D01*
X82905000Y-65095000D02*
X83000000Y-65000000D01*
%TO.N,A4*%
X74000000Y-66000000D02*
X75750000Y-64250000D01*
X75750000Y-64250000D02*
X89245000Y-64250000D01*
X89245000Y-64250000D02*
X93065000Y-68070000D01*
X81850000Y-120850000D02*
X74000000Y-113000000D01*
X96350000Y-120850000D02*
X81850000Y-120850000D01*
X74000000Y-113000000D02*
X74000000Y-66000000D01*
%TO.N,B1*%
X167050000Y-61800000D02*
X167050000Y-78310000D01*
X167000000Y-61750000D02*
X167050000Y-61800000D01*
X167000000Y-61250000D02*
X167000000Y-61750000D01*
X82500000Y-61250000D02*
X167000000Y-61250000D01*
X81000000Y-62750000D02*
X82500000Y-61250000D01*
X80500000Y-65000000D02*
X80500000Y-64950000D01*
X80365000Y-65135000D02*
X80500000Y-65000000D01*
X80365000Y-68070000D02*
X80365000Y-65135000D01*
%TO.N,A2*%
X74750000Y-63500000D02*
X96750000Y-63500000D01*
X71545000Y-83807057D02*
X71545000Y-66705000D01*
X96750000Y-63500000D02*
X98145000Y-64895000D01*
X98145000Y-64895000D02*
X98145000Y-68070000D01*
X71750000Y-84012057D02*
X71545000Y-83807057D01*
X71545000Y-66705000D02*
X74750000Y-63500000D01*
X71750000Y-116250000D02*
X71750000Y-84012057D01*
X76350000Y-120850000D02*
X71750000Y-116250000D01*
%TO.N,A5*%
X106350000Y-100850000D02*
X106965000Y-100235000D01*
%TD*%
M02*
