%TF.GenerationSoftware,KiCad,Pcbnew,8.0.4*%
%TF.CreationDate,2025-06-19T21:58:06-05:00*%
%TF.ProjectId,pcb,7063622e-6b69-4636-9164-5f7063625858,01*%
%TF.SameCoordinates,Original*%
%TF.FileFunction,Copper,L2,Bot*%
%TF.FilePolarity,Positive*%
%FSLAX46Y46*%
G04 Gerber Fmt 4.6, Leading zero omitted, Abs format (unit mm)*
G04 Created by KiCad (PCBNEW 8.0.4) date 2025-06-19 21:58:06*
%MOMM*%
%LPD*%
G01*
G04 APERTURE LIST*
%TA.AperFunction,ComponentPad*%
%ADD10C,2.200000*%
%TD*%
%TA.AperFunction,ComponentPad*%
%ADD11C,3.240000*%
%TD*%
%TA.AperFunction,ComponentPad*%
%ADD12R,1.800000X1.800000*%
%TD*%
%TA.AperFunction,ComponentPad*%
%ADD13C,1.800000*%
%TD*%
%TA.AperFunction,ComponentPad*%
%ADD14R,1.700000X1.700000*%
%TD*%
%TA.AperFunction,ComponentPad*%
%ADD15O,1.700000X1.700000*%
%TD*%
%TA.AperFunction,ViaPad*%
%ADD16C,0.700000*%
%TD*%
%TA.AperFunction,Conductor*%
%ADD17C,0.300000*%
%TD*%
G04 APERTURE END LIST*
D10*
%TO.P,SW13,1,1*%
%TO.N,G*%
X242650000Y-118310000D03*
%TO.P,SW13,2,2*%
%TO.N,B8*%
X236300000Y-120850000D03*
%TD*%
%TO.P,SW12,1,1*%
%TO.N,G*%
X202700000Y-118310000D03*
%TO.P,SW12,2,2*%
%TO.N,B7*%
X196350000Y-120850000D03*
%TD*%
%TO.P,SW10,1,1*%
%TO.N,G*%
X182700000Y-118310000D03*
%TO.P,SW10,2,2*%
%TO.N,B5*%
X176350000Y-120850000D03*
%TD*%
%TO.P,SW8,1,1*%
%TO.N,G*%
X162700000Y-118310000D03*
%TO.P,SW8,2,2*%
%TO.N,B3*%
X156350000Y-120850000D03*
%TD*%
%TO.P,SW6,1,1*%
%TO.N,G*%
X142700000Y-118310000D03*
%TO.P,SW6,2,2*%
%TO.N,A7*%
X136350000Y-120850000D03*
%TD*%
%TO.P,SW5,1,1*%
%TO.N,G*%
X122700000Y-118310000D03*
%TO.P,SW5,2,2*%
%TO.N,A6*%
X116350000Y-120850000D03*
%TD*%
%TO.P,SW3,1,1*%
%TO.N,G*%
X102700000Y-118310000D03*
%TO.P,SW3,2,2*%
%TO.N,A4*%
X96350000Y-120850000D03*
%TD*%
%TO.P,SW1,1,1*%
%TO.N,G*%
X82700000Y-118310000D03*
%TO.P,SW1,2,2*%
%TO.N,A2*%
X76350000Y-120850000D03*
%TD*%
%TO.P,SW11,1,1*%
%TO.N,G*%
X192700000Y-98310000D03*
%TO.P,SW11,2,2*%
%TO.N,B6*%
X186350000Y-100850000D03*
%TD*%
%TO.P,SW9,1,1*%
%TO.N,G*%
X172700000Y-98310000D03*
%TO.P,SW9,2,2*%
%TO.N,B4*%
X166350000Y-100850000D03*
%TD*%
%TO.P,SW7,1,1*%
%TO.N,G*%
X152700000Y-98310000D03*
%TO.P,SW7,2,2*%
%TO.N,A15*%
X146350000Y-100850000D03*
%TD*%
%TO.P,SW4,1,1*%
%TO.N,G*%
X112700000Y-98310000D03*
%TO.P,SW4,2,2*%
%TO.N,A5*%
X106350000Y-100850000D03*
%TD*%
%TO.P,SW2,1,1*%
%TO.N,G*%
X92700000Y-98310000D03*
%TO.P,SW2,2,2*%
%TO.N,A3*%
X86350000Y-100850000D03*
%TD*%
D11*
%TO.P,J4,*%
%TO.N,*%
X182250000Y-70810000D03*
X191850000Y-70810000D03*
D12*
%TO.P,J4,1,Pin_1*%
%TO.N,5V*%
X184550000Y-78310000D03*
D13*
%TO.P,J4,2,Pin_2*%
%TO.N,B0*%
X187050000Y-78310000D03*
%TO.P,J4,3,Pin_3*%
%TO.N,G*%
X189550000Y-78310000D03*
%TD*%
D11*
%TO.P,J3,*%
%TO.N,*%
X162250000Y-70810000D03*
X171850000Y-70810000D03*
D12*
%TO.P,J3,1,Pin_1*%
%TO.N,5V*%
X164550000Y-78310000D03*
D13*
%TO.P,J3,2,Pin_2*%
%TO.N,B1*%
X167050000Y-78310000D03*
%TO.P,J3,3,Pin_3*%
%TO.N,G*%
X169550000Y-78310000D03*
%TD*%
D14*
%TO.P,J1,1,Pin_1*%
%TO.N,B12*%
X65125000Y-83310000D03*
D15*
%TO.P,J1,2,Pin_2*%
%TO.N,B13*%
X67665000Y-83310000D03*
%TO.P,J1,3,Pin_3*%
%TO.N,B14*%
X70205000Y-83310000D03*
%TO.P,J1,4,Pin_4*%
%TO.N,B15*%
X72745000Y-83310000D03*
%TO.P,J1,5,Pin_5*%
%TO.N,A8*%
X75285000Y-83310000D03*
%TO.P,J1,6,Pin_6*%
%TO.N,A9*%
X77825000Y-83310000D03*
%TO.P,J1,7,Pin_7*%
%TO.N,A10*%
X80365000Y-83310000D03*
%TO.P,J1,8,Pin_8*%
%TO.N,A11*%
X82905000Y-83310000D03*
%TO.P,J1,9,Pin_9*%
%TO.N,A12*%
X85445000Y-83310000D03*
%TO.P,J1,10,Pin_10*%
%TO.N,A15*%
X87985000Y-83310000D03*
%TO.P,J1,11,Pin_11*%
%TO.N,B3*%
X90525000Y-83310000D03*
%TO.P,J1,12,Pin_12*%
%TO.N,B4*%
X93065000Y-83310000D03*
%TO.P,J1,13,Pin_13*%
%TO.N,B5*%
X95605000Y-83310000D03*
%TO.P,J1,14,Pin_14*%
%TO.N,B6*%
X98145000Y-83310000D03*
%TO.P,J1,15,Pin_15*%
%TO.N,B7*%
X100685000Y-83310000D03*
%TO.P,J1,16,Pin_16*%
%TO.N,B8*%
X103225000Y-83310000D03*
%TO.P,J1,17,Pin_17*%
%TO.N,B9*%
X105765000Y-83310000D03*
%TO.P,J1,18,Pin_18*%
%TO.N,5V*%
X108305000Y-83310000D03*
%TO.P,J1,19,Pin_19*%
%TO.N,G*%
X110845000Y-83310000D03*
%TO.P,J1,20,Pin_20*%
%TO.N,unconnected-(J1-Pin_20-Pad20)*%
X113385000Y-83310000D03*
%TD*%
%TO.P,J2,20,Pin_20*%
%TO.N,VB*%
X113385000Y-68070000D03*
%TO.P,J2,19,Pin_19*%
%TO.N,C13*%
X110845000Y-68070000D03*
%TO.P,J2,18,Pin_18*%
%TO.N,C14*%
X108305000Y-68070000D03*
%TO.P,J2,17,Pin_17*%
%TO.N,C15*%
X105765000Y-68070000D03*
%TO.P,J2,16,Pin_16*%
%TO.N,A0*%
X103225000Y-68070000D03*
%TO.P,J2,15,Pin_15*%
%TO.N,A1*%
X100685000Y-68070000D03*
%TO.P,J2,14,Pin_14*%
%TO.N,A2*%
X98145000Y-68070000D03*
%TO.P,J2,13,Pin_13*%
%TO.N,A3*%
X95605000Y-68070000D03*
%TO.P,J2,12,Pin_12*%
%TO.N,A4*%
X93065000Y-68070000D03*
%TO.P,J2,11,Pin_11*%
%TO.N,A5*%
X90525000Y-68070000D03*
%TO.P,J2,10,Pin_10*%
%TO.N,A6*%
X87985000Y-68070000D03*
%TO.P,J2,9,Pin_9*%
%TO.N,A7*%
X85445000Y-68070000D03*
%TO.P,J2,8,Pin_8*%
%TO.N,B0*%
X82905000Y-68070000D03*
%TO.P,J2,7,Pin_7*%
%TO.N,B1*%
X80365000Y-68070000D03*
%TO.P,J2,6,Pin_6*%
%TO.N,B10*%
X77825000Y-68070000D03*
%TO.P,J2,5,Pin_5*%
%TO.N,B11*%
X75285000Y-68070000D03*
%TO.P,J2,4,Pin_4*%
%TO.N,R*%
X72745000Y-68070000D03*
%TO.P,J2,3,Pin_3*%
%TO.N,unconnected-(J2-Pin_3-Pad3)*%
X70205000Y-68070000D03*
%TO.P,J2,2,Pin_2*%
%TO.N,G*%
X67665000Y-68070000D03*
D14*
%TO.P,J2,1,Pin_1*%
X65125000Y-68070000D03*
%TD*%
D16*
%TO.N,B0*%
X167750000Y-62000000D03*
X166250000Y-62000000D03*
%TO.N,B3*%
X101750000Y-93250000D03*
X100500000Y-91800000D03*
%TO.N,B5*%
X103625000Y-90950000D03*
X102125000Y-89375000D03*
%TO.N,B7*%
X103750000Y-89250000D03*
X102000000Y-87500000D03*
%TO.N,G*%
X154500000Y-98000000D03*
X174500000Y-98250000D03*
X194000000Y-99500000D03*
X243750000Y-119750000D03*
X204250000Y-119250000D03*
X184000000Y-119500000D03*
X163750000Y-119750000D03*
X144250000Y-119250000D03*
X124250000Y-119250000D03*
X104250000Y-119000000D03*
X84250000Y-119000000D03*
X114500000Y-98250000D03*
X94500000Y-98310000D03*
X189550000Y-80000000D03*
X169550000Y-79800000D03*
X67665000Y-70000000D03*
X65125000Y-69750000D03*
X110845000Y-85250000D03*
%TO.N,A5*%
X90750000Y-71750000D03*
X90750000Y-74000000D03*
%TO.N,B0*%
X83000000Y-62750000D03*
X83000000Y-65000000D03*
%TO.N,B1*%
X81000000Y-62750000D03*
X80500000Y-64950000D03*
%TD*%
D17*
%TO.N,B3*%
X100500000Y-92000000D02*
X100500000Y-91800000D01*
X101750000Y-93250000D02*
X100500000Y-92000000D01*
%TO.N,B7*%
X102000000Y-87500000D02*
X103750000Y-89250000D01*
%TO.N,B5*%
X103625000Y-90875000D02*
X103625000Y-90950000D01*
X102125000Y-89375000D02*
X103625000Y-90875000D01*
%TO.N,B0*%
X166250000Y-62000000D02*
X167750000Y-62000000D01*
%TO.N,A5*%
X90750000Y-71750000D02*
X90750000Y-74000000D01*
%TO.N,B0*%
X83000000Y-65000000D02*
X83000000Y-62750000D01*
%TO.N,B1*%
X80500000Y-63250000D02*
X81000000Y-62750000D01*
X80500000Y-64950000D02*
X80500000Y-63250000D01*
%TD*%
%TA.AperFunction,Conductor*%
%TO.N,G*%
G36*
X253350855Y-60150011D02*
G01*
X253512269Y-60152274D01*
X253524390Y-60153041D01*
X253828553Y-60187312D01*
X253845992Y-60189277D01*
X253859700Y-60191606D01*
X254174366Y-60263426D01*
X254187725Y-60267273D01*
X254492392Y-60373881D01*
X254505228Y-60379199D01*
X254796025Y-60519239D01*
X254808195Y-60525965D01*
X255081486Y-60697685D01*
X255092827Y-60705732D01*
X255345173Y-60906971D01*
X255355541Y-60916237D01*
X255583762Y-61144458D01*
X255593028Y-61154826D01*
X255794267Y-61407172D01*
X255802314Y-61418513D01*
X255974034Y-61691804D01*
X255980760Y-61703974D01*
X256120798Y-61994766D01*
X256126120Y-62007613D01*
X256232724Y-62312270D01*
X256236573Y-62325633D01*
X256308393Y-62640299D01*
X256310722Y-62654007D01*
X256346957Y-62975597D01*
X256347725Y-62987743D01*
X256349988Y-63149144D01*
X256350000Y-63150882D01*
X256350000Y-132899117D01*
X256349988Y-132900855D01*
X256347725Y-133062256D01*
X256346957Y-133074402D01*
X256310722Y-133395992D01*
X256308393Y-133409700D01*
X256236573Y-133724366D01*
X256232724Y-133737729D01*
X256126120Y-134042386D01*
X256120798Y-134055233D01*
X255980760Y-134346025D01*
X255974034Y-134358195D01*
X255802314Y-134631486D01*
X255794267Y-134642827D01*
X255593028Y-134895173D01*
X255583762Y-134905541D01*
X255355541Y-135133762D01*
X255345173Y-135143028D01*
X255092827Y-135344267D01*
X255081486Y-135352314D01*
X254808195Y-135524034D01*
X254796025Y-135530760D01*
X254505233Y-135670798D01*
X254492386Y-135676120D01*
X254187729Y-135782724D01*
X254174366Y-135786573D01*
X253859700Y-135858393D01*
X253845992Y-135860722D01*
X253524402Y-135896957D01*
X253512256Y-135897725D01*
X253350856Y-135899988D01*
X253349118Y-135900000D01*
X66900882Y-135900000D01*
X66899144Y-135899988D01*
X66737743Y-135897725D01*
X66725597Y-135896957D01*
X66404007Y-135860722D01*
X66390299Y-135858393D01*
X66075633Y-135786573D01*
X66062270Y-135782724D01*
X65757613Y-135676120D01*
X65744766Y-135670798D01*
X65453974Y-135530760D01*
X65441804Y-135524034D01*
X65168513Y-135352314D01*
X65157172Y-135344267D01*
X64904826Y-135143028D01*
X64894458Y-135133762D01*
X64666237Y-134905541D01*
X64656971Y-134895173D01*
X64455732Y-134642827D01*
X64447685Y-134631486D01*
X64275965Y-134358195D01*
X64269239Y-134346025D01*
X64223237Y-134250500D01*
X64129199Y-134055228D01*
X64123879Y-134042386D01*
X64031991Y-133779786D01*
X64017273Y-133737725D01*
X64013426Y-133724366D01*
X63941606Y-133409700D01*
X63939277Y-133395992D01*
X63937312Y-133378553D01*
X63903041Y-133074390D01*
X63902274Y-133062269D01*
X63900012Y-132900855D01*
X63900000Y-132899117D01*
X63900000Y-132793713D01*
X65549500Y-132793713D01*
X65549500Y-133006287D01*
X65582754Y-133216243D01*
X65645612Y-133409700D01*
X65648444Y-133418414D01*
X65744951Y-133607820D01*
X65869890Y-133779786D01*
X66020213Y-133930109D01*
X66192179Y-134055048D01*
X66192181Y-134055049D01*
X66192184Y-134055051D01*
X66381588Y-134151557D01*
X66583757Y-134217246D01*
X66793713Y-134250500D01*
X66793714Y-134250500D01*
X67006286Y-134250500D01*
X67006287Y-134250500D01*
X67216243Y-134217246D01*
X67418412Y-134151557D01*
X67607816Y-134055051D01*
X67629789Y-134039086D01*
X67779786Y-133930109D01*
X67779788Y-133930106D01*
X67779792Y-133930104D01*
X67930104Y-133779792D01*
X67930106Y-133779788D01*
X67930109Y-133779786D01*
X68055048Y-133607820D01*
X68055047Y-133607820D01*
X68055051Y-133607816D01*
X68151557Y-133418412D01*
X68217246Y-133216243D01*
X68250500Y-133006287D01*
X68250500Y-132793713D01*
X251999500Y-132793713D01*
X251999500Y-133006287D01*
X252032754Y-133216243D01*
X252095612Y-133409700D01*
X252098444Y-133418414D01*
X252194951Y-133607820D01*
X252319890Y-133779786D01*
X252470213Y-133930109D01*
X252642179Y-134055048D01*
X252642181Y-134055049D01*
X252642184Y-134055051D01*
X252831588Y-134151557D01*
X253033757Y-134217246D01*
X253243713Y-134250500D01*
X253243714Y-134250500D01*
X253456286Y-134250500D01*
X253456287Y-134250500D01*
X253666243Y-134217246D01*
X253868412Y-134151557D01*
X254057816Y-134055051D01*
X254079789Y-134039086D01*
X254229786Y-133930109D01*
X254229788Y-133930106D01*
X254229792Y-133930104D01*
X254380104Y-133779792D01*
X254380106Y-133779788D01*
X254380109Y-133779786D01*
X254505048Y-133607820D01*
X254505047Y-133607820D01*
X254505051Y-133607816D01*
X254601557Y-133418412D01*
X254667246Y-133216243D01*
X254700500Y-133006287D01*
X254700500Y-132793713D01*
X254667246Y-132583757D01*
X254601557Y-132381588D01*
X254505051Y-132192184D01*
X254505049Y-132192181D01*
X254505048Y-132192179D01*
X254380109Y-132020213D01*
X254229786Y-131869890D01*
X254057820Y-131744951D01*
X253868414Y-131648444D01*
X253868413Y-131648443D01*
X253868412Y-131648443D01*
X253666243Y-131582754D01*
X253666241Y-131582753D01*
X253666240Y-131582753D01*
X253504957Y-131557208D01*
X253456287Y-131549500D01*
X253243713Y-131549500D01*
X253195042Y-131557208D01*
X253033760Y-131582753D01*
X252831585Y-131648444D01*
X252642179Y-131744951D01*
X252470213Y-131869890D01*
X252319890Y-132020213D01*
X252194951Y-132192179D01*
X252098444Y-132381585D01*
X252032753Y-132583760D01*
X251999500Y-132793713D01*
X68250500Y-132793713D01*
X68217246Y-132583757D01*
X68151557Y-132381588D01*
X68055051Y-132192184D01*
X68055049Y-132192181D01*
X68055048Y-132192179D01*
X67930109Y-132020213D01*
X67779786Y-131869890D01*
X67607820Y-131744951D01*
X67418414Y-131648444D01*
X67418413Y-131648443D01*
X67418412Y-131648443D01*
X67216243Y-131582754D01*
X67216241Y-131582753D01*
X67216240Y-131582753D01*
X67054957Y-131557208D01*
X67006287Y-131549500D01*
X66793713Y-131549500D01*
X66745042Y-131557208D01*
X66583760Y-131582753D01*
X66381585Y-131648444D01*
X66192179Y-131744951D01*
X66020213Y-131869890D01*
X65869890Y-132020213D01*
X65744951Y-132192179D01*
X65648444Y-132381585D01*
X65582753Y-132583760D01*
X65549500Y-132793713D01*
X63900000Y-132793713D01*
X63900000Y-123242486D01*
X77909500Y-123242486D01*
X77909500Y-123537513D01*
X77941571Y-123781113D01*
X77948007Y-123829993D01*
X77948008Y-123829995D01*
X78024361Y-124114951D01*
X78024364Y-124114961D01*
X78137254Y-124387500D01*
X78137258Y-124387510D01*
X78284761Y-124642993D01*
X78464352Y-124877040D01*
X78464358Y-124877047D01*
X78672952Y-125085641D01*
X78672959Y-125085647D01*
X78907006Y-125265238D01*
X79162489Y-125412741D01*
X79162490Y-125412741D01*
X79162493Y-125412743D01*
X79435048Y-125525639D01*
X79720007Y-125601993D01*
X80012494Y-125640500D01*
X80012501Y-125640500D01*
X80307499Y-125640500D01*
X80307506Y-125640500D01*
X80599993Y-125601993D01*
X80884952Y-125525639D01*
X81157507Y-125412743D01*
X81412994Y-125265238D01*
X81647042Y-125085646D01*
X81855646Y-124877042D01*
X82035238Y-124642994D01*
X82182743Y-124387507D01*
X82295639Y-124114952D01*
X82371993Y-123829993D01*
X82410500Y-123537506D01*
X82410500Y-123242494D01*
X82410499Y-123242486D01*
X97909500Y-123242486D01*
X97909500Y-123537513D01*
X97941571Y-123781113D01*
X97948007Y-123829993D01*
X97948008Y-123829995D01*
X98024361Y-124114951D01*
X98024364Y-124114961D01*
X98137254Y-124387500D01*
X98137258Y-124387510D01*
X98284761Y-124642993D01*
X98464352Y-124877040D01*
X98464358Y-124877047D01*
X98672952Y-125085641D01*
X98672959Y-125085647D01*
X98907006Y-125265238D01*
X99162489Y-125412741D01*
X99162490Y-125412741D01*
X99162493Y-125412743D01*
X99435048Y-125525639D01*
X99720007Y-125601993D01*
X100012494Y-125640500D01*
X100012501Y-125640500D01*
X100307499Y-125640500D01*
X100307506Y-125640500D01*
X100599993Y-125601993D01*
X100884952Y-125525639D01*
X101157507Y-125412743D01*
X101412994Y-125265238D01*
X101647042Y-125085646D01*
X101855646Y-124877042D01*
X102035238Y-124642994D01*
X102182743Y-124387507D01*
X102295639Y-124114952D01*
X102371993Y-123829993D01*
X102410500Y-123537506D01*
X102410500Y-123242494D01*
X102410499Y-123242486D01*
X117909500Y-123242486D01*
X117909500Y-123537513D01*
X117941571Y-123781113D01*
X117948007Y-123829993D01*
X117948008Y-123829995D01*
X118024361Y-124114951D01*
X118024364Y-124114961D01*
X118137254Y-124387500D01*
X118137258Y-124387510D01*
X118284761Y-124642993D01*
X118464352Y-124877040D01*
X118464358Y-124877047D01*
X118672952Y-125085641D01*
X118672959Y-125085647D01*
X118907006Y-125265238D01*
X119162489Y-125412741D01*
X119162490Y-125412741D01*
X119162493Y-125412743D01*
X119435048Y-125525639D01*
X119720007Y-125601993D01*
X120012494Y-125640500D01*
X120012501Y-125640500D01*
X120307499Y-125640500D01*
X120307506Y-125640500D01*
X120599993Y-125601993D01*
X120884952Y-125525639D01*
X121157507Y-125412743D01*
X121412994Y-125265238D01*
X121647042Y-125085646D01*
X121855646Y-124877042D01*
X122035238Y-124642994D01*
X122182743Y-124387507D01*
X122295639Y-124114952D01*
X122371993Y-123829993D01*
X122410500Y-123537506D01*
X122410500Y-123242494D01*
X122410499Y-123242486D01*
X137909500Y-123242486D01*
X137909500Y-123537513D01*
X137941571Y-123781113D01*
X137948007Y-123829993D01*
X137948008Y-123829995D01*
X138024361Y-124114951D01*
X138024364Y-124114961D01*
X138137254Y-124387500D01*
X138137258Y-124387510D01*
X138284761Y-124642993D01*
X138464352Y-124877040D01*
X138464358Y-124877047D01*
X138672952Y-125085641D01*
X138672959Y-125085647D01*
X138907006Y-125265238D01*
X139162489Y-125412741D01*
X139162490Y-125412741D01*
X139162493Y-125412743D01*
X139435048Y-125525639D01*
X139720007Y-125601993D01*
X140012494Y-125640500D01*
X140012501Y-125640500D01*
X140307499Y-125640500D01*
X140307506Y-125640500D01*
X140599993Y-125601993D01*
X140884952Y-125525639D01*
X141157507Y-125412743D01*
X141412994Y-125265238D01*
X141647042Y-125085646D01*
X141855646Y-124877042D01*
X142035238Y-124642994D01*
X142182743Y-124387507D01*
X142295639Y-124114952D01*
X142371993Y-123829993D01*
X142410500Y-123537506D01*
X142410500Y-123242494D01*
X142410499Y-123242486D01*
X157909500Y-123242486D01*
X157909500Y-123537513D01*
X157941571Y-123781113D01*
X157948007Y-123829993D01*
X157948008Y-123829995D01*
X158024361Y-124114951D01*
X158024364Y-124114961D01*
X158137254Y-124387500D01*
X158137258Y-124387510D01*
X158284761Y-124642993D01*
X158464352Y-124877040D01*
X158464358Y-124877047D01*
X158672952Y-125085641D01*
X158672959Y-125085647D01*
X158907006Y-125265238D01*
X159162489Y-125412741D01*
X159162490Y-125412741D01*
X159162493Y-125412743D01*
X159435048Y-125525639D01*
X159720007Y-125601993D01*
X160012494Y-125640500D01*
X160012501Y-125640500D01*
X160307499Y-125640500D01*
X160307506Y-125640500D01*
X160599993Y-125601993D01*
X160884952Y-125525639D01*
X161157507Y-125412743D01*
X161412994Y-125265238D01*
X161647042Y-125085646D01*
X161855646Y-124877042D01*
X162035238Y-124642994D01*
X162182743Y-124387507D01*
X162295639Y-124114952D01*
X162371993Y-123829993D01*
X162410500Y-123537506D01*
X162410500Y-123242494D01*
X162410499Y-123242486D01*
X177909500Y-123242486D01*
X177909500Y-123537513D01*
X177941571Y-123781113D01*
X177948007Y-123829993D01*
X177948008Y-123829995D01*
X178024361Y-124114951D01*
X178024364Y-124114961D01*
X178137254Y-124387500D01*
X178137258Y-124387510D01*
X178284761Y-124642993D01*
X178464352Y-124877040D01*
X178464358Y-124877047D01*
X178672952Y-125085641D01*
X178672959Y-125085647D01*
X178907006Y-125265238D01*
X179162489Y-125412741D01*
X179162490Y-125412741D01*
X179162493Y-125412743D01*
X179435048Y-125525639D01*
X179720007Y-125601993D01*
X180012494Y-125640500D01*
X180012501Y-125640500D01*
X180307499Y-125640500D01*
X180307506Y-125640500D01*
X180599993Y-125601993D01*
X180884952Y-125525639D01*
X181157507Y-125412743D01*
X181412994Y-125265238D01*
X181647042Y-125085646D01*
X181855646Y-124877042D01*
X182035238Y-124642994D01*
X182182743Y-124387507D01*
X182295639Y-124114952D01*
X182371993Y-123829993D01*
X182410500Y-123537506D01*
X182410500Y-123242494D01*
X182410499Y-123242486D01*
X197909500Y-123242486D01*
X197909500Y-123537513D01*
X197941571Y-123781113D01*
X197948007Y-123829993D01*
X197948008Y-123829995D01*
X198024361Y-124114951D01*
X198024364Y-124114961D01*
X198137254Y-124387500D01*
X198137258Y-124387510D01*
X198284761Y-124642993D01*
X198464352Y-124877040D01*
X198464358Y-124877047D01*
X198672952Y-125085641D01*
X198672959Y-125085647D01*
X198907006Y-125265238D01*
X199162489Y-125412741D01*
X199162490Y-125412741D01*
X199162493Y-125412743D01*
X199435048Y-125525639D01*
X199720007Y-125601993D01*
X200012494Y-125640500D01*
X200012501Y-125640500D01*
X200307499Y-125640500D01*
X200307506Y-125640500D01*
X200599993Y-125601993D01*
X200884952Y-125525639D01*
X201157507Y-125412743D01*
X201412994Y-125265238D01*
X201647042Y-125085646D01*
X201855646Y-124877042D01*
X202035238Y-124642994D01*
X202182743Y-124387507D01*
X202295639Y-124114952D01*
X202371993Y-123829993D01*
X202410500Y-123537506D01*
X202410500Y-123242494D01*
X202410499Y-123242486D01*
X237859500Y-123242486D01*
X237859500Y-123537513D01*
X237891571Y-123781113D01*
X237898007Y-123829993D01*
X237898008Y-123829995D01*
X237974361Y-124114951D01*
X237974364Y-124114961D01*
X238087254Y-124387500D01*
X238087258Y-124387510D01*
X238234761Y-124642993D01*
X238414352Y-124877040D01*
X238414358Y-124877047D01*
X238622952Y-125085641D01*
X238622959Y-125085647D01*
X238857006Y-125265238D01*
X239112489Y-125412741D01*
X239112490Y-125412741D01*
X239112493Y-125412743D01*
X239385048Y-125525639D01*
X239670007Y-125601993D01*
X239962494Y-125640500D01*
X239962501Y-125640500D01*
X240257499Y-125640500D01*
X240257506Y-125640500D01*
X240549993Y-125601993D01*
X240834952Y-125525639D01*
X241107507Y-125412743D01*
X241362994Y-125265238D01*
X241597042Y-125085646D01*
X241805646Y-124877042D01*
X241985238Y-124642994D01*
X242132743Y-124387507D01*
X242245639Y-124114952D01*
X242321993Y-123829993D01*
X242360500Y-123537506D01*
X242360500Y-123242494D01*
X242321993Y-122950007D01*
X242245639Y-122665048D01*
X242132743Y-122392493D01*
X241985238Y-122137006D01*
X241985184Y-122136935D01*
X241805647Y-121902959D01*
X241805641Y-121902952D01*
X241597047Y-121694358D01*
X241597040Y-121694352D01*
X241362993Y-121514761D01*
X241107510Y-121367258D01*
X241107500Y-121367254D01*
X240834961Y-121254364D01*
X240834954Y-121254362D01*
X240834952Y-121254361D01*
X240549993Y-121178007D01*
X240501113Y-121171571D01*
X240257513Y-121139500D01*
X240257506Y-121139500D01*
X239962494Y-121139500D01*
X239962486Y-121139500D01*
X239684085Y-121176153D01*
X239670007Y-121178007D01*
X239385048Y-121254361D01*
X239385038Y-121254364D01*
X239112499Y-121367254D01*
X239112489Y-121367258D01*
X238857006Y-121514761D01*
X238622959Y-121694352D01*
X238622952Y-121694358D01*
X238414358Y-121902952D01*
X238414352Y-121902959D01*
X238234761Y-122137006D01*
X238087258Y-122392489D01*
X238087254Y-122392499D01*
X237974364Y-122665038D01*
X237974361Y-122665048D01*
X237898008Y-122950004D01*
X237898006Y-122950015D01*
X237859500Y-123242486D01*
X202410499Y-123242486D01*
X202371993Y-122950007D01*
X202295639Y-122665048D01*
X202182743Y-122392493D01*
X202035238Y-122137006D01*
X202035184Y-122136935D01*
X201855647Y-121902959D01*
X201855641Y-121902952D01*
X201647047Y-121694358D01*
X201647040Y-121694352D01*
X201412993Y-121514761D01*
X201157510Y-121367258D01*
X201157500Y-121367254D01*
X200884961Y-121254364D01*
X200884954Y-121254362D01*
X200884952Y-121254361D01*
X200599993Y-121178007D01*
X200551113Y-121171571D01*
X200307513Y-121139500D01*
X200307506Y-121139500D01*
X200012494Y-121139500D01*
X200012486Y-121139500D01*
X199734085Y-121176153D01*
X199720007Y-121178007D01*
X199435048Y-121254361D01*
X199435038Y-121254364D01*
X199162499Y-121367254D01*
X199162489Y-121367258D01*
X198907006Y-121514761D01*
X198672959Y-121694352D01*
X198672952Y-121694358D01*
X198464358Y-121902952D01*
X198464352Y-121902959D01*
X198284761Y-122137006D01*
X198137258Y-122392489D01*
X198137254Y-122392499D01*
X198024364Y-122665038D01*
X198024361Y-122665048D01*
X197948008Y-122950004D01*
X197948006Y-122950015D01*
X197909500Y-123242486D01*
X182410499Y-123242486D01*
X182371993Y-122950007D01*
X182295639Y-122665048D01*
X182182743Y-122392493D01*
X182035238Y-122137006D01*
X182035184Y-122136935D01*
X181855647Y-121902959D01*
X181855641Y-121902952D01*
X181647047Y-121694358D01*
X181647040Y-121694352D01*
X181412993Y-121514761D01*
X181157510Y-121367258D01*
X181157500Y-121367254D01*
X180884961Y-121254364D01*
X180884954Y-121254362D01*
X180884952Y-121254361D01*
X180599993Y-121178007D01*
X180551113Y-121171571D01*
X180307513Y-121139500D01*
X180307506Y-121139500D01*
X180012494Y-121139500D01*
X180012486Y-121139500D01*
X179734085Y-121176153D01*
X179720007Y-121178007D01*
X179435048Y-121254361D01*
X179435038Y-121254364D01*
X179162499Y-121367254D01*
X179162489Y-121367258D01*
X178907006Y-121514761D01*
X178672959Y-121694352D01*
X178672952Y-121694358D01*
X178464358Y-121902952D01*
X178464352Y-121902959D01*
X178284761Y-122137006D01*
X178137258Y-122392489D01*
X178137254Y-122392499D01*
X178024364Y-122665038D01*
X178024361Y-122665048D01*
X177948008Y-122950004D01*
X177948006Y-122950015D01*
X177909500Y-123242486D01*
X162410499Y-123242486D01*
X162371993Y-122950007D01*
X162295639Y-122665048D01*
X162182743Y-122392493D01*
X162035238Y-122137006D01*
X162035184Y-122136935D01*
X161855647Y-121902959D01*
X161855641Y-121902952D01*
X161647047Y-121694358D01*
X161647040Y-121694352D01*
X161412993Y-121514761D01*
X161157510Y-121367258D01*
X161157500Y-121367254D01*
X160884961Y-121254364D01*
X160884954Y-121254362D01*
X160884952Y-121254361D01*
X160599993Y-121178007D01*
X160551113Y-121171571D01*
X160307513Y-121139500D01*
X160307506Y-121139500D01*
X160012494Y-121139500D01*
X160012486Y-121139500D01*
X159734085Y-121176153D01*
X159720007Y-121178007D01*
X159435048Y-121254361D01*
X159435038Y-121254364D01*
X159162499Y-121367254D01*
X159162489Y-121367258D01*
X158907006Y-121514761D01*
X158672959Y-121694352D01*
X158672952Y-121694358D01*
X158464358Y-121902952D01*
X158464352Y-121902959D01*
X158284761Y-122137006D01*
X158137258Y-122392489D01*
X158137254Y-122392499D01*
X158024364Y-122665038D01*
X158024361Y-122665048D01*
X157948008Y-122950004D01*
X157948006Y-122950015D01*
X157909500Y-123242486D01*
X142410499Y-123242486D01*
X142371993Y-122950007D01*
X142295639Y-122665048D01*
X142182743Y-122392493D01*
X142035238Y-122137006D01*
X142035184Y-122136935D01*
X141855647Y-121902959D01*
X141855641Y-121902952D01*
X141647047Y-121694358D01*
X141647040Y-121694352D01*
X141412993Y-121514761D01*
X141157510Y-121367258D01*
X141157500Y-121367254D01*
X140884961Y-121254364D01*
X140884954Y-121254362D01*
X140884952Y-121254361D01*
X140599993Y-121178007D01*
X140551113Y-121171571D01*
X140307513Y-121139500D01*
X140307506Y-121139500D01*
X140012494Y-121139500D01*
X140012486Y-121139500D01*
X139734085Y-121176153D01*
X139720007Y-121178007D01*
X139435048Y-121254361D01*
X139435038Y-121254364D01*
X139162499Y-121367254D01*
X139162489Y-121367258D01*
X138907006Y-121514761D01*
X138672959Y-121694352D01*
X138672952Y-121694358D01*
X138464358Y-121902952D01*
X138464352Y-121902959D01*
X138284761Y-122137006D01*
X138137258Y-122392489D01*
X138137254Y-122392499D01*
X138024364Y-122665038D01*
X138024361Y-122665048D01*
X137948008Y-122950004D01*
X137948006Y-122950015D01*
X137909500Y-123242486D01*
X122410499Y-123242486D01*
X122371993Y-122950007D01*
X122295639Y-122665048D01*
X122182743Y-122392493D01*
X122035238Y-122137006D01*
X122035184Y-122136935D01*
X121855647Y-121902959D01*
X121855641Y-121902952D01*
X121647047Y-121694358D01*
X121647040Y-121694352D01*
X121412993Y-121514761D01*
X121157510Y-121367258D01*
X121157500Y-121367254D01*
X120884961Y-121254364D01*
X120884954Y-121254362D01*
X120884952Y-121254361D01*
X120599993Y-121178007D01*
X120551113Y-121171571D01*
X120307513Y-121139500D01*
X120307506Y-121139500D01*
X120012494Y-121139500D01*
X120012486Y-121139500D01*
X119734085Y-121176153D01*
X119720007Y-121178007D01*
X119435048Y-121254361D01*
X119435038Y-121254364D01*
X119162499Y-121367254D01*
X119162489Y-121367258D01*
X118907006Y-121514761D01*
X118672959Y-121694352D01*
X118672952Y-121694358D01*
X118464358Y-121902952D01*
X118464352Y-121902959D01*
X118284761Y-122137006D01*
X118137258Y-122392489D01*
X118137254Y-122392499D01*
X118024364Y-122665038D01*
X118024361Y-122665048D01*
X117948008Y-122950004D01*
X117948006Y-122950015D01*
X117909500Y-123242486D01*
X102410499Y-123242486D01*
X102371993Y-122950007D01*
X102295639Y-122665048D01*
X102182743Y-122392493D01*
X102035238Y-122137006D01*
X102035184Y-122136935D01*
X101855647Y-121902959D01*
X101855641Y-121902952D01*
X101647047Y-121694358D01*
X101647040Y-121694352D01*
X101412993Y-121514761D01*
X101157510Y-121367258D01*
X101157500Y-121367254D01*
X100884961Y-121254364D01*
X100884954Y-121254362D01*
X100884952Y-121254361D01*
X100599993Y-121178007D01*
X100551113Y-121171571D01*
X100307513Y-121139500D01*
X100307506Y-121139500D01*
X100012494Y-121139500D01*
X100012486Y-121139500D01*
X99734085Y-121176153D01*
X99720007Y-121178007D01*
X99435048Y-121254361D01*
X99435038Y-121254364D01*
X99162499Y-121367254D01*
X99162489Y-121367258D01*
X98907006Y-121514761D01*
X98672959Y-121694352D01*
X98672952Y-121694358D01*
X98464358Y-121902952D01*
X98464352Y-121902959D01*
X98284761Y-122137006D01*
X98137258Y-122392489D01*
X98137254Y-122392499D01*
X98024364Y-122665038D01*
X98024361Y-122665048D01*
X97948008Y-122950004D01*
X97948006Y-122950015D01*
X97909500Y-123242486D01*
X82410499Y-123242486D01*
X82371993Y-122950007D01*
X82295639Y-122665048D01*
X82182743Y-122392493D01*
X82035238Y-122137006D01*
X82035184Y-122136935D01*
X81855647Y-121902959D01*
X81855641Y-121902952D01*
X81647047Y-121694358D01*
X81647040Y-121694352D01*
X81412993Y-121514761D01*
X81157510Y-121367258D01*
X81157500Y-121367254D01*
X80884961Y-121254364D01*
X80884954Y-121254362D01*
X80884952Y-121254361D01*
X80599993Y-121178007D01*
X80551113Y-121171571D01*
X80307513Y-121139500D01*
X80307506Y-121139500D01*
X80012494Y-121139500D01*
X80012486Y-121139500D01*
X79734085Y-121176153D01*
X79720007Y-121178007D01*
X79435048Y-121254361D01*
X79435038Y-121254364D01*
X79162499Y-121367254D01*
X79162489Y-121367258D01*
X78907006Y-121514761D01*
X78672959Y-121694352D01*
X78672952Y-121694358D01*
X78464358Y-121902952D01*
X78464352Y-121902959D01*
X78284761Y-122137006D01*
X78137258Y-122392489D01*
X78137254Y-122392499D01*
X78024364Y-122665038D01*
X78024361Y-122665048D01*
X77948008Y-122950004D01*
X77948006Y-122950015D01*
X77909500Y-123242486D01*
X63900000Y-123242486D01*
X63900000Y-120849993D01*
X74944700Y-120849993D01*
X74944700Y-120850006D01*
X74963864Y-121081297D01*
X74963866Y-121081308D01*
X75020842Y-121306300D01*
X75114075Y-121518848D01*
X75241016Y-121713147D01*
X75241019Y-121713151D01*
X75241021Y-121713153D01*
X75398216Y-121883913D01*
X75398219Y-121883915D01*
X75398222Y-121883918D01*
X75581365Y-122026464D01*
X75581371Y-122026468D01*
X75581374Y-122026470D01*
X75785497Y-122136936D01*
X75899487Y-122176068D01*
X76005015Y-122212297D01*
X76005017Y-122212297D01*
X76005019Y-122212298D01*
X76233951Y-122250500D01*
X76233952Y-122250500D01*
X76466048Y-122250500D01*
X76466049Y-122250500D01*
X76694981Y-122212298D01*
X76914503Y-122136936D01*
X77118626Y-122026470D01*
X77301784Y-121883913D01*
X77458979Y-121713153D01*
X77585924Y-121518849D01*
X77679157Y-121306300D01*
X77736134Y-121081305D01*
X77755300Y-120850000D01*
X77755300Y-120849993D01*
X94944700Y-120849993D01*
X94944700Y-120850006D01*
X94963864Y-121081297D01*
X94963866Y-121081308D01*
X95020842Y-121306300D01*
X95114075Y-121518848D01*
X95241016Y-121713147D01*
X95241019Y-121713151D01*
X95241021Y-121713153D01*
X95398216Y-121883913D01*
X95398219Y-121883915D01*
X95398222Y-121883918D01*
X95581365Y-122026464D01*
X95581371Y-122026468D01*
X95581374Y-122026470D01*
X95785497Y-122136936D01*
X95899487Y-122176068D01*
X96005015Y-122212297D01*
X96005017Y-122212297D01*
X96005019Y-122212298D01*
X96233951Y-122250500D01*
X96233952Y-122250500D01*
X96466048Y-122250500D01*
X96466049Y-122250500D01*
X96694981Y-122212298D01*
X96914503Y-122136936D01*
X97118626Y-122026470D01*
X97301784Y-121883913D01*
X97458979Y-121713153D01*
X97585924Y-121518849D01*
X97679157Y-121306300D01*
X97736134Y-121081305D01*
X97755300Y-120850000D01*
X97755300Y-120849993D01*
X114944700Y-120849993D01*
X114944700Y-120850006D01*
X114963864Y-121081297D01*
X114963866Y-121081308D01*
X115020842Y-121306300D01*
X115114075Y-121518848D01*
X115241016Y-121713147D01*
X115241019Y-121713151D01*
X115241021Y-121713153D01*
X115398216Y-121883913D01*
X115398219Y-121883915D01*
X115398222Y-121883918D01*
X115581365Y-122026464D01*
X115581371Y-122026468D01*
X115581374Y-122026470D01*
X115785497Y-122136936D01*
X115899487Y-122176068D01*
X116005015Y-122212297D01*
X116005017Y-122212297D01*
X116005019Y-122212298D01*
X116233951Y-122250500D01*
X116233952Y-122250500D01*
X116466048Y-122250500D01*
X116466049Y-122250500D01*
X116694981Y-122212298D01*
X116914503Y-122136936D01*
X117118626Y-122026470D01*
X117301784Y-121883913D01*
X117458979Y-121713153D01*
X117585924Y-121518849D01*
X117679157Y-121306300D01*
X117736134Y-121081305D01*
X117755300Y-120850000D01*
X117755300Y-120849993D01*
X134944700Y-120849993D01*
X134944700Y-120850006D01*
X134963864Y-121081297D01*
X134963866Y-121081308D01*
X135020842Y-121306300D01*
X135114075Y-121518848D01*
X135241016Y-121713147D01*
X135241019Y-121713151D01*
X135241021Y-121713153D01*
X135398216Y-121883913D01*
X135398219Y-121883915D01*
X135398222Y-121883918D01*
X135581365Y-122026464D01*
X135581371Y-122026468D01*
X135581374Y-122026470D01*
X135785497Y-122136936D01*
X135899487Y-122176068D01*
X136005015Y-122212297D01*
X136005017Y-122212297D01*
X136005019Y-122212298D01*
X136233951Y-122250500D01*
X136233952Y-122250500D01*
X136466048Y-122250500D01*
X136466049Y-122250500D01*
X136694981Y-122212298D01*
X136914503Y-122136936D01*
X137118626Y-122026470D01*
X137301784Y-121883913D01*
X137458979Y-121713153D01*
X137585924Y-121518849D01*
X137679157Y-121306300D01*
X137736134Y-121081305D01*
X137755300Y-120850000D01*
X137755300Y-120849993D01*
X154944700Y-120849993D01*
X154944700Y-120850006D01*
X154963864Y-121081297D01*
X154963866Y-121081308D01*
X155020842Y-121306300D01*
X155114075Y-121518848D01*
X155241016Y-121713147D01*
X155241019Y-121713151D01*
X155241021Y-121713153D01*
X155398216Y-121883913D01*
X155398219Y-121883915D01*
X155398222Y-121883918D01*
X155581365Y-122026464D01*
X155581371Y-122026468D01*
X155581374Y-122026470D01*
X155785497Y-122136936D01*
X155899487Y-122176068D01*
X156005015Y-122212297D01*
X156005017Y-122212297D01*
X156005019Y-122212298D01*
X156233951Y-122250500D01*
X156233952Y-122250500D01*
X156466048Y-122250500D01*
X156466049Y-122250500D01*
X156694981Y-122212298D01*
X156914503Y-122136936D01*
X157118626Y-122026470D01*
X157301784Y-121883913D01*
X157458979Y-121713153D01*
X157585924Y-121518849D01*
X157679157Y-121306300D01*
X157736134Y-121081305D01*
X157755300Y-120850000D01*
X157755300Y-120849993D01*
X174944700Y-120849993D01*
X174944700Y-120850006D01*
X174963864Y-121081297D01*
X174963866Y-121081308D01*
X175020842Y-121306300D01*
X175114075Y-121518848D01*
X175241016Y-121713147D01*
X175241019Y-121713151D01*
X175241021Y-121713153D01*
X175398216Y-121883913D01*
X175398219Y-121883915D01*
X175398222Y-121883918D01*
X175581365Y-122026464D01*
X175581371Y-122026468D01*
X175581374Y-122026470D01*
X175785497Y-122136936D01*
X175899487Y-122176068D01*
X176005015Y-122212297D01*
X176005017Y-122212297D01*
X176005019Y-122212298D01*
X176233951Y-122250500D01*
X176233952Y-122250500D01*
X176466048Y-122250500D01*
X176466049Y-122250500D01*
X176694981Y-122212298D01*
X176914503Y-122136936D01*
X177118626Y-122026470D01*
X177301784Y-121883913D01*
X177458979Y-121713153D01*
X177585924Y-121518849D01*
X177679157Y-121306300D01*
X177736134Y-121081305D01*
X177755300Y-120850000D01*
X177755300Y-120849993D01*
X194944700Y-120849993D01*
X194944700Y-120850006D01*
X194963864Y-121081297D01*
X194963866Y-121081308D01*
X195020842Y-121306300D01*
X195114075Y-121518848D01*
X195241016Y-121713147D01*
X195241019Y-121713151D01*
X195241021Y-121713153D01*
X195398216Y-121883913D01*
X195398219Y-121883915D01*
X195398222Y-121883918D01*
X195581365Y-122026464D01*
X195581371Y-122026468D01*
X195581374Y-122026470D01*
X195785497Y-122136936D01*
X195899487Y-122176068D01*
X196005015Y-122212297D01*
X196005017Y-122212297D01*
X196005019Y-122212298D01*
X196233951Y-122250500D01*
X196233952Y-122250500D01*
X196466048Y-122250500D01*
X196466049Y-122250500D01*
X196694981Y-122212298D01*
X196914503Y-122136936D01*
X197118626Y-122026470D01*
X197301784Y-121883913D01*
X197458979Y-121713153D01*
X197585924Y-121518849D01*
X197679157Y-121306300D01*
X197736134Y-121081305D01*
X197755300Y-120850000D01*
X197755300Y-120849993D01*
X234894700Y-120849993D01*
X234894700Y-120850006D01*
X234913864Y-121081297D01*
X234913866Y-121081308D01*
X234970842Y-121306300D01*
X235064075Y-121518848D01*
X235191016Y-121713147D01*
X235191019Y-121713151D01*
X235191021Y-121713153D01*
X235348216Y-121883913D01*
X235348219Y-121883915D01*
X235348222Y-121883918D01*
X235531365Y-122026464D01*
X235531371Y-122026468D01*
X235531374Y-122026470D01*
X235735497Y-122136936D01*
X235849487Y-122176068D01*
X235955015Y-122212297D01*
X235955017Y-122212297D01*
X235955019Y-122212298D01*
X236183951Y-122250500D01*
X236183952Y-122250500D01*
X236416048Y-122250500D01*
X236416049Y-122250500D01*
X236644981Y-122212298D01*
X236864503Y-122136936D01*
X237068626Y-122026470D01*
X237251784Y-121883913D01*
X237408979Y-121713153D01*
X237535924Y-121518849D01*
X237629157Y-121306300D01*
X237686134Y-121081305D01*
X237705300Y-120850000D01*
X237705300Y-120849993D01*
X237686135Y-120618702D01*
X237686133Y-120618691D01*
X237629157Y-120393699D01*
X237535924Y-120181151D01*
X237408983Y-119986852D01*
X237408980Y-119986849D01*
X237408979Y-119986847D01*
X237251784Y-119816087D01*
X237251779Y-119816083D01*
X237251777Y-119816081D01*
X237068634Y-119673535D01*
X237068628Y-119673531D01*
X236864504Y-119563064D01*
X236864495Y-119563061D01*
X236644984Y-119487702D01*
X236473282Y-119459050D01*
X236416049Y-119449500D01*
X236183951Y-119449500D01*
X236138164Y-119457140D01*
X235955015Y-119487702D01*
X235735504Y-119563061D01*
X235735495Y-119563064D01*
X235531371Y-119673531D01*
X235531365Y-119673535D01*
X235348222Y-119816081D01*
X235348219Y-119816084D01*
X235191016Y-119986852D01*
X235064075Y-120181151D01*
X234970842Y-120393699D01*
X234913866Y-120618691D01*
X234913864Y-120618702D01*
X234894700Y-120849993D01*
X197755300Y-120849993D01*
X197736135Y-120618702D01*
X197736133Y-120618691D01*
X197679157Y-120393699D01*
X197585924Y-120181151D01*
X197458983Y-119986852D01*
X197458980Y-119986849D01*
X197458979Y-119986847D01*
X197301784Y-119816087D01*
X197301779Y-119816083D01*
X197301777Y-119816081D01*
X197118634Y-119673535D01*
X197118628Y-119673531D01*
X196914504Y-119563064D01*
X196914495Y-119563061D01*
X196694984Y-119487702D01*
X196523282Y-119459050D01*
X196466049Y-119449500D01*
X196233951Y-119449500D01*
X196188164Y-119457140D01*
X196005015Y-119487702D01*
X195785504Y-119563061D01*
X195785495Y-119563064D01*
X195581371Y-119673531D01*
X195581365Y-119673535D01*
X195398222Y-119816081D01*
X195398219Y-119816084D01*
X195241016Y-119986852D01*
X195114075Y-120181151D01*
X195020842Y-120393699D01*
X194963866Y-120618691D01*
X194963864Y-120618702D01*
X194944700Y-120849993D01*
X177755300Y-120849993D01*
X177736135Y-120618702D01*
X177736133Y-120618691D01*
X177679157Y-120393699D01*
X177585924Y-120181151D01*
X177458983Y-119986852D01*
X177458980Y-119986849D01*
X177458979Y-119986847D01*
X177301784Y-119816087D01*
X177301779Y-119816083D01*
X177301777Y-119816081D01*
X177118634Y-119673535D01*
X177118628Y-119673531D01*
X176914504Y-119563064D01*
X176914495Y-119563061D01*
X176694984Y-119487702D01*
X176523282Y-119459050D01*
X176466049Y-119449500D01*
X176233951Y-119449500D01*
X176188164Y-119457140D01*
X176005015Y-119487702D01*
X175785504Y-119563061D01*
X175785495Y-119563064D01*
X175581371Y-119673531D01*
X175581365Y-119673535D01*
X175398222Y-119816081D01*
X175398219Y-119816084D01*
X175241016Y-119986852D01*
X175114075Y-120181151D01*
X175020842Y-120393699D01*
X174963866Y-120618691D01*
X174963864Y-120618702D01*
X174944700Y-120849993D01*
X157755300Y-120849993D01*
X157736135Y-120618702D01*
X157736133Y-120618691D01*
X157679157Y-120393699D01*
X157585924Y-120181151D01*
X157458983Y-119986852D01*
X157458980Y-119986849D01*
X157458979Y-119986847D01*
X157301784Y-119816087D01*
X157301779Y-119816083D01*
X157301777Y-119816081D01*
X157118634Y-119673535D01*
X157118628Y-119673531D01*
X156914504Y-119563064D01*
X156914495Y-119563061D01*
X156694984Y-119487702D01*
X156523282Y-119459050D01*
X156466049Y-119449500D01*
X156233951Y-119449500D01*
X156188164Y-119457140D01*
X156005015Y-119487702D01*
X155785504Y-119563061D01*
X155785495Y-119563064D01*
X155581371Y-119673531D01*
X155581365Y-119673535D01*
X155398222Y-119816081D01*
X155398219Y-119816084D01*
X155241016Y-119986852D01*
X155114075Y-120181151D01*
X155020842Y-120393699D01*
X154963866Y-120618691D01*
X154963864Y-120618702D01*
X154944700Y-120849993D01*
X137755300Y-120849993D01*
X137736135Y-120618702D01*
X137736133Y-120618691D01*
X137679157Y-120393699D01*
X137585924Y-120181151D01*
X137458983Y-119986852D01*
X137458980Y-119986849D01*
X137458979Y-119986847D01*
X137301784Y-119816087D01*
X137301779Y-119816083D01*
X137301777Y-119816081D01*
X137118634Y-119673535D01*
X137118628Y-119673531D01*
X136914504Y-119563064D01*
X136914495Y-119563061D01*
X136694984Y-119487702D01*
X136523282Y-119459050D01*
X136466049Y-119449500D01*
X136233951Y-119449500D01*
X136188164Y-119457140D01*
X136005015Y-119487702D01*
X135785504Y-119563061D01*
X135785495Y-119563064D01*
X135581371Y-119673531D01*
X135581365Y-119673535D01*
X135398222Y-119816081D01*
X135398219Y-119816084D01*
X135241016Y-119986852D01*
X135114075Y-120181151D01*
X135020842Y-120393699D01*
X134963866Y-120618691D01*
X134963864Y-120618702D01*
X134944700Y-120849993D01*
X117755300Y-120849993D01*
X117736135Y-120618702D01*
X117736133Y-120618691D01*
X117679157Y-120393699D01*
X117585924Y-120181151D01*
X117458983Y-119986852D01*
X117458980Y-119986849D01*
X117458979Y-119986847D01*
X117301784Y-119816087D01*
X117301779Y-119816083D01*
X117301777Y-119816081D01*
X117118634Y-119673535D01*
X117118628Y-119673531D01*
X116914504Y-119563064D01*
X116914495Y-119563061D01*
X116694984Y-119487702D01*
X116523282Y-119459050D01*
X116466049Y-119449500D01*
X116233951Y-119449500D01*
X116188164Y-119457140D01*
X116005015Y-119487702D01*
X115785504Y-119563061D01*
X115785495Y-119563064D01*
X115581371Y-119673531D01*
X115581365Y-119673535D01*
X115398222Y-119816081D01*
X115398219Y-119816084D01*
X115241016Y-119986852D01*
X115114075Y-120181151D01*
X115020842Y-120393699D01*
X114963866Y-120618691D01*
X114963864Y-120618702D01*
X114944700Y-120849993D01*
X97755300Y-120849993D01*
X97736135Y-120618702D01*
X97736133Y-120618691D01*
X97679157Y-120393699D01*
X97585924Y-120181151D01*
X97458983Y-119986852D01*
X97458980Y-119986849D01*
X97458979Y-119986847D01*
X97301784Y-119816087D01*
X97301779Y-119816083D01*
X97301777Y-119816081D01*
X97118634Y-119673535D01*
X97118628Y-119673531D01*
X96914504Y-119563064D01*
X96914495Y-119563061D01*
X96694984Y-119487702D01*
X96523282Y-119459050D01*
X96466049Y-119449500D01*
X96233951Y-119449500D01*
X96188164Y-119457140D01*
X96005015Y-119487702D01*
X95785504Y-119563061D01*
X95785495Y-119563064D01*
X95581371Y-119673531D01*
X95581365Y-119673535D01*
X95398222Y-119816081D01*
X95398219Y-119816084D01*
X95241016Y-119986852D01*
X95114075Y-120181151D01*
X95020842Y-120393699D01*
X94963866Y-120618691D01*
X94963864Y-120618702D01*
X94944700Y-120849993D01*
X77755300Y-120849993D01*
X77736135Y-120618702D01*
X77736133Y-120618691D01*
X77679157Y-120393699D01*
X77585924Y-120181151D01*
X77458983Y-119986852D01*
X77458980Y-119986849D01*
X77458979Y-119986847D01*
X77301784Y-119816087D01*
X77301779Y-119816083D01*
X77301777Y-119816081D01*
X77118634Y-119673535D01*
X77118628Y-119673531D01*
X76914504Y-119563064D01*
X76914495Y-119563061D01*
X76694984Y-119487702D01*
X76523282Y-119459050D01*
X76466049Y-119449500D01*
X76233951Y-119449500D01*
X76188164Y-119457140D01*
X76005015Y-119487702D01*
X75785504Y-119563061D01*
X75785495Y-119563064D01*
X75581371Y-119673531D01*
X75581365Y-119673535D01*
X75398222Y-119816081D01*
X75398219Y-119816084D01*
X75241016Y-119986852D01*
X75114075Y-120181151D01*
X75020842Y-120393699D01*
X74963866Y-120618691D01*
X74963864Y-120618702D01*
X74944700Y-120849993D01*
X63900000Y-120849993D01*
X63900000Y-118310000D01*
X81095052Y-118310000D01*
X81114812Y-118561072D01*
X81173603Y-118805956D01*
X81269980Y-119038631D01*
X81401568Y-119253362D01*
X81402266Y-119254179D01*
X82022421Y-118634024D01*
X82035359Y-118665258D01*
X82117437Y-118788097D01*
X82221903Y-118892563D01*
X82344742Y-118974641D01*
X82375974Y-118987577D01*
X81755819Y-119607732D01*
X81755819Y-119607733D01*
X81756634Y-119608429D01*
X81971368Y-119740019D01*
X82204043Y-119836396D01*
X82448927Y-119895187D01*
X82700000Y-119914947D01*
X82951072Y-119895187D01*
X83195956Y-119836396D01*
X83428631Y-119740019D01*
X83643361Y-119608432D01*
X83643363Y-119608430D01*
X83644180Y-119607732D01*
X83024025Y-118987578D01*
X83055258Y-118974641D01*
X83178097Y-118892563D01*
X83282563Y-118788097D01*
X83364641Y-118665258D01*
X83377577Y-118634025D01*
X83997732Y-119254180D01*
X83998430Y-119253363D01*
X83998432Y-119253361D01*
X84130019Y-119038631D01*
X84226396Y-118805956D01*
X84285187Y-118561072D01*
X84304947Y-118310000D01*
X101095052Y-118310000D01*
X101114812Y-118561072D01*
X101173603Y-118805956D01*
X101269980Y-119038631D01*
X101401568Y-119253362D01*
X101402266Y-119254179D01*
X102022421Y-118634024D01*
X102035359Y-118665258D01*
X102117437Y-118788097D01*
X102221903Y-118892563D01*
X102344742Y-118974641D01*
X102375974Y-118987577D01*
X101755819Y-119607732D01*
X101755819Y-119607733D01*
X101756634Y-119608429D01*
X101971368Y-119740019D01*
X102204043Y-119836396D01*
X102448927Y-119895187D01*
X102700000Y-119914947D01*
X102951072Y-119895187D01*
X103195956Y-119836396D01*
X103428631Y-119740019D01*
X103643361Y-119608432D01*
X103643363Y-119608430D01*
X103644180Y-119607732D01*
X103024025Y-118987578D01*
X103055258Y-118974641D01*
X103178097Y-118892563D01*
X103282563Y-118788097D01*
X103364641Y-118665258D01*
X103377578Y-118634025D01*
X103997732Y-119254180D01*
X103998430Y-119253363D01*
X103998432Y-119253361D01*
X104130019Y-119038631D01*
X104226396Y-118805956D01*
X104285187Y-118561072D01*
X104304947Y-118310000D01*
X121095052Y-118310000D01*
X121114812Y-118561072D01*
X121173603Y-118805956D01*
X121269980Y-119038631D01*
X121401568Y-119253362D01*
X121402266Y-119254179D01*
X122022421Y-118634024D01*
X122035359Y-118665258D01*
X122117437Y-118788097D01*
X122221903Y-118892563D01*
X122344742Y-118974641D01*
X122375974Y-118987577D01*
X121755819Y-119607732D01*
X121755819Y-119607733D01*
X121756634Y-119608429D01*
X121971368Y-119740019D01*
X122204043Y-119836396D01*
X122448927Y-119895187D01*
X122700000Y-119914947D01*
X122951072Y-119895187D01*
X123195956Y-119836396D01*
X123428631Y-119740019D01*
X123643361Y-119608432D01*
X123643363Y-119608430D01*
X123644180Y-119607732D01*
X123024025Y-118987578D01*
X123055258Y-118974641D01*
X123178097Y-118892563D01*
X123282563Y-118788097D01*
X123364641Y-118665258D01*
X123377578Y-118634025D01*
X123997732Y-119254180D01*
X123998430Y-119253363D01*
X123998432Y-119253361D01*
X124130019Y-119038631D01*
X124226396Y-118805956D01*
X124285187Y-118561072D01*
X124304947Y-118310000D01*
X141095052Y-118310000D01*
X141114812Y-118561072D01*
X141173603Y-118805956D01*
X141269980Y-119038631D01*
X141401568Y-119253362D01*
X141402266Y-119254179D01*
X142022421Y-118634024D01*
X142035359Y-118665258D01*
X142117437Y-118788097D01*
X142221903Y-118892563D01*
X142344742Y-118974641D01*
X142375974Y-118987577D01*
X141755819Y-119607732D01*
X141755819Y-119607733D01*
X141756634Y-119608429D01*
X141971368Y-119740019D01*
X142204043Y-119836396D01*
X142448927Y-119895187D01*
X142700000Y-119914947D01*
X142951072Y-119895187D01*
X143195956Y-119836396D01*
X143428631Y-119740019D01*
X143643361Y-119608432D01*
X143643363Y-119608430D01*
X143644180Y-119607732D01*
X143024025Y-118987578D01*
X143055258Y-118974641D01*
X143178097Y-118892563D01*
X143282563Y-118788097D01*
X143364641Y-118665258D01*
X143377577Y-118634025D01*
X143997732Y-119254180D01*
X143998430Y-119253363D01*
X143998432Y-119253361D01*
X144130019Y-119038631D01*
X144226396Y-118805956D01*
X144285187Y-118561072D01*
X144304947Y-118310000D01*
X161095052Y-118310000D01*
X161114812Y-118561072D01*
X161173603Y-118805956D01*
X161269980Y-119038631D01*
X161401568Y-119253362D01*
X161402266Y-119254179D01*
X162022421Y-118634024D01*
X162035359Y-118665258D01*
X162117437Y-118788097D01*
X162221903Y-118892563D01*
X162344742Y-118974641D01*
X162375974Y-118987577D01*
X161755819Y-119607732D01*
X161755819Y-119607733D01*
X161756634Y-119608429D01*
X161971368Y-119740019D01*
X162204043Y-119836396D01*
X162448927Y-119895187D01*
X162700000Y-119914947D01*
X162951072Y-119895187D01*
X163195956Y-119836396D01*
X163428631Y-119740019D01*
X163643361Y-119608432D01*
X163643363Y-119608430D01*
X163644180Y-119607732D01*
X163024025Y-118987578D01*
X163055258Y-118974641D01*
X163178097Y-118892563D01*
X163282563Y-118788097D01*
X163364641Y-118665258D01*
X163377577Y-118634025D01*
X163997732Y-119254180D01*
X163998430Y-119253363D01*
X163998432Y-119253361D01*
X164130019Y-119038631D01*
X164226396Y-118805956D01*
X164285187Y-118561072D01*
X164304947Y-118310000D01*
X181095052Y-118310000D01*
X181114812Y-118561072D01*
X181173603Y-118805956D01*
X181269980Y-119038631D01*
X181401568Y-119253362D01*
X181402266Y-119254179D01*
X182022421Y-118634024D01*
X182035359Y-118665258D01*
X182117437Y-118788097D01*
X182221903Y-118892563D01*
X182344742Y-118974641D01*
X182375974Y-118987577D01*
X181755819Y-119607732D01*
X181755819Y-119607733D01*
X181756634Y-119608429D01*
X181971368Y-119740019D01*
X182204043Y-119836396D01*
X182448927Y-119895187D01*
X182700000Y-119914947D01*
X182951072Y-119895187D01*
X183195956Y-119836396D01*
X183428631Y-119740019D01*
X183643361Y-119608432D01*
X183643363Y-119608430D01*
X183644180Y-119607732D01*
X183024025Y-118987578D01*
X183055258Y-118974641D01*
X183178097Y-118892563D01*
X183282563Y-118788097D01*
X183364641Y-118665258D01*
X183377578Y-118634025D01*
X183997732Y-119254180D01*
X183998430Y-119253363D01*
X183998432Y-119253361D01*
X184130019Y-119038631D01*
X184226396Y-118805956D01*
X184285187Y-118561072D01*
X184304947Y-118310000D01*
X201095052Y-118310000D01*
X201114812Y-118561072D01*
X201173603Y-118805956D01*
X201269980Y-119038631D01*
X201401568Y-119253362D01*
X201402266Y-119254179D01*
X202022421Y-118634024D01*
X202035359Y-118665258D01*
X202117437Y-118788097D01*
X202221903Y-118892563D01*
X202344742Y-118974641D01*
X202375974Y-118987577D01*
X201755819Y-119607732D01*
X201755819Y-119607733D01*
X201756634Y-119608429D01*
X201971368Y-119740019D01*
X202204043Y-119836396D01*
X202448927Y-119895187D01*
X202700000Y-119914947D01*
X202951072Y-119895187D01*
X203195956Y-119836396D01*
X203428631Y-119740019D01*
X203643361Y-119608432D01*
X203643363Y-119608430D01*
X203644180Y-119607732D01*
X203024025Y-118987578D01*
X203055258Y-118974641D01*
X203178097Y-118892563D01*
X203282563Y-118788097D01*
X203364641Y-118665258D01*
X203377578Y-118634025D01*
X203997732Y-119254180D01*
X203998430Y-119253363D01*
X203998432Y-119253361D01*
X204130019Y-119038631D01*
X204226396Y-118805956D01*
X204285187Y-118561072D01*
X204304947Y-118310000D01*
X241045052Y-118310000D01*
X241064812Y-118561072D01*
X241123603Y-118805956D01*
X241219980Y-119038631D01*
X241351568Y-119253362D01*
X241352266Y-119254179D01*
X241972421Y-118634024D01*
X241985359Y-118665258D01*
X242067437Y-118788097D01*
X242171903Y-118892563D01*
X242294742Y-118974641D01*
X242325974Y-118987577D01*
X241705819Y-119607732D01*
X241705819Y-119607733D01*
X241706634Y-119608429D01*
X241921368Y-119740019D01*
X242154043Y-119836396D01*
X242398927Y-119895187D01*
X242650000Y-119914947D01*
X242901072Y-119895187D01*
X243145956Y-119836396D01*
X243378631Y-119740019D01*
X243593361Y-119608432D01*
X243593363Y-119608430D01*
X243594180Y-119607732D01*
X242974025Y-118987578D01*
X243005258Y-118974641D01*
X243128097Y-118892563D01*
X243232563Y-118788097D01*
X243314641Y-118665258D01*
X243327578Y-118634025D01*
X243947732Y-119254180D01*
X243948430Y-119253363D01*
X243948432Y-119253361D01*
X244080019Y-119038631D01*
X244176396Y-118805956D01*
X244235187Y-118561072D01*
X244254947Y-118310000D01*
X244235187Y-118058927D01*
X244176396Y-117814043D01*
X244080019Y-117581368D01*
X243948429Y-117366634D01*
X243947733Y-117365819D01*
X243947732Y-117365819D01*
X243327577Y-117985973D01*
X243314641Y-117954742D01*
X243232563Y-117831903D01*
X243128097Y-117727437D01*
X243005258Y-117645359D01*
X242974025Y-117632421D01*
X243594179Y-117012266D01*
X243593362Y-117011568D01*
X243378631Y-116879980D01*
X243145956Y-116783603D01*
X242901072Y-116724812D01*
X242650000Y-116705052D01*
X242398927Y-116724812D01*
X242154043Y-116783603D01*
X241921368Y-116879980D01*
X241706637Y-117011567D01*
X241705819Y-117012266D01*
X242325974Y-117632421D01*
X242294742Y-117645359D01*
X242171903Y-117727437D01*
X242067437Y-117831903D01*
X241985359Y-117954742D01*
X241972421Y-117985974D01*
X241352266Y-117365819D01*
X241351567Y-117366637D01*
X241219980Y-117581368D01*
X241123603Y-117814043D01*
X241064812Y-118058927D01*
X241045052Y-118310000D01*
X204304947Y-118310000D01*
X204285187Y-118058927D01*
X204226396Y-117814043D01*
X204130019Y-117581368D01*
X203998429Y-117366634D01*
X203997733Y-117365819D01*
X203997732Y-117365819D01*
X203377577Y-117985973D01*
X203364641Y-117954742D01*
X203282563Y-117831903D01*
X203178097Y-117727437D01*
X203055258Y-117645359D01*
X203024025Y-117632421D01*
X203644179Y-117012266D01*
X203643362Y-117011568D01*
X203428631Y-116879980D01*
X203195956Y-116783603D01*
X202951072Y-116724812D01*
X202700000Y-116705052D01*
X202448927Y-116724812D01*
X202204043Y-116783603D01*
X201971368Y-116879980D01*
X201756637Y-117011567D01*
X201755819Y-117012266D01*
X202375974Y-117632421D01*
X202344742Y-117645359D01*
X202221903Y-117727437D01*
X202117437Y-117831903D01*
X202035359Y-117954742D01*
X202022421Y-117985974D01*
X201402266Y-117365819D01*
X201401567Y-117366637D01*
X201269980Y-117581368D01*
X201173603Y-117814043D01*
X201114812Y-118058927D01*
X201095052Y-118310000D01*
X184304947Y-118310000D01*
X184285187Y-118058927D01*
X184226396Y-117814043D01*
X184130019Y-117581368D01*
X183998429Y-117366634D01*
X183997733Y-117365819D01*
X183997732Y-117365819D01*
X183377577Y-117985973D01*
X183364641Y-117954742D01*
X183282563Y-117831903D01*
X183178097Y-117727437D01*
X183055258Y-117645359D01*
X183024025Y-117632421D01*
X183644179Y-117012266D01*
X183643362Y-117011568D01*
X183428631Y-116879980D01*
X183195956Y-116783603D01*
X182951072Y-116724812D01*
X182700000Y-116705052D01*
X182448927Y-116724812D01*
X182204043Y-116783603D01*
X181971368Y-116879980D01*
X181756637Y-117011567D01*
X181755819Y-117012266D01*
X182375974Y-117632421D01*
X182344742Y-117645359D01*
X182221903Y-117727437D01*
X182117437Y-117831903D01*
X182035359Y-117954742D01*
X182022421Y-117985974D01*
X181402266Y-117365819D01*
X181401567Y-117366637D01*
X181269980Y-117581368D01*
X181173603Y-117814043D01*
X181114812Y-118058927D01*
X181095052Y-118310000D01*
X164304947Y-118310000D01*
X164285187Y-118058927D01*
X164226396Y-117814043D01*
X164130019Y-117581368D01*
X163998429Y-117366634D01*
X163997733Y-117365819D01*
X163997732Y-117365819D01*
X163377577Y-117985973D01*
X163364641Y-117954742D01*
X163282563Y-117831903D01*
X163178097Y-117727437D01*
X163055258Y-117645359D01*
X163024025Y-117632421D01*
X163644179Y-117012266D01*
X163643362Y-117011568D01*
X163428631Y-116879980D01*
X163195956Y-116783603D01*
X162951072Y-116724812D01*
X162700000Y-116705052D01*
X162448927Y-116724812D01*
X162204043Y-116783603D01*
X161971368Y-116879980D01*
X161756637Y-117011567D01*
X161755819Y-117012266D01*
X162375974Y-117632421D01*
X162344742Y-117645359D01*
X162221903Y-117727437D01*
X162117437Y-117831903D01*
X162035359Y-117954742D01*
X162022421Y-117985974D01*
X161402266Y-117365819D01*
X161401567Y-117366637D01*
X161269980Y-117581368D01*
X161173603Y-117814043D01*
X161114812Y-118058927D01*
X161095052Y-118310000D01*
X144304947Y-118310000D01*
X144285187Y-118058927D01*
X144226396Y-117814043D01*
X144130019Y-117581368D01*
X143998429Y-117366634D01*
X143997733Y-117365819D01*
X143997732Y-117365819D01*
X143377577Y-117985973D01*
X143364641Y-117954742D01*
X143282563Y-117831903D01*
X143178097Y-117727437D01*
X143055258Y-117645359D01*
X143024025Y-117632421D01*
X143644179Y-117012266D01*
X143643362Y-117011568D01*
X143428631Y-116879980D01*
X143195956Y-116783603D01*
X142951072Y-116724812D01*
X142700000Y-116705052D01*
X142448927Y-116724812D01*
X142204043Y-116783603D01*
X141971368Y-116879980D01*
X141756637Y-117011567D01*
X141755819Y-117012266D01*
X142375974Y-117632421D01*
X142344742Y-117645359D01*
X142221903Y-117727437D01*
X142117437Y-117831903D01*
X142035359Y-117954742D01*
X142022421Y-117985974D01*
X141402266Y-117365819D01*
X141401567Y-117366637D01*
X141269980Y-117581368D01*
X141173603Y-117814043D01*
X141114812Y-118058927D01*
X141095052Y-118310000D01*
X124304947Y-118310000D01*
X124285187Y-118058927D01*
X124226396Y-117814043D01*
X124130019Y-117581368D01*
X123998429Y-117366634D01*
X123997733Y-117365819D01*
X123997732Y-117365819D01*
X123377577Y-117985973D01*
X123364641Y-117954742D01*
X123282563Y-117831903D01*
X123178097Y-117727437D01*
X123055258Y-117645359D01*
X123024025Y-117632421D01*
X123644179Y-117012266D01*
X123643362Y-117011568D01*
X123428631Y-116879980D01*
X123195956Y-116783603D01*
X122951072Y-116724812D01*
X122700000Y-116705052D01*
X122448927Y-116724812D01*
X122204043Y-116783603D01*
X121971368Y-116879980D01*
X121756637Y-117011567D01*
X121755819Y-117012266D01*
X122375974Y-117632421D01*
X122344742Y-117645359D01*
X122221903Y-117727437D01*
X122117437Y-117831903D01*
X122035359Y-117954742D01*
X122022421Y-117985974D01*
X121402266Y-117365819D01*
X121401567Y-117366637D01*
X121269980Y-117581368D01*
X121173603Y-117814043D01*
X121114812Y-118058927D01*
X121095052Y-118310000D01*
X104304947Y-118310000D01*
X104285187Y-118058927D01*
X104226396Y-117814043D01*
X104130019Y-117581368D01*
X103998429Y-117366634D01*
X103997733Y-117365819D01*
X103997732Y-117365819D01*
X103377577Y-117985973D01*
X103364641Y-117954742D01*
X103282563Y-117831903D01*
X103178097Y-117727437D01*
X103055258Y-117645359D01*
X103024025Y-117632421D01*
X103644179Y-117012266D01*
X103643362Y-117011568D01*
X103428631Y-116879980D01*
X103195956Y-116783603D01*
X102951072Y-116724812D01*
X102700000Y-116705052D01*
X102448927Y-116724812D01*
X102204043Y-116783603D01*
X101971368Y-116879980D01*
X101756637Y-117011567D01*
X101755819Y-117012266D01*
X102375974Y-117632421D01*
X102344742Y-117645359D01*
X102221903Y-117727437D01*
X102117437Y-117831903D01*
X102035359Y-117954742D01*
X102022421Y-117985974D01*
X101402266Y-117365819D01*
X101401567Y-117366637D01*
X101269980Y-117581368D01*
X101173603Y-117814043D01*
X101114812Y-118058927D01*
X101095052Y-118310000D01*
X84304947Y-118310000D01*
X84285187Y-118058927D01*
X84226396Y-117814043D01*
X84130019Y-117581368D01*
X83998429Y-117366634D01*
X83997733Y-117365819D01*
X83997732Y-117365819D01*
X83377577Y-117985973D01*
X83364641Y-117954742D01*
X83282563Y-117831903D01*
X83178097Y-117727437D01*
X83055258Y-117645359D01*
X83024025Y-117632421D01*
X83644179Y-117012266D01*
X83643362Y-117011568D01*
X83428631Y-116879980D01*
X83195956Y-116783603D01*
X82951072Y-116724812D01*
X82700000Y-116705052D01*
X82448927Y-116724812D01*
X82204043Y-116783603D01*
X81971368Y-116879980D01*
X81756637Y-117011567D01*
X81755819Y-117012266D01*
X82375974Y-117632421D01*
X82344742Y-117645359D01*
X82221903Y-117727437D01*
X82117437Y-117831903D01*
X82035359Y-117954742D01*
X82022421Y-117985974D01*
X81402266Y-117365819D01*
X81401567Y-117366637D01*
X81269980Y-117581368D01*
X81173603Y-117814043D01*
X81114812Y-118058927D01*
X81095052Y-118310000D01*
X63900000Y-118310000D01*
X63900000Y-103242486D01*
X87909500Y-103242486D01*
X87909500Y-103537513D01*
X87941571Y-103781113D01*
X87948007Y-103829993D01*
X87948008Y-103829995D01*
X88024361Y-104114951D01*
X88024364Y-104114961D01*
X88137254Y-104387500D01*
X88137258Y-104387510D01*
X88284761Y-104642993D01*
X88464352Y-104877040D01*
X88464358Y-104877047D01*
X88672952Y-105085641D01*
X88672959Y-105085647D01*
X88907006Y-105265238D01*
X89162489Y-105412741D01*
X89162490Y-105412741D01*
X89162493Y-105412743D01*
X89435048Y-105525639D01*
X89720007Y-105601993D01*
X90012494Y-105640500D01*
X90012501Y-105640500D01*
X90307499Y-105640500D01*
X90307506Y-105640500D01*
X90599993Y-105601993D01*
X90884952Y-105525639D01*
X91157507Y-105412743D01*
X91412994Y-105265238D01*
X91647042Y-105085646D01*
X91855646Y-104877042D01*
X92035238Y-104642994D01*
X92182743Y-104387507D01*
X92295639Y-104114952D01*
X92371993Y-103829993D01*
X92410500Y-103537506D01*
X92410500Y-103242494D01*
X92410499Y-103242486D01*
X107909500Y-103242486D01*
X107909500Y-103537513D01*
X107941571Y-103781113D01*
X107948007Y-103829993D01*
X107948008Y-103829995D01*
X108024361Y-104114951D01*
X108024364Y-104114961D01*
X108137254Y-104387500D01*
X108137258Y-104387510D01*
X108284761Y-104642993D01*
X108464352Y-104877040D01*
X108464358Y-104877047D01*
X108672952Y-105085641D01*
X108672959Y-105085647D01*
X108907006Y-105265238D01*
X109162489Y-105412741D01*
X109162490Y-105412741D01*
X109162493Y-105412743D01*
X109435048Y-105525639D01*
X109720007Y-105601993D01*
X110012494Y-105640500D01*
X110012501Y-105640500D01*
X110307499Y-105640500D01*
X110307506Y-105640500D01*
X110599993Y-105601993D01*
X110884952Y-105525639D01*
X111157507Y-105412743D01*
X111412994Y-105265238D01*
X111647042Y-105085646D01*
X111855646Y-104877042D01*
X112035238Y-104642994D01*
X112182743Y-104387507D01*
X112295639Y-104114952D01*
X112371993Y-103829993D01*
X112410500Y-103537506D01*
X112410500Y-103242494D01*
X112410499Y-103242486D01*
X147909500Y-103242486D01*
X147909500Y-103537513D01*
X147941571Y-103781113D01*
X147948007Y-103829993D01*
X147948008Y-103829995D01*
X148024361Y-104114951D01*
X148024364Y-104114961D01*
X148137254Y-104387500D01*
X148137258Y-104387510D01*
X148284761Y-104642993D01*
X148464352Y-104877040D01*
X148464358Y-104877047D01*
X148672952Y-105085641D01*
X148672959Y-105085647D01*
X148907006Y-105265238D01*
X149162489Y-105412741D01*
X149162490Y-105412741D01*
X149162493Y-105412743D01*
X149435048Y-105525639D01*
X149720007Y-105601993D01*
X150012494Y-105640500D01*
X150012501Y-105640500D01*
X150307499Y-105640500D01*
X150307506Y-105640500D01*
X150599993Y-105601993D01*
X150884952Y-105525639D01*
X151157507Y-105412743D01*
X151412994Y-105265238D01*
X151647042Y-105085646D01*
X151855646Y-104877042D01*
X152035238Y-104642994D01*
X152182743Y-104387507D01*
X152295639Y-104114952D01*
X152371993Y-103829993D01*
X152410500Y-103537506D01*
X152410500Y-103242494D01*
X152410499Y-103242486D01*
X167909500Y-103242486D01*
X167909500Y-103537513D01*
X167941571Y-103781113D01*
X167948007Y-103829993D01*
X167948008Y-103829995D01*
X168024361Y-104114951D01*
X168024364Y-104114961D01*
X168137254Y-104387500D01*
X168137258Y-104387510D01*
X168284761Y-104642993D01*
X168464352Y-104877040D01*
X168464358Y-104877047D01*
X168672952Y-105085641D01*
X168672959Y-105085647D01*
X168907006Y-105265238D01*
X169162489Y-105412741D01*
X169162490Y-105412741D01*
X169162493Y-105412743D01*
X169435048Y-105525639D01*
X169720007Y-105601993D01*
X170012494Y-105640500D01*
X170012501Y-105640500D01*
X170307499Y-105640500D01*
X170307506Y-105640500D01*
X170599993Y-105601993D01*
X170884952Y-105525639D01*
X171157507Y-105412743D01*
X171412994Y-105265238D01*
X171647042Y-105085646D01*
X171855646Y-104877042D01*
X172035238Y-104642994D01*
X172182743Y-104387507D01*
X172295639Y-104114952D01*
X172371993Y-103829993D01*
X172410500Y-103537506D01*
X172410500Y-103242494D01*
X172410499Y-103242486D01*
X187909500Y-103242486D01*
X187909500Y-103537513D01*
X187941571Y-103781113D01*
X187948007Y-103829993D01*
X187948008Y-103829995D01*
X188024361Y-104114951D01*
X188024364Y-104114961D01*
X188137254Y-104387500D01*
X188137258Y-104387510D01*
X188284761Y-104642993D01*
X188464352Y-104877040D01*
X188464358Y-104877047D01*
X188672952Y-105085641D01*
X188672959Y-105085647D01*
X188907006Y-105265238D01*
X189162489Y-105412741D01*
X189162490Y-105412741D01*
X189162493Y-105412743D01*
X189435048Y-105525639D01*
X189720007Y-105601993D01*
X190012494Y-105640500D01*
X190012501Y-105640500D01*
X190307499Y-105640500D01*
X190307506Y-105640500D01*
X190599993Y-105601993D01*
X190884952Y-105525639D01*
X191157507Y-105412743D01*
X191412994Y-105265238D01*
X191647042Y-105085646D01*
X191855646Y-104877042D01*
X192035238Y-104642994D01*
X192182743Y-104387507D01*
X192295639Y-104114952D01*
X192371993Y-103829993D01*
X192410500Y-103537506D01*
X192410500Y-103242494D01*
X192371993Y-102950007D01*
X192295639Y-102665048D01*
X192182743Y-102392493D01*
X192035238Y-102137006D01*
X192035184Y-102136935D01*
X191855647Y-101902959D01*
X191855641Y-101902952D01*
X191647047Y-101694358D01*
X191647040Y-101694352D01*
X191412993Y-101514761D01*
X191157510Y-101367258D01*
X191157500Y-101367254D01*
X190884961Y-101254364D01*
X190884954Y-101254362D01*
X190884952Y-101254361D01*
X190599993Y-101178007D01*
X190551113Y-101171571D01*
X190307513Y-101139500D01*
X190307506Y-101139500D01*
X190012494Y-101139500D01*
X190012486Y-101139500D01*
X189734085Y-101176153D01*
X189720007Y-101178007D01*
X189435048Y-101254361D01*
X189435038Y-101254364D01*
X189162499Y-101367254D01*
X189162489Y-101367258D01*
X188907006Y-101514761D01*
X188672959Y-101694352D01*
X188672952Y-101694358D01*
X188464358Y-101902952D01*
X188464352Y-101902959D01*
X188284761Y-102137006D01*
X188137258Y-102392489D01*
X188137254Y-102392499D01*
X188024364Y-102665038D01*
X188024361Y-102665048D01*
X187948008Y-102950004D01*
X187948006Y-102950015D01*
X187909500Y-103242486D01*
X172410499Y-103242486D01*
X172371993Y-102950007D01*
X172295639Y-102665048D01*
X172182743Y-102392493D01*
X172035238Y-102137006D01*
X172035184Y-102136935D01*
X171855647Y-101902959D01*
X171855641Y-101902952D01*
X171647047Y-101694358D01*
X171647040Y-101694352D01*
X171412993Y-101514761D01*
X171157510Y-101367258D01*
X171157500Y-101367254D01*
X170884961Y-101254364D01*
X170884954Y-101254362D01*
X170884952Y-101254361D01*
X170599993Y-101178007D01*
X170551113Y-101171571D01*
X170307513Y-101139500D01*
X170307506Y-101139500D01*
X170012494Y-101139500D01*
X170012486Y-101139500D01*
X169734085Y-101176153D01*
X169720007Y-101178007D01*
X169435048Y-101254361D01*
X169435038Y-101254364D01*
X169162499Y-101367254D01*
X169162489Y-101367258D01*
X168907006Y-101514761D01*
X168672959Y-101694352D01*
X168672952Y-101694358D01*
X168464358Y-101902952D01*
X168464352Y-101902959D01*
X168284761Y-102137006D01*
X168137258Y-102392489D01*
X168137254Y-102392499D01*
X168024364Y-102665038D01*
X168024361Y-102665048D01*
X167948008Y-102950004D01*
X167948006Y-102950015D01*
X167909500Y-103242486D01*
X152410499Y-103242486D01*
X152371993Y-102950007D01*
X152295639Y-102665048D01*
X152182743Y-102392493D01*
X152035238Y-102137006D01*
X152035184Y-102136935D01*
X151855647Y-101902959D01*
X151855641Y-101902952D01*
X151647047Y-101694358D01*
X151647040Y-101694352D01*
X151412993Y-101514761D01*
X151157510Y-101367258D01*
X151157500Y-101367254D01*
X150884961Y-101254364D01*
X150884954Y-101254362D01*
X150884952Y-101254361D01*
X150599993Y-101178007D01*
X150551113Y-101171571D01*
X150307513Y-101139500D01*
X150307506Y-101139500D01*
X150012494Y-101139500D01*
X150012486Y-101139500D01*
X149734085Y-101176153D01*
X149720007Y-101178007D01*
X149435048Y-101254361D01*
X149435038Y-101254364D01*
X149162499Y-101367254D01*
X149162489Y-101367258D01*
X148907006Y-101514761D01*
X148672959Y-101694352D01*
X148672952Y-101694358D01*
X148464358Y-101902952D01*
X148464352Y-101902959D01*
X148284761Y-102137006D01*
X148137258Y-102392489D01*
X148137254Y-102392499D01*
X148024364Y-102665038D01*
X148024361Y-102665048D01*
X147948008Y-102950004D01*
X147948006Y-102950015D01*
X147909500Y-103242486D01*
X112410499Y-103242486D01*
X112371993Y-102950007D01*
X112295639Y-102665048D01*
X112182743Y-102392493D01*
X112035238Y-102137006D01*
X112035184Y-102136935D01*
X111855647Y-101902959D01*
X111855641Y-101902952D01*
X111647047Y-101694358D01*
X111647040Y-101694352D01*
X111412993Y-101514761D01*
X111157510Y-101367258D01*
X111157500Y-101367254D01*
X110884961Y-101254364D01*
X110884954Y-101254362D01*
X110884952Y-101254361D01*
X110599993Y-101178007D01*
X110551113Y-101171571D01*
X110307513Y-101139500D01*
X110307506Y-101139500D01*
X110012494Y-101139500D01*
X110012486Y-101139500D01*
X109734085Y-101176153D01*
X109720007Y-101178007D01*
X109435048Y-101254361D01*
X109435038Y-101254364D01*
X109162499Y-101367254D01*
X109162489Y-101367258D01*
X108907006Y-101514761D01*
X108672959Y-101694352D01*
X108672952Y-101694358D01*
X108464358Y-101902952D01*
X108464352Y-101902959D01*
X108284761Y-102137006D01*
X108137258Y-102392489D01*
X108137254Y-102392499D01*
X108024364Y-102665038D01*
X108024361Y-102665048D01*
X107948008Y-102950004D01*
X107948006Y-102950015D01*
X107909500Y-103242486D01*
X92410499Y-103242486D01*
X92371993Y-102950007D01*
X92295639Y-102665048D01*
X92182743Y-102392493D01*
X92035238Y-102137006D01*
X92035184Y-102136935D01*
X91855647Y-101902959D01*
X91855641Y-101902952D01*
X91647047Y-101694358D01*
X91647040Y-101694352D01*
X91412993Y-101514761D01*
X91157510Y-101367258D01*
X91157500Y-101367254D01*
X90884961Y-101254364D01*
X90884954Y-101254362D01*
X90884952Y-101254361D01*
X90599993Y-101178007D01*
X90551113Y-101171571D01*
X90307513Y-101139500D01*
X90307506Y-101139500D01*
X90012494Y-101139500D01*
X90012486Y-101139500D01*
X89734085Y-101176153D01*
X89720007Y-101178007D01*
X89435048Y-101254361D01*
X89435038Y-101254364D01*
X89162499Y-101367254D01*
X89162489Y-101367258D01*
X88907006Y-101514761D01*
X88672959Y-101694352D01*
X88672952Y-101694358D01*
X88464358Y-101902952D01*
X88464352Y-101902959D01*
X88284761Y-102137006D01*
X88137258Y-102392489D01*
X88137254Y-102392499D01*
X88024364Y-102665038D01*
X88024361Y-102665048D01*
X87948008Y-102950004D01*
X87948006Y-102950015D01*
X87909500Y-103242486D01*
X63900000Y-103242486D01*
X63900000Y-100849993D01*
X84944700Y-100849993D01*
X84944700Y-100850006D01*
X84963864Y-101081297D01*
X84963866Y-101081308D01*
X85020842Y-101306300D01*
X85114075Y-101518848D01*
X85241016Y-101713147D01*
X85241019Y-101713151D01*
X85241021Y-101713153D01*
X85398216Y-101883913D01*
X85398219Y-101883915D01*
X85398222Y-101883918D01*
X85581365Y-102026464D01*
X85581371Y-102026468D01*
X85581374Y-102026470D01*
X85785497Y-102136936D01*
X85899487Y-102176068D01*
X86005015Y-102212297D01*
X86005017Y-102212297D01*
X86005019Y-102212298D01*
X86233951Y-102250500D01*
X86233952Y-102250500D01*
X86466048Y-102250500D01*
X86466049Y-102250500D01*
X86694981Y-102212298D01*
X86914503Y-102136936D01*
X87118626Y-102026470D01*
X87301784Y-101883913D01*
X87458979Y-101713153D01*
X87585924Y-101518849D01*
X87679157Y-101306300D01*
X87736134Y-101081305D01*
X87755300Y-100850000D01*
X87755300Y-100849993D01*
X104944700Y-100849993D01*
X104944700Y-100850006D01*
X104963864Y-101081297D01*
X104963866Y-101081308D01*
X105020842Y-101306300D01*
X105114075Y-101518848D01*
X105241016Y-101713147D01*
X105241019Y-101713151D01*
X105241021Y-101713153D01*
X105398216Y-101883913D01*
X105398219Y-101883915D01*
X105398222Y-101883918D01*
X105581365Y-102026464D01*
X105581371Y-102026468D01*
X105581374Y-102026470D01*
X105785497Y-102136936D01*
X105899487Y-102176068D01*
X106005015Y-102212297D01*
X106005017Y-102212297D01*
X106005019Y-102212298D01*
X106233951Y-102250500D01*
X106233952Y-102250500D01*
X106466048Y-102250500D01*
X106466049Y-102250500D01*
X106694981Y-102212298D01*
X106914503Y-102136936D01*
X107118626Y-102026470D01*
X107301784Y-101883913D01*
X107458979Y-101713153D01*
X107585924Y-101518849D01*
X107679157Y-101306300D01*
X107736134Y-101081305D01*
X107755300Y-100850000D01*
X107755300Y-100849993D01*
X144944700Y-100849993D01*
X144944700Y-100850006D01*
X144963864Y-101081297D01*
X144963866Y-101081308D01*
X145020842Y-101306300D01*
X145114075Y-101518848D01*
X145241016Y-101713147D01*
X145241019Y-101713151D01*
X145241021Y-101713153D01*
X145398216Y-101883913D01*
X145398219Y-101883915D01*
X145398222Y-101883918D01*
X145581365Y-102026464D01*
X145581371Y-102026468D01*
X145581374Y-102026470D01*
X145785497Y-102136936D01*
X145899487Y-102176068D01*
X146005015Y-102212297D01*
X146005017Y-102212297D01*
X146005019Y-102212298D01*
X146233951Y-102250500D01*
X146233952Y-102250500D01*
X146466048Y-102250500D01*
X146466049Y-102250500D01*
X146694981Y-102212298D01*
X146914503Y-102136936D01*
X147118626Y-102026470D01*
X147301784Y-101883913D01*
X147458979Y-101713153D01*
X147585924Y-101518849D01*
X147679157Y-101306300D01*
X147736134Y-101081305D01*
X147755300Y-100850000D01*
X147755300Y-100849993D01*
X164944700Y-100849993D01*
X164944700Y-100850006D01*
X164963864Y-101081297D01*
X164963866Y-101081308D01*
X165020842Y-101306300D01*
X165114075Y-101518848D01*
X165241016Y-101713147D01*
X165241019Y-101713151D01*
X165241021Y-101713153D01*
X165398216Y-101883913D01*
X165398219Y-101883915D01*
X165398222Y-101883918D01*
X165581365Y-102026464D01*
X165581371Y-102026468D01*
X165581374Y-102026470D01*
X165785497Y-102136936D01*
X165899487Y-102176068D01*
X166005015Y-102212297D01*
X166005017Y-102212297D01*
X166005019Y-102212298D01*
X166233951Y-102250500D01*
X166233952Y-102250500D01*
X166466048Y-102250500D01*
X166466049Y-102250500D01*
X166694981Y-102212298D01*
X166914503Y-102136936D01*
X167118626Y-102026470D01*
X167301784Y-101883913D01*
X167458979Y-101713153D01*
X167585924Y-101518849D01*
X167679157Y-101306300D01*
X167736134Y-101081305D01*
X167755300Y-100850000D01*
X167755300Y-100849993D01*
X184944700Y-100849993D01*
X184944700Y-100850006D01*
X184963864Y-101081297D01*
X184963866Y-101081308D01*
X185020842Y-101306300D01*
X185114075Y-101518848D01*
X185241016Y-101713147D01*
X185241019Y-101713151D01*
X185241021Y-101713153D01*
X185398216Y-101883913D01*
X185398219Y-101883915D01*
X185398222Y-101883918D01*
X185581365Y-102026464D01*
X185581371Y-102026468D01*
X185581374Y-102026470D01*
X185785497Y-102136936D01*
X185899487Y-102176068D01*
X186005015Y-102212297D01*
X186005017Y-102212297D01*
X186005019Y-102212298D01*
X186233951Y-102250500D01*
X186233952Y-102250500D01*
X186466048Y-102250500D01*
X186466049Y-102250500D01*
X186694981Y-102212298D01*
X186914503Y-102136936D01*
X187118626Y-102026470D01*
X187301784Y-101883913D01*
X187458979Y-101713153D01*
X187585924Y-101518849D01*
X187679157Y-101306300D01*
X187736134Y-101081305D01*
X187755300Y-100850000D01*
X187755300Y-100849993D01*
X187736135Y-100618702D01*
X187736133Y-100618691D01*
X187679157Y-100393699D01*
X187585924Y-100181151D01*
X187458983Y-99986852D01*
X187458980Y-99986849D01*
X187458979Y-99986847D01*
X187301784Y-99816087D01*
X187301779Y-99816083D01*
X187301777Y-99816081D01*
X187118634Y-99673535D01*
X187118628Y-99673531D01*
X186914504Y-99563064D01*
X186914495Y-99563061D01*
X186694984Y-99487702D01*
X186523282Y-99459050D01*
X186466049Y-99449500D01*
X186233951Y-99449500D01*
X186188164Y-99457140D01*
X186005015Y-99487702D01*
X185785504Y-99563061D01*
X185785495Y-99563064D01*
X185581371Y-99673531D01*
X185581365Y-99673535D01*
X185398222Y-99816081D01*
X185398219Y-99816084D01*
X185241016Y-99986852D01*
X185114075Y-100181151D01*
X185020842Y-100393699D01*
X184963866Y-100618691D01*
X184963864Y-100618702D01*
X184944700Y-100849993D01*
X167755300Y-100849993D01*
X167736135Y-100618702D01*
X167736133Y-100618691D01*
X167679157Y-100393699D01*
X167585924Y-100181151D01*
X167458983Y-99986852D01*
X167458980Y-99986849D01*
X167458979Y-99986847D01*
X167301784Y-99816087D01*
X167301779Y-99816083D01*
X167301777Y-99816081D01*
X167118634Y-99673535D01*
X167118628Y-99673531D01*
X166914504Y-99563064D01*
X166914495Y-99563061D01*
X166694984Y-99487702D01*
X166523282Y-99459050D01*
X166466049Y-99449500D01*
X166233951Y-99449500D01*
X166188164Y-99457140D01*
X166005015Y-99487702D01*
X165785504Y-99563061D01*
X165785495Y-99563064D01*
X165581371Y-99673531D01*
X165581365Y-99673535D01*
X165398222Y-99816081D01*
X165398219Y-99816084D01*
X165241016Y-99986852D01*
X165114075Y-100181151D01*
X165020842Y-100393699D01*
X164963866Y-100618691D01*
X164963864Y-100618702D01*
X164944700Y-100849993D01*
X147755300Y-100849993D01*
X147736135Y-100618702D01*
X147736133Y-100618691D01*
X147679157Y-100393699D01*
X147585924Y-100181151D01*
X147458983Y-99986852D01*
X147458980Y-99986849D01*
X147458979Y-99986847D01*
X147301784Y-99816087D01*
X147301779Y-99816083D01*
X147301777Y-99816081D01*
X147118634Y-99673535D01*
X147118628Y-99673531D01*
X146914504Y-99563064D01*
X146914495Y-99563061D01*
X146694984Y-99487702D01*
X146523282Y-99459050D01*
X146466049Y-99449500D01*
X146233951Y-99449500D01*
X146188164Y-99457140D01*
X146005015Y-99487702D01*
X145785504Y-99563061D01*
X145785495Y-99563064D01*
X145581371Y-99673531D01*
X145581365Y-99673535D01*
X145398222Y-99816081D01*
X145398219Y-99816084D01*
X145241016Y-99986852D01*
X145114075Y-100181151D01*
X145020842Y-100393699D01*
X144963866Y-100618691D01*
X144963864Y-100618702D01*
X144944700Y-100849993D01*
X107755300Y-100849993D01*
X107736135Y-100618702D01*
X107736133Y-100618691D01*
X107679157Y-100393699D01*
X107585924Y-100181151D01*
X107458983Y-99986852D01*
X107458980Y-99986849D01*
X107458979Y-99986847D01*
X107301784Y-99816087D01*
X107301779Y-99816083D01*
X107301777Y-99816081D01*
X107118634Y-99673535D01*
X107118628Y-99673531D01*
X106914504Y-99563064D01*
X106914495Y-99563061D01*
X106694984Y-99487702D01*
X106523282Y-99459050D01*
X106466049Y-99449500D01*
X106233951Y-99449500D01*
X106188164Y-99457140D01*
X106005015Y-99487702D01*
X105785504Y-99563061D01*
X105785495Y-99563064D01*
X105581371Y-99673531D01*
X105581365Y-99673535D01*
X105398222Y-99816081D01*
X105398219Y-99816084D01*
X105241016Y-99986852D01*
X105114075Y-100181151D01*
X105020842Y-100393699D01*
X104963866Y-100618691D01*
X104963864Y-100618702D01*
X104944700Y-100849993D01*
X87755300Y-100849993D01*
X87736135Y-100618702D01*
X87736133Y-100618691D01*
X87679157Y-100393699D01*
X87585924Y-100181151D01*
X87458983Y-99986852D01*
X87458980Y-99986849D01*
X87458979Y-99986847D01*
X87301784Y-99816087D01*
X87301779Y-99816083D01*
X87301777Y-99816081D01*
X87118634Y-99673535D01*
X87118628Y-99673531D01*
X86914504Y-99563064D01*
X86914495Y-99563061D01*
X86694984Y-99487702D01*
X86523282Y-99459050D01*
X86466049Y-99449500D01*
X86233951Y-99449500D01*
X86188164Y-99457140D01*
X86005015Y-99487702D01*
X85785504Y-99563061D01*
X85785495Y-99563064D01*
X85581371Y-99673531D01*
X85581365Y-99673535D01*
X85398222Y-99816081D01*
X85398219Y-99816084D01*
X85241016Y-99986852D01*
X85114075Y-100181151D01*
X85020842Y-100393699D01*
X84963866Y-100618691D01*
X84963864Y-100618702D01*
X84944700Y-100849993D01*
X63900000Y-100849993D01*
X63900000Y-98310000D01*
X91095052Y-98310000D01*
X91114812Y-98561072D01*
X91173603Y-98805956D01*
X91269980Y-99038631D01*
X91401568Y-99253362D01*
X91402266Y-99254179D01*
X92022421Y-98634024D01*
X92035359Y-98665258D01*
X92117437Y-98788097D01*
X92221903Y-98892563D01*
X92344742Y-98974641D01*
X92375974Y-98987577D01*
X91755819Y-99607732D01*
X91755819Y-99607733D01*
X91756634Y-99608429D01*
X91971368Y-99740019D01*
X92204043Y-99836396D01*
X92448927Y-99895187D01*
X92700000Y-99914947D01*
X92951072Y-99895187D01*
X93195956Y-99836396D01*
X93428631Y-99740019D01*
X93643361Y-99608432D01*
X93643363Y-99608430D01*
X93644180Y-99607732D01*
X93024025Y-98987578D01*
X93055258Y-98974641D01*
X93178097Y-98892563D01*
X93282563Y-98788097D01*
X93364641Y-98665258D01*
X93377578Y-98634025D01*
X93997732Y-99254180D01*
X93998430Y-99253363D01*
X93998432Y-99253361D01*
X94130019Y-99038631D01*
X94226396Y-98805956D01*
X94285187Y-98561072D01*
X94304947Y-98310000D01*
X111095052Y-98310000D01*
X111114812Y-98561072D01*
X111173603Y-98805956D01*
X111269980Y-99038631D01*
X111401568Y-99253362D01*
X111402266Y-99254179D01*
X112022421Y-98634023D01*
X112035359Y-98665258D01*
X112117437Y-98788097D01*
X112221903Y-98892563D01*
X112344742Y-98974641D01*
X112375974Y-98987577D01*
X111755819Y-99607732D01*
X111755819Y-99607733D01*
X111756634Y-99608429D01*
X111971368Y-99740019D01*
X112204043Y-99836396D01*
X112448927Y-99895187D01*
X112700000Y-99914947D01*
X112951072Y-99895187D01*
X113195956Y-99836396D01*
X113428631Y-99740019D01*
X113643361Y-99608432D01*
X113643363Y-99608430D01*
X113644180Y-99607732D01*
X113024025Y-98987578D01*
X113055258Y-98974641D01*
X113178097Y-98892563D01*
X113282563Y-98788097D01*
X113364641Y-98665258D01*
X113377578Y-98634025D01*
X113997732Y-99254180D01*
X113998430Y-99253363D01*
X113998432Y-99253361D01*
X114130019Y-99038631D01*
X114226396Y-98805956D01*
X114285187Y-98561072D01*
X114304947Y-98310000D01*
X151095052Y-98310000D01*
X151114812Y-98561072D01*
X151173603Y-98805956D01*
X151269980Y-99038631D01*
X151401568Y-99253362D01*
X151402266Y-99254179D01*
X152022421Y-98634024D01*
X152035359Y-98665258D01*
X152117437Y-98788097D01*
X152221903Y-98892563D01*
X152344742Y-98974641D01*
X152375974Y-98987577D01*
X151755819Y-99607732D01*
X151755819Y-99607733D01*
X151756634Y-99608429D01*
X151971368Y-99740019D01*
X152204043Y-99836396D01*
X152448927Y-99895187D01*
X152700000Y-99914947D01*
X152951072Y-99895187D01*
X153195956Y-99836396D01*
X153428631Y-99740019D01*
X153643361Y-99608432D01*
X153643363Y-99608430D01*
X153644180Y-99607732D01*
X153024025Y-98987578D01*
X153055258Y-98974641D01*
X153178097Y-98892563D01*
X153282563Y-98788097D01*
X153364641Y-98665258D01*
X153377577Y-98634025D01*
X153997732Y-99254180D01*
X153998430Y-99253363D01*
X153998432Y-99253361D01*
X154130019Y-99038631D01*
X154226396Y-98805956D01*
X154285187Y-98561072D01*
X154304947Y-98310000D01*
X171095052Y-98310000D01*
X171114812Y-98561072D01*
X171173603Y-98805956D01*
X171269980Y-99038631D01*
X171401568Y-99253362D01*
X171402266Y-99254179D01*
X172022421Y-98634024D01*
X172035359Y-98665258D01*
X172117437Y-98788097D01*
X172221903Y-98892563D01*
X172344742Y-98974641D01*
X172375974Y-98987577D01*
X171755819Y-99607732D01*
X171755819Y-99607733D01*
X171756634Y-99608429D01*
X171971368Y-99740019D01*
X172204043Y-99836396D01*
X172448927Y-99895187D01*
X172700000Y-99914947D01*
X172951072Y-99895187D01*
X173195956Y-99836396D01*
X173428631Y-99740019D01*
X173643361Y-99608432D01*
X173643363Y-99608430D01*
X173644180Y-99607732D01*
X173024025Y-98987578D01*
X173055258Y-98974641D01*
X173178097Y-98892563D01*
X173282563Y-98788097D01*
X173364641Y-98665258D01*
X173377578Y-98634025D01*
X173997732Y-99254180D01*
X173998430Y-99253363D01*
X173998432Y-99253361D01*
X174130019Y-99038631D01*
X174226396Y-98805956D01*
X174285187Y-98561072D01*
X174304947Y-98310000D01*
X191095052Y-98310000D01*
X191114812Y-98561072D01*
X191173603Y-98805956D01*
X191269980Y-99038631D01*
X191401568Y-99253362D01*
X191402266Y-99254179D01*
X192022421Y-98634024D01*
X192035359Y-98665258D01*
X192117437Y-98788097D01*
X192221903Y-98892563D01*
X192344742Y-98974641D01*
X192375974Y-98987577D01*
X191755819Y-99607732D01*
X191755819Y-99607733D01*
X191756634Y-99608429D01*
X191971368Y-99740019D01*
X192204043Y-99836396D01*
X192448927Y-99895187D01*
X192700000Y-99914947D01*
X192951072Y-99895187D01*
X193195956Y-99836396D01*
X193428631Y-99740019D01*
X193643361Y-99608432D01*
X193643363Y-99608430D01*
X193644180Y-99607732D01*
X193024025Y-98987578D01*
X193055258Y-98974641D01*
X193178097Y-98892563D01*
X193282563Y-98788097D01*
X193364641Y-98665258D01*
X193377578Y-98634025D01*
X193997732Y-99254180D01*
X193998430Y-99253363D01*
X193998432Y-99253361D01*
X194130019Y-99038631D01*
X194226396Y-98805956D01*
X194285187Y-98561072D01*
X194304947Y-98310000D01*
X194285187Y-98058927D01*
X194226396Y-97814043D01*
X194130019Y-97581368D01*
X193998429Y-97366634D01*
X193997733Y-97365819D01*
X193997732Y-97365819D01*
X193377577Y-97985973D01*
X193364641Y-97954742D01*
X193282563Y-97831903D01*
X193178097Y-97727437D01*
X193055258Y-97645359D01*
X193024025Y-97632421D01*
X193644179Y-97012266D01*
X193643362Y-97011568D01*
X193428631Y-96879980D01*
X193195956Y-96783603D01*
X192951072Y-96724812D01*
X192700000Y-96705052D01*
X192448927Y-96724812D01*
X192204043Y-96783603D01*
X191971368Y-96879980D01*
X191756637Y-97011567D01*
X191755819Y-97012266D01*
X192375974Y-97632421D01*
X192344742Y-97645359D01*
X192221903Y-97727437D01*
X192117437Y-97831903D01*
X192035359Y-97954742D01*
X192022421Y-97985974D01*
X191402266Y-97365819D01*
X191401567Y-97366637D01*
X191269980Y-97581368D01*
X191173603Y-97814043D01*
X191114812Y-98058927D01*
X191095052Y-98310000D01*
X174304947Y-98310000D01*
X174285187Y-98058927D01*
X174226396Y-97814043D01*
X174130019Y-97581368D01*
X173998429Y-97366634D01*
X173997733Y-97365819D01*
X173997732Y-97365819D01*
X173377577Y-97985973D01*
X173364641Y-97954742D01*
X173282563Y-97831903D01*
X173178097Y-97727437D01*
X173055258Y-97645359D01*
X173024025Y-97632421D01*
X173644179Y-97012266D01*
X173643362Y-97011568D01*
X173428631Y-96879980D01*
X173195956Y-96783603D01*
X172951072Y-96724812D01*
X172700000Y-96705052D01*
X172448927Y-96724812D01*
X172204043Y-96783603D01*
X171971368Y-96879980D01*
X171756637Y-97011567D01*
X171755819Y-97012266D01*
X172375974Y-97632421D01*
X172344742Y-97645359D01*
X172221903Y-97727437D01*
X172117437Y-97831903D01*
X172035359Y-97954742D01*
X172022421Y-97985974D01*
X171402266Y-97365819D01*
X171401567Y-97366637D01*
X171269980Y-97581368D01*
X171173603Y-97814043D01*
X171114812Y-98058927D01*
X171095052Y-98310000D01*
X154304947Y-98310000D01*
X154285187Y-98058927D01*
X154226396Y-97814043D01*
X154130019Y-97581368D01*
X153998429Y-97366634D01*
X153997733Y-97365819D01*
X153997732Y-97365819D01*
X153377577Y-97985973D01*
X153364641Y-97954742D01*
X153282563Y-97831903D01*
X153178097Y-97727437D01*
X153055258Y-97645359D01*
X153024025Y-97632421D01*
X153644179Y-97012266D01*
X153643362Y-97011568D01*
X153428631Y-96879980D01*
X153195956Y-96783603D01*
X152951072Y-96724812D01*
X152700000Y-96705052D01*
X152448927Y-96724812D01*
X152204043Y-96783603D01*
X151971368Y-96879980D01*
X151756637Y-97011567D01*
X151755819Y-97012266D01*
X152375974Y-97632421D01*
X152344742Y-97645359D01*
X152221903Y-97727437D01*
X152117437Y-97831903D01*
X152035359Y-97954742D01*
X152022421Y-97985974D01*
X151402266Y-97365819D01*
X151401567Y-97366637D01*
X151269980Y-97581368D01*
X151173603Y-97814043D01*
X151114812Y-98058927D01*
X151095052Y-98310000D01*
X114304947Y-98310000D01*
X114285187Y-98058927D01*
X114226396Y-97814043D01*
X114130019Y-97581368D01*
X113998429Y-97366634D01*
X113997733Y-97365819D01*
X113997732Y-97365819D01*
X113377577Y-97985973D01*
X113364641Y-97954742D01*
X113282563Y-97831903D01*
X113178097Y-97727437D01*
X113055258Y-97645359D01*
X113024025Y-97632421D01*
X113644179Y-97012266D01*
X113643362Y-97011568D01*
X113428631Y-96879980D01*
X113195956Y-96783603D01*
X112951072Y-96724812D01*
X112700000Y-96705052D01*
X112448927Y-96724812D01*
X112204043Y-96783603D01*
X111971368Y-96879980D01*
X111756637Y-97011567D01*
X111755819Y-97012266D01*
X112375974Y-97632421D01*
X112344742Y-97645359D01*
X112221903Y-97727437D01*
X112117437Y-97831903D01*
X112035359Y-97954742D01*
X112022421Y-97985974D01*
X111402266Y-97365819D01*
X111401567Y-97366637D01*
X111269980Y-97581368D01*
X111173603Y-97814043D01*
X111114812Y-98058927D01*
X111095052Y-98310000D01*
X94304947Y-98310000D01*
X94285187Y-98058927D01*
X94226396Y-97814043D01*
X94130019Y-97581368D01*
X93998429Y-97366634D01*
X93997733Y-97365819D01*
X93997732Y-97365819D01*
X93377577Y-97985973D01*
X93364641Y-97954742D01*
X93282563Y-97831903D01*
X93178097Y-97727437D01*
X93055258Y-97645359D01*
X93024025Y-97632421D01*
X93644179Y-97012266D01*
X93643362Y-97011568D01*
X93428631Y-96879980D01*
X93195956Y-96783603D01*
X92951072Y-96724812D01*
X92700000Y-96705052D01*
X92448927Y-96724812D01*
X92204043Y-96783603D01*
X91971368Y-96879980D01*
X91756637Y-97011567D01*
X91755819Y-97012266D01*
X92375974Y-97632421D01*
X92344742Y-97645359D01*
X92221903Y-97727437D01*
X92117437Y-97831903D01*
X92035359Y-97954742D01*
X92022421Y-97985974D01*
X91402266Y-97365819D01*
X91401567Y-97366637D01*
X91269980Y-97581368D01*
X91173603Y-97814043D01*
X91114812Y-98058927D01*
X91095052Y-98310000D01*
X63900000Y-98310000D01*
X63900000Y-91799999D01*
X99844722Y-91799999D01*
X99844722Y-91800000D01*
X99863762Y-91956818D01*
X99875398Y-91987498D01*
X99919780Y-92104523D01*
X100009517Y-92234530D01*
X100127760Y-92339283D01*
X100127762Y-92339284D01*
X100267673Y-92412716D01*
X100297728Y-92434831D01*
X101061952Y-93199055D01*
X101095437Y-93260378D01*
X101097367Y-93271789D01*
X101113763Y-93406818D01*
X101169780Y-93554523D01*
X101259517Y-93684530D01*
X101377760Y-93789283D01*
X101377762Y-93789284D01*
X101517634Y-93862696D01*
X101671014Y-93900500D01*
X101671015Y-93900500D01*
X101828985Y-93900500D01*
X101982365Y-93862696D01*
X102122240Y-93789283D01*
X102240483Y-93684530D01*
X102330220Y-93554523D01*
X102386237Y-93406818D01*
X102405278Y-93250000D01*
X102386237Y-93093182D01*
X102330220Y-92945477D01*
X102240483Y-92815470D01*
X102122240Y-92710717D01*
X102122238Y-92710716D01*
X102122237Y-92710715D01*
X101982365Y-92637303D01*
X101828986Y-92599500D01*
X101828985Y-92599500D01*
X101787965Y-92599500D01*
X101720926Y-92579815D01*
X101700284Y-92563181D01*
X101174347Y-92037244D01*
X101140862Y-91975921D01*
X101138932Y-91934620D01*
X101155278Y-91800000D01*
X101136237Y-91643182D01*
X101080220Y-91495477D01*
X100990483Y-91365470D01*
X100872240Y-91260717D01*
X100872238Y-91260716D01*
X100872237Y-91260715D01*
X100732365Y-91187303D01*
X100578986Y-91149500D01*
X100578985Y-91149500D01*
X100421015Y-91149500D01*
X100421014Y-91149500D01*
X100267634Y-91187303D01*
X100127762Y-91260715D01*
X100009516Y-91365471D01*
X99919781Y-91495475D01*
X99919780Y-91495476D01*
X99863762Y-91643181D01*
X99844722Y-91799999D01*
X63900000Y-91799999D01*
X63900000Y-87499999D01*
X101344722Y-87499999D01*
X101344722Y-87500000D01*
X101363762Y-87656818D01*
X101419780Y-87804523D01*
X101509517Y-87934530D01*
X101627760Y-88039283D01*
X101627762Y-88039284D01*
X101767634Y-88112696D01*
X101921014Y-88150500D01*
X101921015Y-88150500D01*
X101962035Y-88150500D01*
X102029074Y-88170185D01*
X102049716Y-88186819D01*
X102398282Y-88535386D01*
X102431767Y-88596709D01*
X102426783Y-88666401D01*
X102384911Y-88722334D01*
X102319447Y-88746751D01*
X102280926Y-88743464D01*
X102203985Y-88724500D01*
X102046015Y-88724500D01*
X102046014Y-88724500D01*
X101892634Y-88762303D01*
X101752762Y-88835715D01*
X101634516Y-88940471D01*
X101544781Y-89070475D01*
X101544780Y-89070476D01*
X101488762Y-89218181D01*
X101469722Y-89374999D01*
X101469722Y-89375000D01*
X101488762Y-89531818D01*
X101544780Y-89679523D01*
X101634517Y-89809530D01*
X101752760Y-89914283D01*
X101752762Y-89914284D01*
X101892634Y-89987696D01*
X102046014Y-90025500D01*
X102046015Y-90025500D01*
X102087035Y-90025500D01*
X102154074Y-90045185D01*
X102174716Y-90061819D01*
X102937118Y-90824221D01*
X102970603Y-90885544D01*
X102972533Y-90926847D01*
X102969722Y-90949999D01*
X102969722Y-90950000D01*
X102988762Y-91106818D01*
X103019287Y-91187304D01*
X103044780Y-91254523D01*
X103134517Y-91384530D01*
X103252760Y-91489283D01*
X103252762Y-91489284D01*
X103392634Y-91562696D01*
X103546014Y-91600500D01*
X103546015Y-91600500D01*
X103703985Y-91600500D01*
X103857365Y-91562696D01*
X103997240Y-91489283D01*
X104115483Y-91384530D01*
X104205220Y-91254523D01*
X104261237Y-91106818D01*
X104280278Y-90950000D01*
X104270190Y-90866913D01*
X104261237Y-90793181D01*
X104239992Y-90737164D01*
X104205220Y-90645477D01*
X104115483Y-90515470D01*
X103997240Y-90410717D01*
X103997238Y-90410716D01*
X103997237Y-90410715D01*
X103857366Y-90337304D01*
X103714479Y-90302086D01*
X103656473Y-90269370D01*
X103476716Y-90089613D01*
X103443231Y-90028290D01*
X103448215Y-89958598D01*
X103490087Y-89902665D01*
X103555551Y-89878248D01*
X103594068Y-89881534D01*
X103671015Y-89900500D01*
X103828985Y-89900500D01*
X103982365Y-89862696D01*
X104122240Y-89789283D01*
X104240483Y-89684530D01*
X104330220Y-89554523D01*
X104386237Y-89406818D01*
X104405278Y-89250000D01*
X104386237Y-89093182D01*
X104377625Y-89070475D01*
X104364992Y-89037164D01*
X104330220Y-88945477D01*
X104240483Y-88815470D01*
X104122240Y-88710717D01*
X104122238Y-88710716D01*
X104122237Y-88710715D01*
X103982365Y-88637303D01*
X103828986Y-88599500D01*
X103828985Y-88599500D01*
X103787966Y-88599500D01*
X103720927Y-88579815D01*
X103700285Y-88563181D01*
X102688046Y-87550942D01*
X102654561Y-87489619D01*
X102652634Y-87478225D01*
X102636237Y-87343182D01*
X102580220Y-87195477D01*
X102490483Y-87065470D01*
X102372240Y-86960717D01*
X102372238Y-86960716D01*
X102372237Y-86960715D01*
X102232365Y-86887303D01*
X102078986Y-86849500D01*
X102078985Y-86849500D01*
X101921015Y-86849500D01*
X101921014Y-86849500D01*
X101767634Y-86887303D01*
X101627762Y-86960715D01*
X101509516Y-87065471D01*
X101419781Y-87195475D01*
X101419780Y-87195476D01*
X101363762Y-87343181D01*
X101344722Y-87499999D01*
X63900000Y-87499999D01*
X63900000Y-84508916D01*
X63919685Y-84441877D01*
X63972489Y-84396122D01*
X64041647Y-84386178D01*
X64094080Y-84406618D01*
X64102229Y-84412200D01*
X64102235Y-84412206D01*
X64205009Y-84457585D01*
X64230135Y-84460500D01*
X66019864Y-84460499D01*
X66019879Y-84460497D01*
X66019882Y-84460497D01*
X66044987Y-84457586D01*
X66044988Y-84457585D01*
X66044991Y-84457585D01*
X66147765Y-84412206D01*
X66227206Y-84332765D01*
X66272585Y-84229991D01*
X66275500Y-84204865D01*
X66275499Y-83466046D01*
X66295183Y-83399009D01*
X66347987Y-83353254D01*
X66417146Y-83343310D01*
X66480702Y-83372335D01*
X66518476Y-83431113D01*
X66522970Y-83454606D01*
X66527454Y-83502993D01*
X66529244Y-83522310D01*
X66582675Y-83710099D01*
X66587596Y-83727392D01*
X66587596Y-83727394D01*
X66682632Y-83918253D01*
X66811127Y-84088406D01*
X66811128Y-84088407D01*
X66968698Y-84232052D01*
X67149981Y-84344298D01*
X67348802Y-84421321D01*
X67558390Y-84460500D01*
X67558392Y-84460500D01*
X67771608Y-84460500D01*
X67771610Y-84460500D01*
X67981198Y-84421321D01*
X68180019Y-84344298D01*
X68361302Y-84232052D01*
X68518872Y-84088407D01*
X68647366Y-83918255D01*
X68701270Y-83810000D01*
X68742403Y-83727394D01*
X68742403Y-83727393D01*
X68742405Y-83727389D01*
X68800756Y-83522310D01*
X68811529Y-83406047D01*
X68837315Y-83341111D01*
X68879622Y-83310804D01*
X68988130Y-83310804D01*
X69024503Y-83331668D01*
X69056693Y-83393681D01*
X69058470Y-83406047D01*
X69069244Y-83522310D01*
X69122675Y-83710099D01*
X69127596Y-83727392D01*
X69127596Y-83727394D01*
X69222632Y-83918253D01*
X69351127Y-84088406D01*
X69351128Y-84088407D01*
X69508698Y-84232052D01*
X69689981Y-84344298D01*
X69888802Y-84421321D01*
X70098390Y-84460500D01*
X70098392Y-84460500D01*
X70311608Y-84460500D01*
X70311610Y-84460500D01*
X70521198Y-84421321D01*
X70720019Y-84344298D01*
X70901302Y-84232052D01*
X71058872Y-84088407D01*
X71187366Y-83918255D01*
X71241270Y-83810000D01*
X71282403Y-83727394D01*
X71282403Y-83727393D01*
X71282405Y-83727389D01*
X71340756Y-83522310D01*
X71351529Y-83406047D01*
X71377315Y-83341111D01*
X71419622Y-83310804D01*
X71528130Y-83310804D01*
X71564503Y-83331668D01*
X71596693Y-83393681D01*
X71598470Y-83406047D01*
X71609244Y-83522310D01*
X71662675Y-83710099D01*
X71667596Y-83727392D01*
X71667596Y-83727394D01*
X71762632Y-83918253D01*
X71891127Y-84088406D01*
X71891128Y-84088407D01*
X72048698Y-84232052D01*
X72229981Y-84344298D01*
X72428802Y-84421321D01*
X72638390Y-84460500D01*
X72638392Y-84460500D01*
X72851608Y-84460500D01*
X72851610Y-84460500D01*
X73061198Y-84421321D01*
X73260019Y-84344298D01*
X73441302Y-84232052D01*
X73598872Y-84088407D01*
X73727366Y-83918255D01*
X73781270Y-83810000D01*
X73822403Y-83727394D01*
X73822403Y-83727393D01*
X73822405Y-83727389D01*
X73880756Y-83522310D01*
X73891529Y-83406047D01*
X73917315Y-83341111D01*
X73959622Y-83310804D01*
X74068130Y-83310804D01*
X74104503Y-83331668D01*
X74136693Y-83393681D01*
X74138470Y-83406047D01*
X74149244Y-83522310D01*
X74202675Y-83710099D01*
X74207596Y-83727392D01*
X74207596Y-83727394D01*
X74302632Y-83918253D01*
X74431127Y-84088406D01*
X74431128Y-84088407D01*
X74588698Y-84232052D01*
X74769981Y-84344298D01*
X74968802Y-84421321D01*
X75178390Y-84460500D01*
X75178392Y-84460500D01*
X75391608Y-84460500D01*
X75391610Y-84460500D01*
X75601198Y-84421321D01*
X75800019Y-84344298D01*
X75981302Y-84232052D01*
X76138872Y-84088407D01*
X76267366Y-83918255D01*
X76321270Y-83810000D01*
X76362403Y-83727394D01*
X76362403Y-83727393D01*
X76362405Y-83727389D01*
X76420756Y-83522310D01*
X76431529Y-83406047D01*
X76457315Y-83341111D01*
X76499622Y-83310804D01*
X76608130Y-83310804D01*
X76644503Y-83331668D01*
X76676693Y-83393681D01*
X76678470Y-83406047D01*
X76689244Y-83522310D01*
X76742675Y-83710099D01*
X76747596Y-83727392D01*
X76747596Y-83727394D01*
X76842632Y-83918253D01*
X76971127Y-84088406D01*
X76971128Y-84088407D01*
X77128698Y-84232052D01*
X77309981Y-84344298D01*
X77508802Y-84421321D01*
X77718390Y-84460500D01*
X77718392Y-84460500D01*
X77931608Y-84460500D01*
X77931610Y-84460500D01*
X78141198Y-84421321D01*
X78340019Y-84344298D01*
X78521302Y-84232052D01*
X78678872Y-84088407D01*
X78807366Y-83918255D01*
X78861270Y-83810000D01*
X78902403Y-83727394D01*
X78902403Y-83727393D01*
X78902405Y-83727389D01*
X78960756Y-83522310D01*
X78971529Y-83406047D01*
X78997315Y-83341111D01*
X79039622Y-83310804D01*
X79148130Y-83310804D01*
X79184503Y-83331668D01*
X79216693Y-83393681D01*
X79218470Y-83406047D01*
X79229244Y-83522310D01*
X79282675Y-83710099D01*
X79287596Y-83727392D01*
X79287596Y-83727394D01*
X79382632Y-83918253D01*
X79511127Y-84088406D01*
X79511128Y-84088407D01*
X79668698Y-84232052D01*
X79849981Y-84344298D01*
X80048802Y-84421321D01*
X80258390Y-84460500D01*
X80258392Y-84460500D01*
X80471608Y-84460500D01*
X80471610Y-84460500D01*
X80681198Y-84421321D01*
X80880019Y-84344298D01*
X81061302Y-84232052D01*
X81218872Y-84088407D01*
X81347366Y-83918255D01*
X81401270Y-83810000D01*
X81442403Y-83727394D01*
X81442403Y-83727393D01*
X81442405Y-83727389D01*
X81500756Y-83522310D01*
X81511529Y-83406047D01*
X81537315Y-83341111D01*
X81579622Y-83310804D01*
X81688130Y-83310804D01*
X81724503Y-83331668D01*
X81756693Y-83393681D01*
X81758470Y-83406047D01*
X81769244Y-83522310D01*
X81822675Y-83710099D01*
X81827596Y-83727392D01*
X81827596Y-83727394D01*
X81922632Y-83918253D01*
X82051127Y-84088406D01*
X82051128Y-84088407D01*
X82208698Y-84232052D01*
X82389981Y-84344298D01*
X82588802Y-84421321D01*
X82798390Y-84460500D01*
X82798392Y-84460500D01*
X83011608Y-84460500D01*
X83011610Y-84460500D01*
X83221198Y-84421321D01*
X83420019Y-84344298D01*
X83601302Y-84232052D01*
X83758872Y-84088407D01*
X83887366Y-83918255D01*
X83941270Y-83810000D01*
X83982403Y-83727394D01*
X83982403Y-83727393D01*
X83982405Y-83727389D01*
X84040756Y-83522310D01*
X84051529Y-83406047D01*
X84077315Y-83341111D01*
X84119622Y-83310804D01*
X84228130Y-83310804D01*
X84264503Y-83331668D01*
X84296693Y-83393681D01*
X84298470Y-83406047D01*
X84309244Y-83522310D01*
X84362675Y-83710099D01*
X84367596Y-83727392D01*
X84367596Y-83727394D01*
X84462632Y-83918253D01*
X84591127Y-84088406D01*
X84591128Y-84088407D01*
X84748698Y-84232052D01*
X84929981Y-84344298D01*
X85128802Y-84421321D01*
X85338390Y-84460500D01*
X85338392Y-84460500D01*
X85551608Y-84460500D01*
X85551610Y-84460500D01*
X85761198Y-84421321D01*
X85960019Y-84344298D01*
X86141302Y-84232052D01*
X86298872Y-84088407D01*
X86427366Y-83918255D01*
X86481270Y-83810000D01*
X86522403Y-83727394D01*
X86522403Y-83727393D01*
X86522405Y-83727389D01*
X86580756Y-83522310D01*
X86591529Y-83406047D01*
X86617315Y-83341111D01*
X86659622Y-83310804D01*
X86768130Y-83310804D01*
X86804503Y-83331668D01*
X86836693Y-83393681D01*
X86838470Y-83406047D01*
X86849244Y-83522310D01*
X86902675Y-83710099D01*
X86907596Y-83727392D01*
X86907596Y-83727394D01*
X87002632Y-83918253D01*
X87131127Y-84088406D01*
X87131128Y-84088407D01*
X87288698Y-84232052D01*
X87469981Y-84344298D01*
X87668802Y-84421321D01*
X87878390Y-84460500D01*
X87878392Y-84460500D01*
X88091608Y-84460500D01*
X88091610Y-84460500D01*
X88301198Y-84421321D01*
X88500019Y-84344298D01*
X88681302Y-84232052D01*
X88838872Y-84088407D01*
X88967366Y-83918255D01*
X89021270Y-83810000D01*
X89062403Y-83727394D01*
X89062403Y-83727393D01*
X89062405Y-83727389D01*
X89120756Y-83522310D01*
X89131529Y-83406047D01*
X89157315Y-83341111D01*
X89199622Y-83310804D01*
X89308130Y-83310804D01*
X89344503Y-83331668D01*
X89376693Y-83393681D01*
X89378470Y-83406047D01*
X89389244Y-83522310D01*
X89442675Y-83710099D01*
X89447596Y-83727392D01*
X89447596Y-83727394D01*
X89542632Y-83918253D01*
X89671127Y-84088406D01*
X89671128Y-84088407D01*
X89828698Y-84232052D01*
X90009981Y-84344298D01*
X90208802Y-84421321D01*
X90418390Y-84460500D01*
X90418392Y-84460500D01*
X90631608Y-84460500D01*
X90631610Y-84460500D01*
X90841198Y-84421321D01*
X91040019Y-84344298D01*
X91221302Y-84232052D01*
X91378872Y-84088407D01*
X91507366Y-83918255D01*
X91561270Y-83810000D01*
X91602403Y-83727394D01*
X91602403Y-83727393D01*
X91602405Y-83727389D01*
X91660756Y-83522310D01*
X91671529Y-83406047D01*
X91697315Y-83341111D01*
X91739622Y-83310804D01*
X91848130Y-83310804D01*
X91884503Y-83331668D01*
X91916693Y-83393681D01*
X91918470Y-83406047D01*
X91929244Y-83522310D01*
X91982675Y-83710099D01*
X91987596Y-83727392D01*
X91987596Y-83727394D01*
X92082632Y-83918253D01*
X92211127Y-84088406D01*
X92211128Y-84088407D01*
X92368698Y-84232052D01*
X92549981Y-84344298D01*
X92748802Y-84421321D01*
X92958390Y-84460500D01*
X92958392Y-84460500D01*
X93171608Y-84460500D01*
X93171610Y-84460500D01*
X93381198Y-84421321D01*
X93580019Y-84344298D01*
X93761302Y-84232052D01*
X93918872Y-84088407D01*
X94047366Y-83918255D01*
X94101270Y-83810000D01*
X94142403Y-83727394D01*
X94142403Y-83727393D01*
X94142405Y-83727389D01*
X94200756Y-83522310D01*
X94211529Y-83406047D01*
X94237315Y-83341111D01*
X94279622Y-83310804D01*
X94388130Y-83310804D01*
X94424503Y-83331668D01*
X94456693Y-83393681D01*
X94458470Y-83406047D01*
X94469244Y-83522310D01*
X94522675Y-83710099D01*
X94527596Y-83727392D01*
X94527596Y-83727394D01*
X94622632Y-83918253D01*
X94751127Y-84088406D01*
X94751128Y-84088407D01*
X94908698Y-84232052D01*
X95089981Y-84344298D01*
X95288802Y-84421321D01*
X95498390Y-84460500D01*
X95498392Y-84460500D01*
X95711608Y-84460500D01*
X95711610Y-84460500D01*
X95921198Y-84421321D01*
X96120019Y-84344298D01*
X96301302Y-84232052D01*
X96458872Y-84088407D01*
X96587366Y-83918255D01*
X96641270Y-83810000D01*
X96682403Y-83727394D01*
X96682403Y-83727393D01*
X96682405Y-83727389D01*
X96740756Y-83522310D01*
X96751529Y-83406047D01*
X96777315Y-83341111D01*
X96819622Y-83310804D01*
X96928130Y-83310804D01*
X96964503Y-83331668D01*
X96996693Y-83393681D01*
X96998470Y-83406047D01*
X97009244Y-83522310D01*
X97062675Y-83710099D01*
X97067596Y-83727392D01*
X97067596Y-83727394D01*
X97162632Y-83918253D01*
X97291127Y-84088406D01*
X97291128Y-84088407D01*
X97448698Y-84232052D01*
X97629981Y-84344298D01*
X97828802Y-84421321D01*
X98038390Y-84460500D01*
X98038392Y-84460500D01*
X98251608Y-84460500D01*
X98251610Y-84460500D01*
X98461198Y-84421321D01*
X98660019Y-84344298D01*
X98841302Y-84232052D01*
X98998872Y-84088407D01*
X99127366Y-83918255D01*
X99181270Y-83810000D01*
X99222403Y-83727394D01*
X99222403Y-83727393D01*
X99222405Y-83727389D01*
X99280756Y-83522310D01*
X99291529Y-83406047D01*
X99317315Y-83341111D01*
X99359622Y-83310804D01*
X99468130Y-83310804D01*
X99504503Y-83331668D01*
X99536693Y-83393681D01*
X99538470Y-83406047D01*
X99549244Y-83522310D01*
X99602675Y-83710099D01*
X99607596Y-83727392D01*
X99607596Y-83727394D01*
X99702632Y-83918253D01*
X99831127Y-84088406D01*
X99831128Y-84088407D01*
X99988698Y-84232052D01*
X100169981Y-84344298D01*
X100368802Y-84421321D01*
X100578390Y-84460500D01*
X100578392Y-84460500D01*
X100791608Y-84460500D01*
X100791610Y-84460500D01*
X101001198Y-84421321D01*
X101200019Y-84344298D01*
X101381302Y-84232052D01*
X101538872Y-84088407D01*
X101667366Y-83918255D01*
X101721270Y-83810000D01*
X101762403Y-83727394D01*
X101762403Y-83727393D01*
X101762405Y-83727389D01*
X101820756Y-83522310D01*
X101831529Y-83406047D01*
X101857315Y-83341111D01*
X101899622Y-83310804D01*
X102008130Y-83310804D01*
X102044503Y-83331668D01*
X102076693Y-83393681D01*
X102078470Y-83406047D01*
X102089244Y-83522310D01*
X102142675Y-83710099D01*
X102147596Y-83727392D01*
X102147596Y-83727394D01*
X102242632Y-83918253D01*
X102371127Y-84088406D01*
X102371128Y-84088407D01*
X102528698Y-84232052D01*
X102709981Y-84344298D01*
X102908802Y-84421321D01*
X103118390Y-84460500D01*
X103118392Y-84460500D01*
X103331608Y-84460500D01*
X103331610Y-84460500D01*
X103541198Y-84421321D01*
X103740019Y-84344298D01*
X103921302Y-84232052D01*
X104078872Y-84088407D01*
X104207366Y-83918255D01*
X104261270Y-83810000D01*
X104302403Y-83727394D01*
X104302403Y-83727393D01*
X104302405Y-83727389D01*
X104360756Y-83522310D01*
X104371529Y-83406047D01*
X104397315Y-83341111D01*
X104439622Y-83310804D01*
X104548130Y-83310804D01*
X104584503Y-83331668D01*
X104616693Y-83393681D01*
X104618470Y-83406047D01*
X104629244Y-83522310D01*
X104682675Y-83710099D01*
X104687596Y-83727392D01*
X104687596Y-83727394D01*
X104782632Y-83918253D01*
X104911127Y-84088406D01*
X104911128Y-84088407D01*
X105068698Y-84232052D01*
X105249981Y-84344298D01*
X105448802Y-84421321D01*
X105658390Y-84460500D01*
X105658392Y-84460500D01*
X105871608Y-84460500D01*
X105871610Y-84460500D01*
X106081198Y-84421321D01*
X106280019Y-84344298D01*
X106461302Y-84232052D01*
X106618872Y-84088407D01*
X106747366Y-83918255D01*
X106801270Y-83810000D01*
X106842403Y-83727394D01*
X106842403Y-83727393D01*
X106842405Y-83727389D01*
X106900756Y-83522310D01*
X106911529Y-83406047D01*
X106937315Y-83341111D01*
X106979622Y-83310804D01*
X107088130Y-83310804D01*
X107124503Y-83331668D01*
X107156693Y-83393681D01*
X107158470Y-83406047D01*
X107169244Y-83522310D01*
X107222675Y-83710099D01*
X107227596Y-83727392D01*
X107227596Y-83727394D01*
X107322632Y-83918253D01*
X107451127Y-84088406D01*
X107451128Y-84088407D01*
X107608698Y-84232052D01*
X107789981Y-84344298D01*
X107988802Y-84421321D01*
X108198390Y-84460500D01*
X108198392Y-84460500D01*
X108411608Y-84460500D01*
X108411610Y-84460500D01*
X108621198Y-84421321D01*
X108820019Y-84344298D01*
X109001302Y-84232052D01*
X109158872Y-84088407D01*
X109287366Y-83918255D01*
X109354325Y-83783781D01*
X109401825Y-83732548D01*
X109469488Y-83715126D01*
X109535828Y-83737051D01*
X109577705Y-83786651D01*
X109671399Y-83987578D01*
X109806894Y-84181082D01*
X109973917Y-84348105D01*
X110167421Y-84483600D01*
X110381507Y-84583429D01*
X110381516Y-84583433D01*
X110595000Y-84640634D01*
X110595000Y-83743012D01*
X110652007Y-83775925D01*
X110779174Y-83810000D01*
X110910826Y-83810000D01*
X111037993Y-83775925D01*
X111095000Y-83743012D01*
X111095000Y-84640633D01*
X111308483Y-84583433D01*
X111308492Y-84583429D01*
X111522578Y-84483600D01*
X111716082Y-84348105D01*
X111883105Y-84181082D01*
X112018600Y-83987578D01*
X112112294Y-83786651D01*
X112158466Y-83734212D01*
X112225660Y-83715060D01*
X112292541Y-83735276D01*
X112335676Y-83783785D01*
X112402632Y-83918253D01*
X112531127Y-84088406D01*
X112531128Y-84088407D01*
X112688698Y-84232052D01*
X112869981Y-84344298D01*
X113068802Y-84421321D01*
X113278390Y-84460500D01*
X113278392Y-84460500D01*
X113491608Y-84460500D01*
X113491610Y-84460500D01*
X113701198Y-84421321D01*
X113900019Y-84344298D01*
X114081302Y-84232052D01*
X114238872Y-84088407D01*
X114367366Y-83918255D01*
X114421270Y-83810000D01*
X114462403Y-83727394D01*
X114462403Y-83727393D01*
X114462405Y-83727389D01*
X114520756Y-83522310D01*
X114540429Y-83310000D01*
X114520756Y-83097690D01*
X114462405Y-82892611D01*
X114462403Y-82892606D01*
X114462403Y-82892605D01*
X114367367Y-82701746D01*
X114238872Y-82531593D01*
X114081302Y-82387948D01*
X113900019Y-82275702D01*
X113900017Y-82275701D01*
X113739156Y-82213384D01*
X113701198Y-82198679D01*
X113491610Y-82159500D01*
X113278390Y-82159500D01*
X113068802Y-82198679D01*
X113068799Y-82198679D01*
X113068799Y-82198680D01*
X112869982Y-82275701D01*
X112869980Y-82275702D01*
X112688699Y-82387947D01*
X112531127Y-82531593D01*
X112402634Y-82701744D01*
X112335676Y-82836215D01*
X112288173Y-82887452D01*
X112220510Y-82904873D01*
X112154170Y-82882947D01*
X112112294Y-82833348D01*
X112018600Y-82632422D01*
X112018599Y-82632420D01*
X111883113Y-82438926D01*
X111883108Y-82438920D01*
X111716082Y-82271894D01*
X111522578Y-82136399D01*
X111308492Y-82036570D01*
X111308486Y-82036567D01*
X111095000Y-81979364D01*
X111095000Y-82876988D01*
X111037993Y-82844075D01*
X110910826Y-82810000D01*
X110779174Y-82810000D01*
X110652007Y-82844075D01*
X110595000Y-82876988D01*
X110595000Y-81979364D01*
X110594999Y-81979364D01*
X110381513Y-82036567D01*
X110381507Y-82036570D01*
X110167422Y-82136399D01*
X110167420Y-82136400D01*
X109973926Y-82271886D01*
X109973920Y-82271891D01*
X109806891Y-82438920D01*
X109806886Y-82438926D01*
X109671400Y-82632420D01*
X109671399Y-82632422D01*
X109577705Y-82833348D01*
X109531532Y-82885787D01*
X109464339Y-82904939D01*
X109397457Y-82884723D01*
X109354323Y-82836215D01*
X109287366Y-82701745D01*
X109158872Y-82531593D01*
X109001302Y-82387948D01*
X108820019Y-82275702D01*
X108820017Y-82275701D01*
X108659156Y-82213384D01*
X108621198Y-82198679D01*
X108411610Y-82159500D01*
X108198390Y-82159500D01*
X107988802Y-82198679D01*
X107988799Y-82198679D01*
X107988799Y-82198680D01*
X107789982Y-82275701D01*
X107789980Y-82275702D01*
X107608699Y-82387947D01*
X107451127Y-82531593D01*
X107322632Y-82701746D01*
X107227596Y-82892605D01*
X107227596Y-82892607D01*
X107169244Y-83097689D01*
X107158471Y-83213951D01*
X107132685Y-83278888D01*
X107088130Y-83310804D01*
X106979622Y-83310804D01*
X106981869Y-83309194D01*
X106945497Y-83288331D01*
X106913307Y-83226318D01*
X106911529Y-83213951D01*
X106908175Y-83177759D01*
X106900756Y-83097690D01*
X106842405Y-82892611D01*
X106842403Y-82892606D01*
X106842403Y-82892605D01*
X106747367Y-82701746D01*
X106618872Y-82531593D01*
X106461302Y-82387948D01*
X106280019Y-82275702D01*
X106280017Y-82275701D01*
X106119156Y-82213384D01*
X106081198Y-82198679D01*
X105871610Y-82159500D01*
X105658390Y-82159500D01*
X105448802Y-82198679D01*
X105448799Y-82198679D01*
X105448799Y-82198680D01*
X105249982Y-82275701D01*
X105249980Y-82275702D01*
X105068699Y-82387947D01*
X104911127Y-82531593D01*
X104782632Y-82701746D01*
X104687596Y-82892605D01*
X104687596Y-82892607D01*
X104629244Y-83097689D01*
X104618471Y-83213951D01*
X104592685Y-83278888D01*
X104548130Y-83310804D01*
X104439622Y-83310804D01*
X104441869Y-83309194D01*
X104405497Y-83288331D01*
X104373307Y-83226318D01*
X104371529Y-83213951D01*
X104368175Y-83177759D01*
X104360756Y-83097690D01*
X104302405Y-82892611D01*
X104302403Y-82892606D01*
X104302403Y-82892605D01*
X104207367Y-82701746D01*
X104078872Y-82531593D01*
X103921302Y-82387948D01*
X103740019Y-82275702D01*
X103740017Y-82275701D01*
X103579156Y-82213384D01*
X103541198Y-82198679D01*
X103331610Y-82159500D01*
X103118390Y-82159500D01*
X102908802Y-82198679D01*
X102908799Y-82198679D01*
X102908799Y-82198680D01*
X102709982Y-82275701D01*
X102709980Y-82275702D01*
X102528699Y-82387947D01*
X102371127Y-82531593D01*
X102242632Y-82701746D01*
X102147596Y-82892605D01*
X102147596Y-82892607D01*
X102089244Y-83097689D01*
X102078471Y-83213951D01*
X102052685Y-83278888D01*
X102008130Y-83310804D01*
X101899622Y-83310804D01*
X101901869Y-83309194D01*
X101865497Y-83288331D01*
X101833307Y-83226318D01*
X101831529Y-83213951D01*
X101828175Y-83177759D01*
X101820756Y-83097690D01*
X101762405Y-82892611D01*
X101762403Y-82892606D01*
X101762403Y-82892605D01*
X101667367Y-82701746D01*
X101538872Y-82531593D01*
X101381302Y-82387948D01*
X101200019Y-82275702D01*
X101200017Y-82275701D01*
X101039156Y-82213384D01*
X101001198Y-82198679D01*
X100791610Y-82159500D01*
X100578390Y-82159500D01*
X100368802Y-82198679D01*
X100368799Y-82198679D01*
X100368799Y-82198680D01*
X100169982Y-82275701D01*
X100169980Y-82275702D01*
X99988699Y-82387947D01*
X99831127Y-82531593D01*
X99702632Y-82701746D01*
X99607596Y-82892605D01*
X99607596Y-82892607D01*
X99549244Y-83097689D01*
X99538471Y-83213951D01*
X99512685Y-83278888D01*
X99468130Y-83310804D01*
X99359622Y-83310804D01*
X99361869Y-83309194D01*
X99325497Y-83288331D01*
X99293307Y-83226318D01*
X99291529Y-83213951D01*
X99288175Y-83177759D01*
X99280756Y-83097690D01*
X99222405Y-82892611D01*
X99222403Y-82892606D01*
X99222403Y-82892605D01*
X99127367Y-82701746D01*
X98998872Y-82531593D01*
X98841302Y-82387948D01*
X98660019Y-82275702D01*
X98660017Y-82275701D01*
X98499156Y-82213384D01*
X98461198Y-82198679D01*
X98251610Y-82159500D01*
X98038390Y-82159500D01*
X97828802Y-82198679D01*
X97828799Y-82198679D01*
X97828799Y-82198680D01*
X97629982Y-82275701D01*
X97629980Y-82275702D01*
X97448699Y-82387947D01*
X97291127Y-82531593D01*
X97162632Y-82701746D01*
X97067596Y-82892605D01*
X97067596Y-82892607D01*
X97009244Y-83097689D01*
X96998471Y-83213951D01*
X96972685Y-83278888D01*
X96928130Y-83310804D01*
X96819622Y-83310804D01*
X96821869Y-83309194D01*
X96785497Y-83288331D01*
X96753307Y-83226318D01*
X96751529Y-83213951D01*
X96748175Y-83177759D01*
X96740756Y-83097690D01*
X96682405Y-82892611D01*
X96682403Y-82892606D01*
X96682403Y-82892605D01*
X96587367Y-82701746D01*
X96458872Y-82531593D01*
X96301302Y-82387948D01*
X96120019Y-82275702D01*
X96120017Y-82275701D01*
X95959156Y-82213384D01*
X95921198Y-82198679D01*
X95711610Y-82159500D01*
X95498390Y-82159500D01*
X95288802Y-82198679D01*
X95288799Y-82198679D01*
X95288799Y-82198680D01*
X95089982Y-82275701D01*
X95089980Y-82275702D01*
X94908699Y-82387947D01*
X94751127Y-82531593D01*
X94622632Y-82701746D01*
X94527596Y-82892605D01*
X94527596Y-82892607D01*
X94469244Y-83097689D01*
X94458471Y-83213951D01*
X94432685Y-83278888D01*
X94388130Y-83310804D01*
X94279622Y-83310804D01*
X94281869Y-83309194D01*
X94245497Y-83288331D01*
X94213307Y-83226318D01*
X94211529Y-83213951D01*
X94208175Y-83177759D01*
X94200756Y-83097690D01*
X94142405Y-82892611D01*
X94142403Y-82892606D01*
X94142403Y-82892605D01*
X94047367Y-82701746D01*
X93918872Y-82531593D01*
X93761302Y-82387948D01*
X93580019Y-82275702D01*
X93580017Y-82275701D01*
X93419156Y-82213384D01*
X93381198Y-82198679D01*
X93171610Y-82159500D01*
X92958390Y-82159500D01*
X92748802Y-82198679D01*
X92748799Y-82198679D01*
X92748799Y-82198680D01*
X92549982Y-82275701D01*
X92549980Y-82275702D01*
X92368699Y-82387947D01*
X92211127Y-82531593D01*
X92082632Y-82701746D01*
X91987596Y-82892605D01*
X91987596Y-82892607D01*
X91929244Y-83097689D01*
X91918471Y-83213951D01*
X91892685Y-83278888D01*
X91848130Y-83310804D01*
X91739622Y-83310804D01*
X91741869Y-83309194D01*
X91705497Y-83288331D01*
X91673307Y-83226318D01*
X91671529Y-83213951D01*
X91668175Y-83177759D01*
X91660756Y-83097690D01*
X91602405Y-82892611D01*
X91602403Y-82892606D01*
X91602403Y-82892605D01*
X91507367Y-82701746D01*
X91378872Y-82531593D01*
X91221302Y-82387948D01*
X91040019Y-82275702D01*
X91040017Y-82275701D01*
X90879156Y-82213384D01*
X90841198Y-82198679D01*
X90631610Y-82159500D01*
X90418390Y-82159500D01*
X90208802Y-82198679D01*
X90208799Y-82198679D01*
X90208799Y-82198680D01*
X90009982Y-82275701D01*
X90009980Y-82275702D01*
X89828699Y-82387947D01*
X89671127Y-82531593D01*
X89542632Y-82701746D01*
X89447596Y-82892605D01*
X89447596Y-82892607D01*
X89389244Y-83097689D01*
X89378471Y-83213951D01*
X89352685Y-83278888D01*
X89308130Y-83310804D01*
X89199622Y-83310804D01*
X89201869Y-83309194D01*
X89165497Y-83288331D01*
X89133307Y-83226318D01*
X89131529Y-83213951D01*
X89128175Y-83177759D01*
X89120756Y-83097690D01*
X89062405Y-82892611D01*
X89062403Y-82892606D01*
X89062403Y-82892605D01*
X88967367Y-82701746D01*
X88838872Y-82531593D01*
X88681302Y-82387948D01*
X88500019Y-82275702D01*
X88500017Y-82275701D01*
X88339156Y-82213384D01*
X88301198Y-82198679D01*
X88091610Y-82159500D01*
X87878390Y-82159500D01*
X87668802Y-82198679D01*
X87668799Y-82198679D01*
X87668799Y-82198680D01*
X87469982Y-82275701D01*
X87469980Y-82275702D01*
X87288699Y-82387947D01*
X87131127Y-82531593D01*
X87002632Y-82701746D01*
X86907596Y-82892605D01*
X86907596Y-82892607D01*
X86849244Y-83097689D01*
X86838471Y-83213951D01*
X86812685Y-83278888D01*
X86768130Y-83310804D01*
X86659622Y-83310804D01*
X86661869Y-83309194D01*
X86625497Y-83288331D01*
X86593307Y-83226318D01*
X86591529Y-83213951D01*
X86588175Y-83177759D01*
X86580756Y-83097690D01*
X86522405Y-82892611D01*
X86522403Y-82892606D01*
X86522403Y-82892605D01*
X86427367Y-82701746D01*
X86298872Y-82531593D01*
X86141302Y-82387948D01*
X85960019Y-82275702D01*
X85960017Y-82275701D01*
X85799156Y-82213384D01*
X85761198Y-82198679D01*
X85551610Y-82159500D01*
X85338390Y-82159500D01*
X85128802Y-82198679D01*
X85128799Y-82198679D01*
X85128799Y-82198680D01*
X84929982Y-82275701D01*
X84929980Y-82275702D01*
X84748699Y-82387947D01*
X84591127Y-82531593D01*
X84462632Y-82701746D01*
X84367596Y-82892605D01*
X84367596Y-82892607D01*
X84309244Y-83097689D01*
X84298471Y-83213951D01*
X84272685Y-83278888D01*
X84228130Y-83310804D01*
X84119622Y-83310804D01*
X84121869Y-83309194D01*
X84085497Y-83288331D01*
X84053307Y-83226318D01*
X84051529Y-83213951D01*
X84048175Y-83177759D01*
X84040756Y-83097690D01*
X83982405Y-82892611D01*
X83982403Y-82892606D01*
X83982403Y-82892605D01*
X83887367Y-82701746D01*
X83758872Y-82531593D01*
X83601302Y-82387948D01*
X83420019Y-82275702D01*
X83420017Y-82275701D01*
X83259156Y-82213384D01*
X83221198Y-82198679D01*
X83011610Y-82159500D01*
X82798390Y-82159500D01*
X82588802Y-82198679D01*
X82588799Y-82198679D01*
X82588799Y-82198680D01*
X82389982Y-82275701D01*
X82389980Y-82275702D01*
X82208699Y-82387947D01*
X82051127Y-82531593D01*
X81922632Y-82701746D01*
X81827596Y-82892605D01*
X81827596Y-82892607D01*
X81769244Y-83097689D01*
X81758471Y-83213951D01*
X81732685Y-83278888D01*
X81688130Y-83310804D01*
X81579622Y-83310804D01*
X81581869Y-83309194D01*
X81545497Y-83288331D01*
X81513307Y-83226318D01*
X81511529Y-83213951D01*
X81508175Y-83177759D01*
X81500756Y-83097690D01*
X81442405Y-82892611D01*
X81442403Y-82892606D01*
X81442403Y-82892605D01*
X81347367Y-82701746D01*
X81218872Y-82531593D01*
X81061302Y-82387948D01*
X80880019Y-82275702D01*
X80880017Y-82275701D01*
X80719156Y-82213384D01*
X80681198Y-82198679D01*
X80471610Y-82159500D01*
X80258390Y-82159500D01*
X80048802Y-82198679D01*
X80048799Y-82198679D01*
X80048799Y-82198680D01*
X79849982Y-82275701D01*
X79849980Y-82275702D01*
X79668699Y-82387947D01*
X79511127Y-82531593D01*
X79382632Y-82701746D01*
X79287596Y-82892605D01*
X79287596Y-82892607D01*
X79229244Y-83097689D01*
X79218471Y-83213951D01*
X79192685Y-83278888D01*
X79148130Y-83310804D01*
X79039622Y-83310804D01*
X79041869Y-83309194D01*
X79005497Y-83288331D01*
X78973307Y-83226318D01*
X78971529Y-83213951D01*
X78968175Y-83177759D01*
X78960756Y-83097690D01*
X78902405Y-82892611D01*
X78902403Y-82892606D01*
X78902403Y-82892605D01*
X78807367Y-82701746D01*
X78678872Y-82531593D01*
X78521302Y-82387948D01*
X78340019Y-82275702D01*
X78340017Y-82275701D01*
X78179156Y-82213384D01*
X78141198Y-82198679D01*
X77931610Y-82159500D01*
X77718390Y-82159500D01*
X77508802Y-82198679D01*
X77508799Y-82198679D01*
X77508799Y-82198680D01*
X77309982Y-82275701D01*
X77309980Y-82275702D01*
X77128699Y-82387947D01*
X76971127Y-82531593D01*
X76842632Y-82701746D01*
X76747596Y-82892605D01*
X76747596Y-82892607D01*
X76689244Y-83097689D01*
X76678471Y-83213951D01*
X76652685Y-83278888D01*
X76608130Y-83310804D01*
X76499622Y-83310804D01*
X76501869Y-83309194D01*
X76465497Y-83288331D01*
X76433307Y-83226318D01*
X76431529Y-83213951D01*
X76428175Y-83177759D01*
X76420756Y-83097690D01*
X76362405Y-82892611D01*
X76362403Y-82892606D01*
X76362403Y-82892605D01*
X76267367Y-82701746D01*
X76138872Y-82531593D01*
X75981302Y-82387948D01*
X75800019Y-82275702D01*
X75800017Y-82275701D01*
X75639156Y-82213384D01*
X75601198Y-82198679D01*
X75391610Y-82159500D01*
X75178390Y-82159500D01*
X74968802Y-82198679D01*
X74968799Y-82198679D01*
X74968799Y-82198680D01*
X74769982Y-82275701D01*
X74769980Y-82275702D01*
X74588699Y-82387947D01*
X74431127Y-82531593D01*
X74302632Y-82701746D01*
X74207596Y-82892605D01*
X74207596Y-82892607D01*
X74149244Y-83097689D01*
X74138471Y-83213951D01*
X74112685Y-83278888D01*
X74068130Y-83310804D01*
X73959622Y-83310804D01*
X73961869Y-83309194D01*
X73925497Y-83288331D01*
X73893307Y-83226318D01*
X73891529Y-83213951D01*
X73888175Y-83177759D01*
X73880756Y-83097690D01*
X73822405Y-82892611D01*
X73822403Y-82892606D01*
X73822403Y-82892605D01*
X73727367Y-82701746D01*
X73598872Y-82531593D01*
X73441302Y-82387948D01*
X73260019Y-82275702D01*
X73260017Y-82275701D01*
X73099156Y-82213384D01*
X73061198Y-82198679D01*
X72851610Y-82159500D01*
X72638390Y-82159500D01*
X72428802Y-82198679D01*
X72428799Y-82198679D01*
X72428799Y-82198680D01*
X72229982Y-82275701D01*
X72229980Y-82275702D01*
X72048699Y-82387947D01*
X71891127Y-82531593D01*
X71762632Y-82701746D01*
X71667596Y-82892605D01*
X71667596Y-82892607D01*
X71609244Y-83097689D01*
X71598471Y-83213951D01*
X71572685Y-83278888D01*
X71528130Y-83310804D01*
X71419622Y-83310804D01*
X71421869Y-83309194D01*
X71385497Y-83288331D01*
X71353307Y-83226318D01*
X71351529Y-83213951D01*
X71348175Y-83177759D01*
X71340756Y-83097690D01*
X71282405Y-82892611D01*
X71282403Y-82892606D01*
X71282403Y-82892605D01*
X71187367Y-82701746D01*
X71058872Y-82531593D01*
X70901302Y-82387948D01*
X70720019Y-82275702D01*
X70720017Y-82275701D01*
X70559156Y-82213384D01*
X70521198Y-82198679D01*
X70311610Y-82159500D01*
X70098390Y-82159500D01*
X69888802Y-82198679D01*
X69888799Y-82198679D01*
X69888799Y-82198680D01*
X69689982Y-82275701D01*
X69689980Y-82275702D01*
X69508699Y-82387947D01*
X69351127Y-82531593D01*
X69222632Y-82701746D01*
X69127596Y-82892605D01*
X69127596Y-82892607D01*
X69069244Y-83097689D01*
X69058471Y-83213951D01*
X69032685Y-83278888D01*
X68988130Y-83310804D01*
X68879622Y-83310804D01*
X68881869Y-83309194D01*
X68845497Y-83288331D01*
X68813307Y-83226318D01*
X68811529Y-83213951D01*
X68808175Y-83177759D01*
X68800756Y-83097690D01*
X68742405Y-82892611D01*
X68742403Y-82892606D01*
X68742403Y-82892605D01*
X68647367Y-82701746D01*
X68518872Y-82531593D01*
X68361302Y-82387948D01*
X68180019Y-82275702D01*
X68180017Y-82275701D01*
X68019156Y-82213384D01*
X67981198Y-82198679D01*
X67771610Y-82159500D01*
X67558390Y-82159500D01*
X67348802Y-82198679D01*
X67348799Y-82198679D01*
X67348799Y-82198680D01*
X67149982Y-82275701D01*
X67149980Y-82275702D01*
X66968699Y-82387947D01*
X66811127Y-82531593D01*
X66682632Y-82701746D01*
X66587596Y-82892605D01*
X66587596Y-82892607D01*
X66529244Y-83097689D01*
X66522970Y-83165394D01*
X66497183Y-83230331D01*
X66440383Y-83271018D01*
X66370602Y-83274538D01*
X66309995Y-83239772D01*
X66277806Y-83177759D01*
X66275499Y-83153952D01*
X66275499Y-82415143D01*
X66275499Y-82415136D01*
X66275497Y-82415117D01*
X66272586Y-82390012D01*
X66272585Y-82390010D01*
X66272585Y-82390009D01*
X66227206Y-82287235D01*
X66147765Y-82207794D01*
X66127124Y-82198680D01*
X66044992Y-82162415D01*
X66019865Y-82159500D01*
X64230143Y-82159500D01*
X64230117Y-82159502D01*
X64205012Y-82162413D01*
X64205008Y-82162415D01*
X64102239Y-82207791D01*
X64094076Y-82213384D01*
X64027644Y-82235029D01*
X63960055Y-82217323D01*
X63912768Y-82165887D01*
X63900000Y-82111083D01*
X63900000Y-77365131D01*
X163349500Y-77365131D01*
X163349500Y-79254856D01*
X163349502Y-79254882D01*
X163352413Y-79279987D01*
X163352415Y-79279991D01*
X163397793Y-79382764D01*
X163397794Y-79382765D01*
X163477235Y-79462206D01*
X163580009Y-79507585D01*
X163605135Y-79510500D01*
X165494864Y-79510499D01*
X165494879Y-79510497D01*
X165494882Y-79510497D01*
X165519987Y-79507586D01*
X165519988Y-79507585D01*
X165519991Y-79507585D01*
X165622765Y-79462206D01*
X165702206Y-79382765D01*
X165747585Y-79279991D01*
X165750500Y-79254865D01*
X165750499Y-78920748D01*
X165770183Y-78853712D01*
X165822987Y-78807957D01*
X165892146Y-78798013D01*
X165955701Y-78827038D01*
X165985499Y-78865479D01*
X166024938Y-78944683D01*
X166024943Y-78944691D01*
X166159020Y-79122238D01*
X166323437Y-79272123D01*
X166323439Y-79272125D01*
X166512595Y-79389245D01*
X166512596Y-79389245D01*
X166512599Y-79389247D01*
X166720060Y-79469618D01*
X166938757Y-79510500D01*
X166938759Y-79510500D01*
X167161241Y-79510500D01*
X167161243Y-79510500D01*
X167379940Y-79469618D01*
X167587401Y-79389247D01*
X167776562Y-79272124D01*
X167940981Y-79122236D01*
X168075058Y-78944689D01*
X168076340Y-78942113D01*
X168077280Y-78941099D01*
X168078077Y-78939813D01*
X168078328Y-78939968D01*
X168123840Y-78890873D01*
X168191502Y-78873448D01*
X168257843Y-78895369D01*
X168300899Y-78947567D01*
X168314513Y-78978603D01*
X168398812Y-79107633D01*
X169067037Y-78439408D01*
X169084075Y-78502993D01*
X169149901Y-78617007D01*
X169242993Y-78710099D01*
X169357007Y-78775925D01*
X169420590Y-78792962D01*
X168751201Y-79462351D01*
X168781649Y-79486050D01*
X168985697Y-79596476D01*
X168985706Y-79596479D01*
X169205139Y-79671811D01*
X169433993Y-79710000D01*
X169666007Y-79710000D01*
X169894860Y-79671811D01*
X170114293Y-79596479D01*
X170114301Y-79596476D01*
X170318355Y-79486047D01*
X170348797Y-79462351D01*
X170348798Y-79462350D01*
X169679410Y-78792962D01*
X169742993Y-78775925D01*
X169857007Y-78710099D01*
X169950099Y-78617007D01*
X170015925Y-78502993D01*
X170032962Y-78439409D01*
X170701186Y-79107633D01*
X170785482Y-78978611D01*
X170878682Y-78766135D01*
X170935638Y-78541218D01*
X170954798Y-78310005D01*
X170954798Y-78309994D01*
X170935638Y-78078781D01*
X170878682Y-77853864D01*
X170785484Y-77641393D01*
X170701186Y-77512365D01*
X170032962Y-78180589D01*
X170015925Y-78117007D01*
X169950099Y-78002993D01*
X169857007Y-77909901D01*
X169742993Y-77844075D01*
X169679409Y-77827037D01*
X170141314Y-77365131D01*
X183349500Y-77365131D01*
X183349500Y-79254856D01*
X183349502Y-79254882D01*
X183352413Y-79279987D01*
X183352415Y-79279991D01*
X183397793Y-79382764D01*
X183397794Y-79382765D01*
X183477235Y-79462206D01*
X183580009Y-79507585D01*
X183605135Y-79510500D01*
X185494864Y-79510499D01*
X185494879Y-79510497D01*
X185494882Y-79510497D01*
X185519987Y-79507586D01*
X185519988Y-79507585D01*
X185519991Y-79507585D01*
X185622765Y-79462206D01*
X185702206Y-79382765D01*
X185747585Y-79279991D01*
X185750500Y-79254865D01*
X185750499Y-78920748D01*
X185770183Y-78853712D01*
X185822987Y-78807957D01*
X185892146Y-78798013D01*
X185955701Y-78827038D01*
X185985499Y-78865479D01*
X186024938Y-78944683D01*
X186024943Y-78944691D01*
X186159020Y-79122238D01*
X186323437Y-79272123D01*
X186323439Y-79272125D01*
X186512595Y-79389245D01*
X186512596Y-79389245D01*
X186512599Y-79389247D01*
X186720060Y-79469618D01*
X186938757Y-79510500D01*
X186938759Y-79510500D01*
X187161241Y-79510500D01*
X187161243Y-79510500D01*
X187379940Y-79469618D01*
X187587401Y-79389247D01*
X187776562Y-79272124D01*
X187940981Y-79122236D01*
X188075058Y-78944689D01*
X188076340Y-78942113D01*
X188077280Y-78941099D01*
X188078077Y-78939813D01*
X188078328Y-78939968D01*
X188123840Y-78890873D01*
X188191502Y-78873448D01*
X188257843Y-78895369D01*
X188300899Y-78947567D01*
X188314513Y-78978603D01*
X188398812Y-79107633D01*
X189067037Y-78439408D01*
X189084075Y-78502993D01*
X189149901Y-78617007D01*
X189242993Y-78710099D01*
X189357007Y-78775925D01*
X189420590Y-78792962D01*
X188751201Y-79462351D01*
X188781649Y-79486050D01*
X188985697Y-79596476D01*
X188985706Y-79596479D01*
X189205139Y-79671811D01*
X189433993Y-79710000D01*
X189666007Y-79710000D01*
X189894860Y-79671811D01*
X190114293Y-79596479D01*
X190114301Y-79596476D01*
X190318355Y-79486047D01*
X190348797Y-79462351D01*
X190348798Y-79462350D01*
X189679410Y-78792962D01*
X189742993Y-78775925D01*
X189857007Y-78710099D01*
X189950099Y-78617007D01*
X190015925Y-78502993D01*
X190032962Y-78439409D01*
X190701186Y-79107633D01*
X190785482Y-78978611D01*
X190878682Y-78766135D01*
X190935638Y-78541218D01*
X190954798Y-78310005D01*
X190954798Y-78309994D01*
X190935638Y-78078781D01*
X190878682Y-77853864D01*
X190785484Y-77641393D01*
X190701186Y-77512365D01*
X190032962Y-78180589D01*
X190015925Y-78117007D01*
X189950099Y-78002993D01*
X189857007Y-77909901D01*
X189742993Y-77844075D01*
X189679409Y-77827037D01*
X190348797Y-77157647D01*
X190348797Y-77157645D01*
X190318360Y-77133955D01*
X190318354Y-77133951D01*
X190114302Y-77023523D01*
X190114293Y-77023520D01*
X189894860Y-76948188D01*
X189666007Y-76910000D01*
X189433993Y-76910000D01*
X189205139Y-76948188D01*
X188985706Y-77023520D01*
X188985697Y-77023523D01*
X188781650Y-77133949D01*
X188751200Y-77157647D01*
X189420591Y-77827037D01*
X189357007Y-77844075D01*
X189242993Y-77909901D01*
X189149901Y-78002993D01*
X189084075Y-78117007D01*
X189067037Y-78180591D01*
X188398811Y-77512365D01*
X188314517Y-77641389D01*
X188300899Y-77672434D01*
X188255942Y-77725918D01*
X188189205Y-77746607D01*
X188121878Y-77727931D01*
X188078304Y-77680046D01*
X188078077Y-77680187D01*
X188077320Y-77678965D01*
X188076343Y-77677891D01*
X188075060Y-77675315D01*
X188075056Y-77675308D01*
X187940979Y-77497761D01*
X187776562Y-77347876D01*
X187776560Y-77347874D01*
X187587404Y-77230754D01*
X187587398Y-77230752D01*
X187379940Y-77150382D01*
X187161243Y-77109500D01*
X186938757Y-77109500D01*
X186720060Y-77150382D01*
X186588864Y-77201207D01*
X186512601Y-77230752D01*
X186512595Y-77230754D01*
X186323439Y-77347874D01*
X186323437Y-77347876D01*
X186159020Y-77497761D01*
X186024943Y-77675308D01*
X186024938Y-77675316D01*
X185985499Y-77754521D01*
X185937996Y-77805758D01*
X185870333Y-77823179D01*
X185803992Y-77801253D01*
X185760038Y-77746941D01*
X185750499Y-77699249D01*
X185750499Y-77365143D01*
X185750499Y-77365136D01*
X185750497Y-77365117D01*
X185747586Y-77340012D01*
X185747585Y-77340010D01*
X185747585Y-77340009D01*
X185702206Y-77237235D01*
X185622765Y-77157794D01*
X185622428Y-77157645D01*
X185519992Y-77112415D01*
X185494865Y-77109500D01*
X183605143Y-77109500D01*
X183605117Y-77109502D01*
X183580012Y-77112413D01*
X183580008Y-77112415D01*
X183477235Y-77157793D01*
X183397794Y-77237234D01*
X183352415Y-77340006D01*
X183352415Y-77340008D01*
X183349500Y-77365131D01*
X170141314Y-77365131D01*
X170348797Y-77157647D01*
X170348797Y-77157645D01*
X170318360Y-77133955D01*
X170318354Y-77133951D01*
X170114302Y-77023523D01*
X170114293Y-77023520D01*
X169894860Y-76948188D01*
X169666007Y-76910000D01*
X169433993Y-76910000D01*
X169205139Y-76948188D01*
X168985706Y-77023520D01*
X168985697Y-77023523D01*
X168781650Y-77133949D01*
X168751200Y-77157647D01*
X169420591Y-77827037D01*
X169357007Y-77844075D01*
X169242993Y-77909901D01*
X169149901Y-78002993D01*
X169084075Y-78117007D01*
X169067037Y-78180591D01*
X168398811Y-77512365D01*
X168314517Y-77641389D01*
X168300899Y-77672434D01*
X168255942Y-77725918D01*
X168189205Y-77746607D01*
X168121878Y-77727931D01*
X168078304Y-77680046D01*
X168078077Y-77680187D01*
X168077320Y-77678965D01*
X168076343Y-77677891D01*
X168075060Y-77675315D01*
X168075056Y-77675308D01*
X167940979Y-77497761D01*
X167776562Y-77347876D01*
X167776560Y-77347874D01*
X167587404Y-77230754D01*
X167587398Y-77230752D01*
X167379940Y-77150382D01*
X167161243Y-77109500D01*
X166938757Y-77109500D01*
X166720060Y-77150382D01*
X166588864Y-77201207D01*
X166512601Y-77230752D01*
X166512595Y-77230754D01*
X166323439Y-77347874D01*
X166323437Y-77347876D01*
X166159020Y-77497761D01*
X166024943Y-77675308D01*
X166024938Y-77675316D01*
X165985499Y-77754521D01*
X165937996Y-77805758D01*
X165870333Y-77823179D01*
X165803992Y-77801253D01*
X165760038Y-77746941D01*
X165750499Y-77699249D01*
X165750499Y-77365143D01*
X165750499Y-77365136D01*
X165750497Y-77365117D01*
X165747586Y-77340012D01*
X165747585Y-77340010D01*
X165747585Y-77340009D01*
X165702206Y-77237235D01*
X165622765Y-77157794D01*
X165622428Y-77157645D01*
X165519992Y-77112415D01*
X165494865Y-77109500D01*
X163605143Y-77109500D01*
X163605117Y-77109502D01*
X163580012Y-77112413D01*
X163580008Y-77112415D01*
X163477235Y-77157793D01*
X163397794Y-77237234D01*
X163352415Y-77340006D01*
X163352415Y-77340008D01*
X163349500Y-77365131D01*
X63900000Y-77365131D01*
X63900000Y-71749999D01*
X90094722Y-71749999D01*
X90094722Y-71750000D01*
X90113762Y-71906818D01*
X90169780Y-72054523D01*
X90210051Y-72112865D01*
X90259518Y-72184532D01*
X90264491Y-72190145D01*
X90263044Y-72191426D01*
X90294850Y-72242120D01*
X90299500Y-72275759D01*
X90299500Y-73474240D01*
X90279815Y-73541279D01*
X90264153Y-73559556D01*
X90264491Y-73559856D01*
X90259515Y-73565472D01*
X90169781Y-73695475D01*
X90169780Y-73695476D01*
X90113762Y-73843181D01*
X90094722Y-73999999D01*
X90094722Y-74000000D01*
X90113762Y-74156818D01*
X90169780Y-74304523D01*
X90259517Y-74434530D01*
X90377760Y-74539283D01*
X90377762Y-74539284D01*
X90517634Y-74612696D01*
X90671014Y-74650500D01*
X90671015Y-74650500D01*
X90828985Y-74650500D01*
X90982365Y-74612696D01*
X91122240Y-74539283D01*
X91240483Y-74434530D01*
X91330220Y-74304523D01*
X91386237Y-74156818D01*
X91405278Y-74000000D01*
X91386237Y-73843182D01*
X91330220Y-73695477D01*
X91240483Y-73565470D01*
X91240479Y-73565466D01*
X91235509Y-73559856D01*
X91236953Y-73558576D01*
X91205145Y-73507860D01*
X91200500Y-73474240D01*
X91200500Y-72275759D01*
X91220185Y-72208720D01*
X91235846Y-72190444D01*
X91235509Y-72190145D01*
X91240481Y-72184532D01*
X91240481Y-72184531D01*
X91240483Y-72184530D01*
X91330220Y-72054523D01*
X91386237Y-71906818D01*
X91405278Y-71750000D01*
X91386237Y-71593182D01*
X91330220Y-71445477D01*
X91240483Y-71315470D01*
X91122240Y-71210717D01*
X91122238Y-71210716D01*
X91122237Y-71210715D01*
X90982365Y-71137303D01*
X90828986Y-71099500D01*
X90828985Y-71099500D01*
X90671015Y-71099500D01*
X90671014Y-71099500D01*
X90517634Y-71137303D01*
X90377762Y-71210715D01*
X90259516Y-71315471D01*
X90169781Y-71445475D01*
X90169780Y-71445476D01*
X90113762Y-71593181D01*
X90094722Y-71749999D01*
X63900000Y-71749999D01*
X63900000Y-70809998D01*
X160324594Y-70809998D01*
X160324594Y-70810001D01*
X160344192Y-71084014D01*
X160344193Y-71084021D01*
X160394542Y-71315471D01*
X160402586Y-71352450D01*
X160479897Y-71559728D01*
X160498591Y-71609849D01*
X160630241Y-71850947D01*
X160630246Y-71850955D01*
X160794868Y-72070865D01*
X160794884Y-72070883D01*
X160989116Y-72265115D01*
X160989134Y-72265131D01*
X161209044Y-72429753D01*
X161209052Y-72429758D01*
X161450151Y-72561408D01*
X161450150Y-72561408D01*
X161450154Y-72561409D01*
X161450157Y-72561411D01*
X161707550Y-72657414D01*
X161975986Y-72715808D01*
X162230401Y-72734004D01*
X162249999Y-72735406D01*
X162250000Y-72735406D01*
X162250001Y-72735406D01*
X162268290Y-72734097D01*
X162524014Y-72715808D01*
X162792450Y-72657414D01*
X163049843Y-72561411D01*
X163049847Y-72561408D01*
X163049849Y-72561408D01*
X163170398Y-72495583D01*
X163290953Y-72429755D01*
X163510873Y-72265125D01*
X163705125Y-72070873D01*
X163869755Y-71850953D01*
X164001411Y-71609843D01*
X164097414Y-71352450D01*
X164155808Y-71084014D01*
X164175406Y-70810000D01*
X164175406Y-70809998D01*
X169924594Y-70809998D01*
X169924594Y-70810001D01*
X169944192Y-71084014D01*
X169944193Y-71084021D01*
X169994542Y-71315471D01*
X170002586Y-71352450D01*
X170079897Y-71559728D01*
X170098591Y-71609849D01*
X170230241Y-71850947D01*
X170230246Y-71850955D01*
X170394868Y-72070865D01*
X170394884Y-72070883D01*
X170589116Y-72265115D01*
X170589134Y-72265131D01*
X170809044Y-72429753D01*
X170809052Y-72429758D01*
X171050151Y-72561408D01*
X171050150Y-72561408D01*
X171050154Y-72561409D01*
X171050157Y-72561411D01*
X171307550Y-72657414D01*
X171575986Y-72715808D01*
X171830401Y-72734004D01*
X171849999Y-72735406D01*
X171850000Y-72735406D01*
X171850001Y-72735406D01*
X171868290Y-72734097D01*
X172124014Y-72715808D01*
X172392450Y-72657414D01*
X172649843Y-72561411D01*
X172649847Y-72561408D01*
X172649849Y-72561408D01*
X172770398Y-72495583D01*
X172890953Y-72429755D01*
X173110873Y-72265125D01*
X173305125Y-72070873D01*
X173469755Y-71850953D01*
X173601411Y-71609843D01*
X173697414Y-71352450D01*
X173755808Y-71084014D01*
X173775406Y-70810000D01*
X173775406Y-70809998D01*
X180324594Y-70809998D01*
X180324594Y-70810001D01*
X180344192Y-71084014D01*
X180344193Y-71084021D01*
X180394542Y-71315471D01*
X180402586Y-71352450D01*
X180479897Y-71559728D01*
X180498591Y-71609849D01*
X180630241Y-71850947D01*
X180630246Y-71850955D01*
X180794868Y-72070865D01*
X180794884Y-72070883D01*
X180989116Y-72265115D01*
X180989134Y-72265131D01*
X181209044Y-72429753D01*
X181209052Y-72429758D01*
X181450151Y-72561408D01*
X181450150Y-72561408D01*
X181450154Y-72561409D01*
X181450157Y-72561411D01*
X181707550Y-72657414D01*
X181975986Y-72715808D01*
X182230401Y-72734004D01*
X182249999Y-72735406D01*
X182250000Y-72735406D01*
X182250001Y-72735406D01*
X182268290Y-72734097D01*
X182524014Y-72715808D01*
X182792450Y-72657414D01*
X183049843Y-72561411D01*
X183049847Y-72561408D01*
X183049849Y-72561408D01*
X183170398Y-72495583D01*
X183290953Y-72429755D01*
X183510873Y-72265125D01*
X183705125Y-72070873D01*
X183869755Y-71850953D01*
X184001411Y-71609843D01*
X184097414Y-71352450D01*
X184155808Y-71084014D01*
X184175406Y-70810000D01*
X184175406Y-70809998D01*
X189924594Y-70809998D01*
X189924594Y-70810001D01*
X189944192Y-71084014D01*
X189944193Y-71084021D01*
X189994542Y-71315471D01*
X190002586Y-71352450D01*
X190079897Y-71559728D01*
X190098591Y-71609849D01*
X190230241Y-71850947D01*
X190230246Y-71850955D01*
X190394868Y-72070865D01*
X190394884Y-72070883D01*
X190589116Y-72265115D01*
X190589134Y-72265131D01*
X190809044Y-72429753D01*
X190809052Y-72429758D01*
X191050151Y-72561408D01*
X191050150Y-72561408D01*
X191050154Y-72561409D01*
X191050157Y-72561411D01*
X191307550Y-72657414D01*
X191575986Y-72715808D01*
X191830401Y-72734004D01*
X191849999Y-72735406D01*
X191850000Y-72735406D01*
X191850001Y-72735406D01*
X191868290Y-72734097D01*
X192124014Y-72715808D01*
X192392450Y-72657414D01*
X192649843Y-72561411D01*
X192649847Y-72561408D01*
X192649849Y-72561408D01*
X192770398Y-72495583D01*
X192890953Y-72429755D01*
X193110873Y-72265125D01*
X193305125Y-72070873D01*
X193469755Y-71850953D01*
X193601411Y-71609843D01*
X193697414Y-71352450D01*
X193755808Y-71084014D01*
X193775406Y-70810000D01*
X193755808Y-70535986D01*
X193697414Y-70267550D01*
X193601411Y-70010157D01*
X193601409Y-70010154D01*
X193601408Y-70010150D01*
X193469758Y-69769052D01*
X193469753Y-69769044D01*
X193305131Y-69549134D01*
X193305115Y-69549116D01*
X193110883Y-69354884D01*
X193110865Y-69354868D01*
X192890955Y-69190246D01*
X192890947Y-69190241D01*
X192649848Y-69058591D01*
X192649849Y-69058591D01*
X192573228Y-69030013D01*
X192392450Y-68962586D01*
X192392443Y-68962584D01*
X192392442Y-68962584D01*
X192124021Y-68904193D01*
X192124014Y-68904192D01*
X191850001Y-68884594D01*
X191849999Y-68884594D01*
X191575985Y-68904192D01*
X191575978Y-68904193D01*
X191307557Y-68962584D01*
X191307553Y-68962585D01*
X191307550Y-68962586D01*
X191178853Y-69010587D01*
X191050150Y-69058591D01*
X190809052Y-69190241D01*
X190809044Y-69190246D01*
X190589134Y-69354868D01*
X190589116Y-69354884D01*
X190394884Y-69549116D01*
X190394868Y-69549134D01*
X190230246Y-69769044D01*
X190230241Y-69769052D01*
X190098591Y-70010150D01*
X190050587Y-70138853D01*
X190002586Y-70267550D01*
X190002585Y-70267553D01*
X190002584Y-70267557D01*
X189944193Y-70535978D01*
X189944192Y-70535985D01*
X189924594Y-70809998D01*
X184175406Y-70809998D01*
X184155808Y-70535986D01*
X184097414Y-70267550D01*
X184001411Y-70010157D01*
X184001409Y-70010154D01*
X184001408Y-70010150D01*
X183869758Y-69769052D01*
X183869753Y-69769044D01*
X183705131Y-69549134D01*
X183705115Y-69549116D01*
X183510883Y-69354884D01*
X183510865Y-69354868D01*
X183290955Y-69190246D01*
X183290947Y-69190241D01*
X183049848Y-69058591D01*
X183049849Y-69058591D01*
X182973228Y-69030013D01*
X182792450Y-68962586D01*
X182792443Y-68962584D01*
X182792442Y-68962584D01*
X182524021Y-68904193D01*
X182524014Y-68904192D01*
X182250001Y-68884594D01*
X182249999Y-68884594D01*
X181975985Y-68904192D01*
X181975978Y-68904193D01*
X181707557Y-68962584D01*
X181707553Y-68962585D01*
X181707550Y-68962586D01*
X181578853Y-69010587D01*
X181450150Y-69058591D01*
X181209052Y-69190241D01*
X181209044Y-69190246D01*
X180989134Y-69354868D01*
X180989116Y-69354884D01*
X180794884Y-69549116D01*
X180794868Y-69549134D01*
X180630246Y-69769044D01*
X180630241Y-69769052D01*
X180498591Y-70010150D01*
X180450587Y-70138853D01*
X180402586Y-70267550D01*
X180402585Y-70267553D01*
X180402584Y-70267557D01*
X180344193Y-70535978D01*
X180344192Y-70535985D01*
X180324594Y-70809998D01*
X173775406Y-70809998D01*
X173755808Y-70535986D01*
X173697414Y-70267550D01*
X173601411Y-70010157D01*
X173601409Y-70010154D01*
X173601408Y-70010150D01*
X173469758Y-69769052D01*
X173469753Y-69769044D01*
X173305131Y-69549134D01*
X173305115Y-69549116D01*
X173110883Y-69354884D01*
X173110865Y-69354868D01*
X172890955Y-69190246D01*
X172890947Y-69190241D01*
X172649848Y-69058591D01*
X172649849Y-69058591D01*
X172573228Y-69030013D01*
X172392450Y-68962586D01*
X172392443Y-68962584D01*
X172392442Y-68962584D01*
X172124021Y-68904193D01*
X172124014Y-68904192D01*
X171850001Y-68884594D01*
X171849999Y-68884594D01*
X171575985Y-68904192D01*
X171575978Y-68904193D01*
X171307557Y-68962584D01*
X171307553Y-68962585D01*
X171307550Y-68962586D01*
X171178853Y-69010587D01*
X171050150Y-69058591D01*
X170809052Y-69190241D01*
X170809044Y-69190246D01*
X170589134Y-69354868D01*
X170589116Y-69354884D01*
X170394884Y-69549116D01*
X170394868Y-69549134D01*
X170230246Y-69769044D01*
X170230241Y-69769052D01*
X170098591Y-70010150D01*
X170050587Y-70138853D01*
X170002586Y-70267550D01*
X170002585Y-70267553D01*
X170002584Y-70267557D01*
X169944193Y-70535978D01*
X169944192Y-70535985D01*
X169924594Y-70809998D01*
X164175406Y-70809998D01*
X164155808Y-70535986D01*
X164097414Y-70267550D01*
X164001411Y-70010157D01*
X164001409Y-70010154D01*
X164001408Y-70010150D01*
X163869758Y-69769052D01*
X163869753Y-69769044D01*
X163705131Y-69549134D01*
X163705115Y-69549116D01*
X163510883Y-69354884D01*
X163510865Y-69354868D01*
X163290955Y-69190246D01*
X163290947Y-69190241D01*
X163049848Y-69058591D01*
X163049849Y-69058591D01*
X162973228Y-69030013D01*
X162792450Y-68962586D01*
X162792443Y-68962584D01*
X162792442Y-68962584D01*
X162524021Y-68904193D01*
X162524014Y-68904192D01*
X162250001Y-68884594D01*
X162249999Y-68884594D01*
X161975985Y-68904192D01*
X161975978Y-68904193D01*
X161707557Y-68962584D01*
X161707553Y-68962585D01*
X161707550Y-68962586D01*
X161578853Y-69010587D01*
X161450150Y-69058591D01*
X161209052Y-69190241D01*
X161209044Y-69190246D01*
X160989134Y-69354868D01*
X160989116Y-69354884D01*
X160794884Y-69549116D01*
X160794868Y-69549134D01*
X160630246Y-69769044D01*
X160630241Y-69769052D01*
X160498591Y-70010150D01*
X160450587Y-70138853D01*
X160402586Y-70267550D01*
X160402585Y-70267553D01*
X160402584Y-70267557D01*
X160344193Y-70535978D01*
X160344192Y-70535985D01*
X160324594Y-70809998D01*
X63900000Y-70809998D01*
X63900000Y-69492374D01*
X63919685Y-69425335D01*
X63972489Y-69379580D01*
X64041647Y-69369636D01*
X64067333Y-69376192D01*
X64167620Y-69413596D01*
X64167627Y-69413598D01*
X64227155Y-69419999D01*
X64227172Y-69420000D01*
X64875000Y-69420000D01*
X64875000Y-68503012D01*
X64932007Y-68535925D01*
X65059174Y-68570000D01*
X65190826Y-68570000D01*
X65317993Y-68535925D01*
X65375000Y-68503012D01*
X65375000Y-69420000D01*
X66022828Y-69420000D01*
X66022844Y-69419999D01*
X66082372Y-69413598D01*
X66082379Y-69413596D01*
X66217086Y-69363354D01*
X66217093Y-69363350D01*
X66332187Y-69277190D01*
X66332190Y-69277187D01*
X66418350Y-69162093D01*
X66418354Y-69162086D01*
X66467614Y-69030013D01*
X66509485Y-68974079D01*
X66574949Y-68949662D01*
X66643222Y-68964513D01*
X66671477Y-68985665D01*
X66793917Y-69108105D01*
X66987421Y-69243600D01*
X67201507Y-69343429D01*
X67201516Y-69343433D01*
X67415000Y-69400634D01*
X67415000Y-68503012D01*
X67472007Y-68535925D01*
X67599174Y-68570000D01*
X67730826Y-68570000D01*
X67857993Y-68535925D01*
X67915000Y-68503012D01*
X67915000Y-69400633D01*
X68128483Y-69343433D01*
X68128492Y-69343429D01*
X68342578Y-69243600D01*
X68536082Y-69108105D01*
X68703105Y-68941082D01*
X68838600Y-68747578D01*
X68932294Y-68546651D01*
X68978466Y-68494212D01*
X69045660Y-68475060D01*
X69112541Y-68495276D01*
X69155676Y-68543785D01*
X69222632Y-68678253D01*
X69351127Y-68848406D01*
X69351128Y-68848407D01*
X69508698Y-68992052D01*
X69689981Y-69104298D01*
X69888802Y-69181321D01*
X70098390Y-69220500D01*
X70098392Y-69220500D01*
X70311608Y-69220500D01*
X70311610Y-69220500D01*
X70521198Y-69181321D01*
X70720019Y-69104298D01*
X70901302Y-68992052D01*
X71058872Y-68848407D01*
X71187366Y-68678255D01*
X71241270Y-68570000D01*
X71282403Y-68487394D01*
X71282403Y-68487393D01*
X71282405Y-68487389D01*
X71340756Y-68282310D01*
X71351529Y-68166047D01*
X71377315Y-68101111D01*
X71419622Y-68070804D01*
X71528130Y-68070804D01*
X71564503Y-68091668D01*
X71596693Y-68153681D01*
X71598470Y-68166047D01*
X71609244Y-68282310D01*
X71662675Y-68470099D01*
X71667596Y-68487392D01*
X71667596Y-68487394D01*
X71762632Y-68678253D01*
X71891127Y-68848406D01*
X71891128Y-68848407D01*
X72048698Y-68992052D01*
X72229981Y-69104298D01*
X72428802Y-69181321D01*
X72638390Y-69220500D01*
X72638392Y-69220500D01*
X72851608Y-69220500D01*
X72851610Y-69220500D01*
X73061198Y-69181321D01*
X73260019Y-69104298D01*
X73441302Y-68992052D01*
X73598872Y-68848407D01*
X73727366Y-68678255D01*
X73781270Y-68570000D01*
X73822403Y-68487394D01*
X73822403Y-68487393D01*
X73822405Y-68487389D01*
X73880756Y-68282310D01*
X73891529Y-68166047D01*
X73917315Y-68101111D01*
X73959622Y-68070804D01*
X74068130Y-68070804D01*
X74104503Y-68091668D01*
X74136693Y-68153681D01*
X74138470Y-68166047D01*
X74149244Y-68282310D01*
X74202675Y-68470099D01*
X74207596Y-68487392D01*
X74207596Y-68487394D01*
X74302632Y-68678253D01*
X74431127Y-68848406D01*
X74431128Y-68848407D01*
X74588698Y-68992052D01*
X74769981Y-69104298D01*
X74968802Y-69181321D01*
X75178390Y-69220500D01*
X75178392Y-69220500D01*
X75391608Y-69220500D01*
X75391610Y-69220500D01*
X75601198Y-69181321D01*
X75800019Y-69104298D01*
X75981302Y-68992052D01*
X76138872Y-68848407D01*
X76267366Y-68678255D01*
X76321270Y-68570000D01*
X76362403Y-68487394D01*
X76362403Y-68487393D01*
X76362405Y-68487389D01*
X76420756Y-68282310D01*
X76431529Y-68166047D01*
X76457315Y-68101111D01*
X76499622Y-68070804D01*
X76608130Y-68070804D01*
X76644503Y-68091668D01*
X76676693Y-68153681D01*
X76678470Y-68166047D01*
X76689244Y-68282310D01*
X76742675Y-68470099D01*
X76747596Y-68487392D01*
X76747596Y-68487394D01*
X76842632Y-68678253D01*
X76971127Y-68848406D01*
X76971128Y-68848407D01*
X77128698Y-68992052D01*
X77309981Y-69104298D01*
X77508802Y-69181321D01*
X77718390Y-69220500D01*
X77718392Y-69220500D01*
X77931608Y-69220500D01*
X77931610Y-69220500D01*
X78141198Y-69181321D01*
X78340019Y-69104298D01*
X78521302Y-68992052D01*
X78678872Y-68848407D01*
X78807366Y-68678255D01*
X78861270Y-68570000D01*
X78902403Y-68487394D01*
X78902403Y-68487393D01*
X78902405Y-68487389D01*
X78960756Y-68282310D01*
X78971529Y-68166047D01*
X78997315Y-68101111D01*
X79039622Y-68070804D01*
X79148130Y-68070804D01*
X79184503Y-68091668D01*
X79216693Y-68153681D01*
X79218470Y-68166047D01*
X79229244Y-68282310D01*
X79282675Y-68470099D01*
X79287596Y-68487392D01*
X79287596Y-68487394D01*
X79382632Y-68678253D01*
X79511127Y-68848406D01*
X79511128Y-68848407D01*
X79668698Y-68992052D01*
X79849981Y-69104298D01*
X80048802Y-69181321D01*
X80258390Y-69220500D01*
X80258392Y-69220500D01*
X80471608Y-69220500D01*
X80471610Y-69220500D01*
X80681198Y-69181321D01*
X80880019Y-69104298D01*
X81061302Y-68992052D01*
X81218872Y-68848407D01*
X81347366Y-68678255D01*
X81401270Y-68570000D01*
X81442403Y-68487394D01*
X81442403Y-68487393D01*
X81442405Y-68487389D01*
X81500756Y-68282310D01*
X81511529Y-68166047D01*
X81537315Y-68101111D01*
X81579622Y-68070804D01*
X81688130Y-68070804D01*
X81724503Y-68091668D01*
X81756693Y-68153681D01*
X81758470Y-68166047D01*
X81769244Y-68282310D01*
X81822675Y-68470099D01*
X81827596Y-68487392D01*
X81827596Y-68487394D01*
X81922632Y-68678253D01*
X82051127Y-68848406D01*
X82051128Y-68848407D01*
X82208698Y-68992052D01*
X82389981Y-69104298D01*
X82588802Y-69181321D01*
X82798390Y-69220500D01*
X82798392Y-69220500D01*
X83011608Y-69220500D01*
X83011610Y-69220500D01*
X83221198Y-69181321D01*
X83420019Y-69104298D01*
X83601302Y-68992052D01*
X83758872Y-68848407D01*
X83887366Y-68678255D01*
X83941270Y-68570000D01*
X83982403Y-68487394D01*
X83982403Y-68487393D01*
X83982405Y-68487389D01*
X84040756Y-68282310D01*
X84051529Y-68166047D01*
X84077315Y-68101111D01*
X84119622Y-68070804D01*
X84228130Y-68070804D01*
X84264503Y-68091668D01*
X84296693Y-68153681D01*
X84298470Y-68166047D01*
X84309244Y-68282310D01*
X84362675Y-68470099D01*
X84367596Y-68487392D01*
X84367596Y-68487394D01*
X84462632Y-68678253D01*
X84591127Y-68848406D01*
X84591128Y-68848407D01*
X84748698Y-68992052D01*
X84929981Y-69104298D01*
X85128802Y-69181321D01*
X85338390Y-69220500D01*
X85338392Y-69220500D01*
X85551608Y-69220500D01*
X85551610Y-69220500D01*
X85761198Y-69181321D01*
X85960019Y-69104298D01*
X86141302Y-68992052D01*
X86298872Y-68848407D01*
X86427366Y-68678255D01*
X86481270Y-68570000D01*
X86522403Y-68487394D01*
X86522403Y-68487393D01*
X86522405Y-68487389D01*
X86580756Y-68282310D01*
X86591529Y-68166047D01*
X86617315Y-68101111D01*
X86659622Y-68070804D01*
X86768130Y-68070804D01*
X86804503Y-68091668D01*
X86836693Y-68153681D01*
X86838470Y-68166047D01*
X86849244Y-68282310D01*
X86902675Y-68470099D01*
X86907596Y-68487392D01*
X86907596Y-68487394D01*
X87002632Y-68678253D01*
X87131127Y-68848406D01*
X87131128Y-68848407D01*
X87288698Y-68992052D01*
X87469981Y-69104298D01*
X87668802Y-69181321D01*
X87878390Y-69220500D01*
X87878392Y-69220500D01*
X88091608Y-69220500D01*
X88091610Y-69220500D01*
X88301198Y-69181321D01*
X88500019Y-69104298D01*
X88681302Y-68992052D01*
X88838872Y-68848407D01*
X88967366Y-68678255D01*
X89021270Y-68570000D01*
X89062403Y-68487394D01*
X89062403Y-68487393D01*
X89062405Y-68487389D01*
X89120756Y-68282310D01*
X89131529Y-68166047D01*
X89157315Y-68101111D01*
X89199622Y-68070804D01*
X89308130Y-68070804D01*
X89344503Y-68091668D01*
X89376693Y-68153681D01*
X89378470Y-68166047D01*
X89389244Y-68282310D01*
X89442675Y-68470099D01*
X89447596Y-68487392D01*
X89447596Y-68487394D01*
X89542632Y-68678253D01*
X89671127Y-68848406D01*
X89671128Y-68848407D01*
X89828698Y-68992052D01*
X90009981Y-69104298D01*
X90208802Y-69181321D01*
X90418390Y-69220500D01*
X90418392Y-69220500D01*
X90631608Y-69220500D01*
X90631610Y-69220500D01*
X90841198Y-69181321D01*
X91040019Y-69104298D01*
X91221302Y-68992052D01*
X91378872Y-68848407D01*
X91507366Y-68678255D01*
X91561270Y-68570000D01*
X91602403Y-68487394D01*
X91602403Y-68487393D01*
X91602405Y-68487389D01*
X91660756Y-68282310D01*
X91671529Y-68166047D01*
X91697315Y-68101111D01*
X91739622Y-68070804D01*
X91848130Y-68070804D01*
X91884503Y-68091668D01*
X91916693Y-68153681D01*
X91918470Y-68166047D01*
X91929244Y-68282310D01*
X91982675Y-68470099D01*
X91987596Y-68487392D01*
X91987596Y-68487394D01*
X92082632Y-68678253D01*
X92211127Y-68848406D01*
X92211128Y-68848407D01*
X92368698Y-68992052D01*
X92549981Y-69104298D01*
X92748802Y-69181321D01*
X92958390Y-69220500D01*
X92958392Y-69220500D01*
X93171608Y-69220500D01*
X93171610Y-69220500D01*
X93381198Y-69181321D01*
X93580019Y-69104298D01*
X93761302Y-68992052D01*
X93918872Y-68848407D01*
X94047366Y-68678255D01*
X94101270Y-68570000D01*
X94142403Y-68487394D01*
X94142403Y-68487393D01*
X94142405Y-68487389D01*
X94200756Y-68282310D01*
X94211529Y-68166047D01*
X94237315Y-68101111D01*
X94279622Y-68070804D01*
X94388130Y-68070804D01*
X94424503Y-68091668D01*
X94456693Y-68153681D01*
X94458470Y-68166047D01*
X94469244Y-68282310D01*
X94522675Y-68470099D01*
X94527596Y-68487392D01*
X94527596Y-68487394D01*
X94622632Y-68678253D01*
X94751127Y-68848406D01*
X94751128Y-68848407D01*
X94908698Y-68992052D01*
X95089981Y-69104298D01*
X95288802Y-69181321D01*
X95498390Y-69220500D01*
X95498392Y-69220500D01*
X95711608Y-69220500D01*
X95711610Y-69220500D01*
X95921198Y-69181321D01*
X96120019Y-69104298D01*
X96301302Y-68992052D01*
X96458872Y-68848407D01*
X96587366Y-68678255D01*
X96641270Y-68570000D01*
X96682403Y-68487394D01*
X96682403Y-68487393D01*
X96682405Y-68487389D01*
X96740756Y-68282310D01*
X96751529Y-68166047D01*
X96777315Y-68101111D01*
X96819622Y-68070804D01*
X96928130Y-68070804D01*
X96964503Y-68091668D01*
X96996693Y-68153681D01*
X96998470Y-68166047D01*
X97009244Y-68282310D01*
X97062675Y-68470099D01*
X97067596Y-68487392D01*
X97067596Y-68487394D01*
X97162632Y-68678253D01*
X97291127Y-68848406D01*
X97291128Y-68848407D01*
X97448698Y-68992052D01*
X97629981Y-69104298D01*
X97828802Y-69181321D01*
X98038390Y-69220500D01*
X98038392Y-69220500D01*
X98251608Y-69220500D01*
X98251610Y-69220500D01*
X98461198Y-69181321D01*
X98660019Y-69104298D01*
X98841302Y-68992052D01*
X98998872Y-68848407D01*
X99127366Y-68678255D01*
X99181270Y-68570000D01*
X99222403Y-68487394D01*
X99222403Y-68487393D01*
X99222405Y-68487389D01*
X99280756Y-68282310D01*
X99291529Y-68166047D01*
X99317315Y-68101111D01*
X99359622Y-68070804D01*
X99468130Y-68070804D01*
X99504503Y-68091668D01*
X99536693Y-68153681D01*
X99538470Y-68166047D01*
X99549244Y-68282310D01*
X99602675Y-68470099D01*
X99607596Y-68487392D01*
X99607596Y-68487394D01*
X99702632Y-68678253D01*
X99831127Y-68848406D01*
X99831128Y-68848407D01*
X99988698Y-68992052D01*
X100169981Y-69104298D01*
X100368802Y-69181321D01*
X100578390Y-69220500D01*
X100578392Y-69220500D01*
X100791608Y-69220500D01*
X100791610Y-69220500D01*
X101001198Y-69181321D01*
X101200019Y-69104298D01*
X101381302Y-68992052D01*
X101538872Y-68848407D01*
X101667366Y-68678255D01*
X101721270Y-68570000D01*
X101762403Y-68487394D01*
X101762403Y-68487393D01*
X101762405Y-68487389D01*
X101820756Y-68282310D01*
X101831529Y-68166047D01*
X101857315Y-68101111D01*
X101899622Y-68070804D01*
X102008130Y-68070804D01*
X102044503Y-68091668D01*
X102076693Y-68153681D01*
X102078470Y-68166047D01*
X102089244Y-68282310D01*
X102142675Y-68470099D01*
X102147596Y-68487392D01*
X102147596Y-68487394D01*
X102242632Y-68678253D01*
X102371127Y-68848406D01*
X102371128Y-68848407D01*
X102528698Y-68992052D01*
X102709981Y-69104298D01*
X102908802Y-69181321D01*
X103118390Y-69220500D01*
X103118392Y-69220500D01*
X103331608Y-69220500D01*
X103331610Y-69220500D01*
X103541198Y-69181321D01*
X103740019Y-69104298D01*
X103921302Y-68992052D01*
X104078872Y-68848407D01*
X104207366Y-68678255D01*
X104261270Y-68570000D01*
X104302403Y-68487394D01*
X104302403Y-68487393D01*
X104302405Y-68487389D01*
X104360756Y-68282310D01*
X104371529Y-68166047D01*
X104397315Y-68101111D01*
X104439622Y-68070804D01*
X104548130Y-68070804D01*
X104584503Y-68091668D01*
X104616693Y-68153681D01*
X104618470Y-68166047D01*
X104629244Y-68282310D01*
X104682675Y-68470099D01*
X104687596Y-68487392D01*
X104687596Y-68487394D01*
X104782632Y-68678253D01*
X104911127Y-68848406D01*
X104911128Y-68848407D01*
X105068698Y-68992052D01*
X105249981Y-69104298D01*
X105448802Y-69181321D01*
X105658390Y-69220500D01*
X105658392Y-69220500D01*
X105871608Y-69220500D01*
X105871610Y-69220500D01*
X106081198Y-69181321D01*
X106280019Y-69104298D01*
X106461302Y-68992052D01*
X106618872Y-68848407D01*
X106747366Y-68678255D01*
X106801270Y-68570000D01*
X106842403Y-68487394D01*
X106842403Y-68487393D01*
X106842405Y-68487389D01*
X106900756Y-68282310D01*
X106911529Y-68166047D01*
X106937315Y-68101111D01*
X106979622Y-68070804D01*
X107088130Y-68070804D01*
X107124503Y-68091668D01*
X107156693Y-68153681D01*
X107158470Y-68166047D01*
X107169244Y-68282310D01*
X107222675Y-68470099D01*
X107227596Y-68487392D01*
X107227596Y-68487394D01*
X107322632Y-68678253D01*
X107451127Y-68848406D01*
X107451128Y-68848407D01*
X107608698Y-68992052D01*
X107789981Y-69104298D01*
X107988802Y-69181321D01*
X108198390Y-69220500D01*
X108198392Y-69220500D01*
X108411608Y-69220500D01*
X108411610Y-69220500D01*
X108621198Y-69181321D01*
X108820019Y-69104298D01*
X109001302Y-68992052D01*
X109158872Y-68848407D01*
X109287366Y-68678255D01*
X109341270Y-68570000D01*
X109382403Y-68487394D01*
X109382403Y-68487393D01*
X109382405Y-68487389D01*
X109440756Y-68282310D01*
X109451529Y-68166047D01*
X109477315Y-68101111D01*
X109519622Y-68070804D01*
X109628130Y-68070804D01*
X109664503Y-68091668D01*
X109696693Y-68153681D01*
X109698470Y-68166047D01*
X109709244Y-68282310D01*
X109762675Y-68470099D01*
X109767596Y-68487392D01*
X109767596Y-68487394D01*
X109862632Y-68678253D01*
X109991127Y-68848406D01*
X109991128Y-68848407D01*
X110148698Y-68992052D01*
X110329981Y-69104298D01*
X110528802Y-69181321D01*
X110738390Y-69220500D01*
X110738392Y-69220500D01*
X110951608Y-69220500D01*
X110951610Y-69220500D01*
X111161198Y-69181321D01*
X111360019Y-69104298D01*
X111541302Y-68992052D01*
X111698872Y-68848407D01*
X111827366Y-68678255D01*
X111881270Y-68570000D01*
X111922403Y-68487394D01*
X111922403Y-68487393D01*
X111922405Y-68487389D01*
X111980756Y-68282310D01*
X111991529Y-68166047D01*
X112017315Y-68101111D01*
X112059622Y-68070804D01*
X112168130Y-68070804D01*
X112204503Y-68091668D01*
X112236693Y-68153681D01*
X112238470Y-68166047D01*
X112249244Y-68282310D01*
X112302675Y-68470099D01*
X112307596Y-68487392D01*
X112307596Y-68487394D01*
X112402632Y-68678253D01*
X112531127Y-68848406D01*
X112531128Y-68848407D01*
X112688698Y-68992052D01*
X112869981Y-69104298D01*
X113068802Y-69181321D01*
X113278390Y-69220500D01*
X113278392Y-69220500D01*
X113491608Y-69220500D01*
X113491610Y-69220500D01*
X113701198Y-69181321D01*
X113900019Y-69104298D01*
X114081302Y-68992052D01*
X114238872Y-68848407D01*
X114367366Y-68678255D01*
X114421270Y-68570000D01*
X114462403Y-68487394D01*
X114462403Y-68487393D01*
X114462405Y-68487389D01*
X114520756Y-68282310D01*
X114540429Y-68070000D01*
X114520756Y-67857690D01*
X114462405Y-67652611D01*
X114462403Y-67652606D01*
X114462403Y-67652605D01*
X114367367Y-67461746D01*
X114238872Y-67291593D01*
X114081302Y-67147948D01*
X113900019Y-67035702D01*
X113900017Y-67035701D01*
X113750829Y-66977906D01*
X113701198Y-66958679D01*
X113491610Y-66919500D01*
X113278390Y-66919500D01*
X113068802Y-66958679D01*
X113068799Y-66958679D01*
X113068799Y-66958680D01*
X112869982Y-67035701D01*
X112869980Y-67035702D01*
X112688699Y-67147947D01*
X112531127Y-67291593D01*
X112402632Y-67461746D01*
X112307596Y-67652605D01*
X112307596Y-67652607D01*
X112249244Y-67857689D01*
X112238471Y-67973951D01*
X112212685Y-68038888D01*
X112168130Y-68070804D01*
X112059622Y-68070804D01*
X112061869Y-68069194D01*
X112025497Y-68048331D01*
X111993307Y-67986318D01*
X111991529Y-67973951D01*
X111990849Y-67966613D01*
X111980756Y-67857690D01*
X111922405Y-67652611D01*
X111922403Y-67652606D01*
X111922403Y-67652605D01*
X111827367Y-67461746D01*
X111698872Y-67291593D01*
X111541302Y-67147948D01*
X111360019Y-67035702D01*
X111360017Y-67035701D01*
X111210829Y-66977906D01*
X111161198Y-66958679D01*
X110951610Y-66919500D01*
X110738390Y-66919500D01*
X110528802Y-66958679D01*
X110528799Y-66958679D01*
X110528799Y-66958680D01*
X110329982Y-67035701D01*
X110329980Y-67035702D01*
X110148699Y-67147947D01*
X109991127Y-67291593D01*
X109862632Y-67461746D01*
X109767596Y-67652605D01*
X109767596Y-67652607D01*
X109709244Y-67857689D01*
X109698471Y-67973951D01*
X109672685Y-68038888D01*
X109628130Y-68070804D01*
X109519622Y-68070804D01*
X109521869Y-68069194D01*
X109485497Y-68048331D01*
X109453307Y-67986318D01*
X109451529Y-67973951D01*
X109450849Y-67966613D01*
X109440756Y-67857690D01*
X109382405Y-67652611D01*
X109382403Y-67652606D01*
X109382403Y-67652605D01*
X109287367Y-67461746D01*
X109158872Y-67291593D01*
X109001302Y-67147948D01*
X108820019Y-67035702D01*
X108820017Y-67035701D01*
X108670829Y-66977906D01*
X108621198Y-66958679D01*
X108411610Y-66919500D01*
X108198390Y-66919500D01*
X107988802Y-66958679D01*
X107988799Y-66958679D01*
X107988799Y-66958680D01*
X107789982Y-67035701D01*
X107789980Y-67035702D01*
X107608699Y-67147947D01*
X107451127Y-67291593D01*
X107322632Y-67461746D01*
X107227596Y-67652605D01*
X107227596Y-67652607D01*
X107169244Y-67857689D01*
X107158471Y-67973951D01*
X107132685Y-68038888D01*
X107088130Y-68070804D01*
X106979622Y-68070804D01*
X106981869Y-68069194D01*
X106945497Y-68048331D01*
X106913307Y-67986318D01*
X106911529Y-67973951D01*
X106910849Y-67966613D01*
X106900756Y-67857690D01*
X106842405Y-67652611D01*
X106842403Y-67652606D01*
X106842403Y-67652605D01*
X106747367Y-67461746D01*
X106618872Y-67291593D01*
X106461302Y-67147948D01*
X106280019Y-67035702D01*
X106280017Y-67035701D01*
X106130829Y-66977906D01*
X106081198Y-66958679D01*
X105871610Y-66919500D01*
X105658390Y-66919500D01*
X105448802Y-66958679D01*
X105448799Y-66958679D01*
X105448799Y-66958680D01*
X105249982Y-67035701D01*
X105249980Y-67035702D01*
X105068699Y-67147947D01*
X104911127Y-67291593D01*
X104782632Y-67461746D01*
X104687596Y-67652605D01*
X104687596Y-67652607D01*
X104629244Y-67857689D01*
X104618471Y-67973951D01*
X104592685Y-68038888D01*
X104548130Y-68070804D01*
X104439622Y-68070804D01*
X104441869Y-68069194D01*
X104405497Y-68048331D01*
X104373307Y-67986318D01*
X104371529Y-67973951D01*
X104370849Y-67966613D01*
X104360756Y-67857690D01*
X104302405Y-67652611D01*
X104302403Y-67652606D01*
X104302403Y-67652605D01*
X104207367Y-67461746D01*
X104078872Y-67291593D01*
X103921302Y-67147948D01*
X103740019Y-67035702D01*
X103740017Y-67035701D01*
X103590829Y-66977906D01*
X103541198Y-66958679D01*
X103331610Y-66919500D01*
X103118390Y-66919500D01*
X102908802Y-66958679D01*
X102908799Y-66958679D01*
X102908799Y-66958680D01*
X102709982Y-67035701D01*
X102709980Y-67035702D01*
X102528699Y-67147947D01*
X102371127Y-67291593D01*
X102242632Y-67461746D01*
X102147596Y-67652605D01*
X102147596Y-67652607D01*
X102089244Y-67857689D01*
X102078471Y-67973951D01*
X102052685Y-68038888D01*
X102008130Y-68070804D01*
X101899622Y-68070804D01*
X101901869Y-68069194D01*
X101865497Y-68048331D01*
X101833307Y-67986318D01*
X101831529Y-67973951D01*
X101830849Y-67966613D01*
X101820756Y-67857690D01*
X101762405Y-67652611D01*
X101762403Y-67652606D01*
X101762403Y-67652605D01*
X101667367Y-67461746D01*
X101538872Y-67291593D01*
X101381302Y-67147948D01*
X101200019Y-67035702D01*
X101200017Y-67035701D01*
X101050829Y-66977906D01*
X101001198Y-66958679D01*
X100791610Y-66919500D01*
X100578390Y-66919500D01*
X100368802Y-66958679D01*
X100368799Y-66958679D01*
X100368799Y-66958680D01*
X100169982Y-67035701D01*
X100169980Y-67035702D01*
X99988699Y-67147947D01*
X99831127Y-67291593D01*
X99702632Y-67461746D01*
X99607596Y-67652605D01*
X99607596Y-67652607D01*
X99549244Y-67857689D01*
X99538471Y-67973951D01*
X99512685Y-68038888D01*
X99468130Y-68070804D01*
X99359622Y-68070804D01*
X99361869Y-68069194D01*
X99325497Y-68048331D01*
X99293307Y-67986318D01*
X99291529Y-67973951D01*
X99290849Y-67966613D01*
X99280756Y-67857690D01*
X99222405Y-67652611D01*
X99222403Y-67652606D01*
X99222403Y-67652605D01*
X99127367Y-67461746D01*
X98998872Y-67291593D01*
X98841302Y-67147948D01*
X98660019Y-67035702D01*
X98660017Y-67035701D01*
X98510829Y-66977906D01*
X98461198Y-66958679D01*
X98251610Y-66919500D01*
X98038390Y-66919500D01*
X97828802Y-66958679D01*
X97828799Y-66958679D01*
X97828799Y-66958680D01*
X97629982Y-67035701D01*
X97629980Y-67035702D01*
X97448699Y-67147947D01*
X97291127Y-67291593D01*
X97162632Y-67461746D01*
X97067596Y-67652605D01*
X97067596Y-67652607D01*
X97009244Y-67857689D01*
X96998471Y-67973951D01*
X96972685Y-68038888D01*
X96928130Y-68070804D01*
X96819622Y-68070804D01*
X96821869Y-68069194D01*
X96785497Y-68048331D01*
X96753307Y-67986318D01*
X96751529Y-67973951D01*
X96750849Y-67966613D01*
X96740756Y-67857690D01*
X96682405Y-67652611D01*
X96682403Y-67652606D01*
X96682403Y-67652605D01*
X96587367Y-67461746D01*
X96458872Y-67291593D01*
X96301302Y-67147948D01*
X96120019Y-67035702D01*
X96120017Y-67035701D01*
X95970829Y-66977906D01*
X95921198Y-66958679D01*
X95711610Y-66919500D01*
X95498390Y-66919500D01*
X95288802Y-66958679D01*
X95288799Y-66958679D01*
X95288799Y-66958680D01*
X95089982Y-67035701D01*
X95089980Y-67035702D01*
X94908699Y-67147947D01*
X94751127Y-67291593D01*
X94622632Y-67461746D01*
X94527596Y-67652605D01*
X94527596Y-67652607D01*
X94469244Y-67857689D01*
X94458471Y-67973951D01*
X94432685Y-68038888D01*
X94388130Y-68070804D01*
X94279622Y-68070804D01*
X94281869Y-68069194D01*
X94245497Y-68048331D01*
X94213307Y-67986318D01*
X94211529Y-67973951D01*
X94210849Y-67966613D01*
X94200756Y-67857690D01*
X94142405Y-67652611D01*
X94142403Y-67652606D01*
X94142403Y-67652605D01*
X94047367Y-67461746D01*
X93918872Y-67291593D01*
X93761302Y-67147948D01*
X93580019Y-67035702D01*
X93580017Y-67035701D01*
X93430829Y-66977906D01*
X93381198Y-66958679D01*
X93171610Y-66919500D01*
X92958390Y-66919500D01*
X92748802Y-66958679D01*
X92748799Y-66958679D01*
X92748799Y-66958680D01*
X92549982Y-67035701D01*
X92549980Y-67035702D01*
X92368699Y-67147947D01*
X92211127Y-67291593D01*
X92082632Y-67461746D01*
X91987596Y-67652605D01*
X91987596Y-67652607D01*
X91929244Y-67857689D01*
X91918471Y-67973951D01*
X91892685Y-68038888D01*
X91848130Y-68070804D01*
X91739622Y-68070804D01*
X91741869Y-68069194D01*
X91705497Y-68048331D01*
X91673307Y-67986318D01*
X91671529Y-67973951D01*
X91670849Y-67966613D01*
X91660756Y-67857690D01*
X91602405Y-67652611D01*
X91602403Y-67652606D01*
X91602403Y-67652605D01*
X91507367Y-67461746D01*
X91378872Y-67291593D01*
X91221302Y-67147948D01*
X91040019Y-67035702D01*
X91040017Y-67035701D01*
X90890829Y-66977906D01*
X90841198Y-66958679D01*
X90631610Y-66919500D01*
X90418390Y-66919500D01*
X90208802Y-66958679D01*
X90208799Y-66958679D01*
X90208799Y-66958680D01*
X90009982Y-67035701D01*
X90009980Y-67035702D01*
X89828699Y-67147947D01*
X89671127Y-67291593D01*
X89542632Y-67461746D01*
X89447596Y-67652605D01*
X89447596Y-67652607D01*
X89389244Y-67857689D01*
X89378471Y-67973951D01*
X89352685Y-68038888D01*
X89308130Y-68070804D01*
X89199622Y-68070804D01*
X89201869Y-68069194D01*
X89165497Y-68048331D01*
X89133307Y-67986318D01*
X89131529Y-67973951D01*
X89130849Y-67966613D01*
X89120756Y-67857690D01*
X89062405Y-67652611D01*
X89062403Y-67652606D01*
X89062403Y-67652605D01*
X88967367Y-67461746D01*
X88838872Y-67291593D01*
X88681302Y-67147948D01*
X88500019Y-67035702D01*
X88500017Y-67035701D01*
X88350829Y-66977906D01*
X88301198Y-66958679D01*
X88091610Y-66919500D01*
X87878390Y-66919500D01*
X87668802Y-66958679D01*
X87668799Y-66958679D01*
X87668799Y-66958680D01*
X87469982Y-67035701D01*
X87469980Y-67035702D01*
X87288699Y-67147947D01*
X87131127Y-67291593D01*
X87002632Y-67461746D01*
X86907596Y-67652605D01*
X86907596Y-67652607D01*
X86849244Y-67857689D01*
X86838471Y-67973951D01*
X86812685Y-68038888D01*
X86768130Y-68070804D01*
X86659622Y-68070804D01*
X86661869Y-68069194D01*
X86625497Y-68048331D01*
X86593307Y-67986318D01*
X86591529Y-67973951D01*
X86590849Y-67966613D01*
X86580756Y-67857690D01*
X86522405Y-67652611D01*
X86522403Y-67652606D01*
X86522403Y-67652605D01*
X86427367Y-67461746D01*
X86298872Y-67291593D01*
X86141302Y-67147948D01*
X85960019Y-67035702D01*
X85960017Y-67035701D01*
X85810829Y-66977906D01*
X85761198Y-66958679D01*
X85551610Y-66919500D01*
X85338390Y-66919500D01*
X85128802Y-66958679D01*
X85128799Y-66958679D01*
X85128799Y-66958680D01*
X84929982Y-67035701D01*
X84929980Y-67035702D01*
X84748699Y-67147947D01*
X84591127Y-67291593D01*
X84462632Y-67461746D01*
X84367596Y-67652605D01*
X84367596Y-67652607D01*
X84309244Y-67857689D01*
X84298471Y-67973951D01*
X84272685Y-68038888D01*
X84228130Y-68070804D01*
X84119622Y-68070804D01*
X84121869Y-68069194D01*
X84085497Y-68048331D01*
X84053307Y-67986318D01*
X84051529Y-67973951D01*
X84050849Y-67966613D01*
X84040756Y-67857690D01*
X83982405Y-67652611D01*
X83982403Y-67652606D01*
X83982403Y-67652605D01*
X83887367Y-67461746D01*
X83758872Y-67291593D01*
X83601302Y-67147948D01*
X83420019Y-67035702D01*
X83420017Y-67035701D01*
X83270829Y-66977906D01*
X83221198Y-66958679D01*
X83011610Y-66919500D01*
X82798390Y-66919500D01*
X82588802Y-66958679D01*
X82588799Y-66958679D01*
X82588799Y-66958680D01*
X82389982Y-67035701D01*
X82389980Y-67035702D01*
X82208699Y-67147947D01*
X82051127Y-67291593D01*
X81922632Y-67461746D01*
X81827596Y-67652605D01*
X81827596Y-67652607D01*
X81769244Y-67857689D01*
X81758471Y-67973951D01*
X81732685Y-68038888D01*
X81688130Y-68070804D01*
X81579622Y-68070804D01*
X81581869Y-68069194D01*
X81545497Y-68048331D01*
X81513307Y-67986318D01*
X81511529Y-67973951D01*
X81510849Y-67966613D01*
X81500756Y-67857690D01*
X81442405Y-67652611D01*
X81442403Y-67652606D01*
X81442403Y-67652605D01*
X81347367Y-67461746D01*
X81218872Y-67291593D01*
X81061302Y-67147948D01*
X80880019Y-67035702D01*
X80880017Y-67035701D01*
X80730829Y-66977906D01*
X80681198Y-66958679D01*
X80471610Y-66919500D01*
X80258390Y-66919500D01*
X80048802Y-66958679D01*
X80048799Y-66958679D01*
X80048799Y-66958680D01*
X79849982Y-67035701D01*
X79849980Y-67035702D01*
X79668699Y-67147947D01*
X79511127Y-67291593D01*
X79382632Y-67461746D01*
X79287596Y-67652605D01*
X79287596Y-67652607D01*
X79229244Y-67857689D01*
X79218471Y-67973951D01*
X79192685Y-68038888D01*
X79148130Y-68070804D01*
X79039622Y-68070804D01*
X79041869Y-68069194D01*
X79005497Y-68048331D01*
X78973307Y-67986318D01*
X78971529Y-67973951D01*
X78970849Y-67966613D01*
X78960756Y-67857690D01*
X78902405Y-67652611D01*
X78902403Y-67652606D01*
X78902403Y-67652605D01*
X78807367Y-67461746D01*
X78678872Y-67291593D01*
X78521302Y-67147948D01*
X78340019Y-67035702D01*
X78340017Y-67035701D01*
X78190829Y-66977906D01*
X78141198Y-66958679D01*
X77931610Y-66919500D01*
X77718390Y-66919500D01*
X77508802Y-66958679D01*
X77508799Y-66958679D01*
X77508799Y-66958680D01*
X77309982Y-67035701D01*
X77309980Y-67035702D01*
X77128699Y-67147947D01*
X76971127Y-67291593D01*
X76842632Y-67461746D01*
X76747596Y-67652605D01*
X76747596Y-67652607D01*
X76689244Y-67857689D01*
X76678471Y-67973951D01*
X76652685Y-68038888D01*
X76608130Y-68070804D01*
X76499622Y-68070804D01*
X76501869Y-68069194D01*
X76465497Y-68048331D01*
X76433307Y-67986318D01*
X76431529Y-67973951D01*
X76430849Y-67966613D01*
X76420756Y-67857690D01*
X76362405Y-67652611D01*
X76362403Y-67652606D01*
X76362403Y-67652605D01*
X76267367Y-67461746D01*
X76138872Y-67291593D01*
X75981302Y-67147948D01*
X75800019Y-67035702D01*
X75800017Y-67035701D01*
X75650829Y-66977906D01*
X75601198Y-66958679D01*
X75391610Y-66919500D01*
X75178390Y-66919500D01*
X74968802Y-66958679D01*
X74968799Y-66958679D01*
X74968799Y-66958680D01*
X74769982Y-67035701D01*
X74769980Y-67035702D01*
X74588699Y-67147947D01*
X74431127Y-67291593D01*
X74302632Y-67461746D01*
X74207596Y-67652605D01*
X74207596Y-67652607D01*
X74149244Y-67857689D01*
X74138471Y-67973951D01*
X74112685Y-68038888D01*
X74068130Y-68070804D01*
X73959622Y-68070804D01*
X73961869Y-68069194D01*
X73925497Y-68048331D01*
X73893307Y-67986318D01*
X73891529Y-67973951D01*
X73890849Y-67966613D01*
X73880756Y-67857690D01*
X73822405Y-67652611D01*
X73822403Y-67652606D01*
X73822403Y-67652605D01*
X73727367Y-67461746D01*
X73598872Y-67291593D01*
X73441302Y-67147948D01*
X73260019Y-67035702D01*
X73260017Y-67035701D01*
X73110829Y-66977906D01*
X73061198Y-66958679D01*
X72851610Y-66919500D01*
X72638390Y-66919500D01*
X72428802Y-66958679D01*
X72428799Y-66958679D01*
X72428799Y-66958680D01*
X72229982Y-67035701D01*
X72229980Y-67035702D01*
X72048699Y-67147947D01*
X71891127Y-67291593D01*
X71762632Y-67461746D01*
X71667596Y-67652605D01*
X71667596Y-67652607D01*
X71609244Y-67857689D01*
X71598471Y-67973951D01*
X71572685Y-68038888D01*
X71528130Y-68070804D01*
X71419622Y-68070804D01*
X71421869Y-68069194D01*
X71385497Y-68048331D01*
X71353307Y-67986318D01*
X71351529Y-67973951D01*
X71350849Y-67966613D01*
X71340756Y-67857690D01*
X71282405Y-67652611D01*
X71282403Y-67652606D01*
X71282403Y-67652605D01*
X71187367Y-67461746D01*
X71058872Y-67291593D01*
X70901302Y-67147948D01*
X70720019Y-67035702D01*
X70720017Y-67035701D01*
X70570829Y-66977906D01*
X70521198Y-66958679D01*
X70311610Y-66919500D01*
X70098390Y-66919500D01*
X69888802Y-66958679D01*
X69888799Y-66958679D01*
X69888799Y-66958680D01*
X69689982Y-67035701D01*
X69689980Y-67035702D01*
X69508699Y-67147947D01*
X69351127Y-67291593D01*
X69222634Y-67461744D01*
X69155676Y-67596215D01*
X69108173Y-67647452D01*
X69040510Y-67664873D01*
X68974170Y-67642947D01*
X68932294Y-67593348D01*
X68838600Y-67392422D01*
X68838599Y-67392420D01*
X68703113Y-67198926D01*
X68703108Y-67198920D01*
X68536082Y-67031894D01*
X68342578Y-66896399D01*
X68128492Y-66796570D01*
X68128486Y-66796567D01*
X67915000Y-66739364D01*
X67915000Y-67636988D01*
X67857993Y-67604075D01*
X67730826Y-67570000D01*
X67599174Y-67570000D01*
X67472007Y-67604075D01*
X67415000Y-67636988D01*
X67415000Y-66739364D01*
X67414999Y-66739364D01*
X67201513Y-66796567D01*
X67201507Y-66796570D01*
X66987422Y-66896399D01*
X66987420Y-66896400D01*
X66793926Y-67031886D01*
X66671477Y-67154335D01*
X66610154Y-67187819D01*
X66540462Y-67182835D01*
X66484529Y-67140963D01*
X66467614Y-67109986D01*
X66418354Y-66977913D01*
X66418350Y-66977906D01*
X66332190Y-66862812D01*
X66332187Y-66862809D01*
X66217093Y-66776649D01*
X66217086Y-66776645D01*
X66082379Y-66726403D01*
X66082372Y-66726401D01*
X66022844Y-66720000D01*
X65375000Y-66720000D01*
X65375000Y-67636988D01*
X65317993Y-67604075D01*
X65190826Y-67570000D01*
X65059174Y-67570000D01*
X64932007Y-67604075D01*
X64875000Y-67636988D01*
X64875000Y-66720000D01*
X64227155Y-66720000D01*
X64167627Y-66726401D01*
X64167616Y-66726403D01*
X64067332Y-66763807D01*
X63997640Y-66768791D01*
X63936318Y-66735305D01*
X63902833Y-66673982D01*
X63900000Y-66647625D01*
X63900000Y-64949999D01*
X79844722Y-64949999D01*
X79844722Y-64950000D01*
X79863762Y-65106818D01*
X79882725Y-65156818D01*
X79919780Y-65254523D01*
X80009517Y-65384530D01*
X80127760Y-65489283D01*
X80127762Y-65489284D01*
X80267634Y-65562696D01*
X80421014Y-65600500D01*
X80421015Y-65600500D01*
X80578985Y-65600500D01*
X80732365Y-65562696D01*
X80776974Y-65539283D01*
X80872240Y-65489283D01*
X80990483Y-65384530D01*
X81080220Y-65254523D01*
X81136237Y-65106818D01*
X81155278Y-64950000D01*
X81136237Y-64793182D01*
X81080220Y-64645477D01*
X80990483Y-64515470D01*
X80990479Y-64515466D01*
X80985509Y-64509856D01*
X80986953Y-64508576D01*
X80955145Y-64457860D01*
X80950500Y-64424240D01*
X80950500Y-63524500D01*
X80970185Y-63457461D01*
X81022989Y-63411706D01*
X81074500Y-63400500D01*
X81078985Y-63400500D01*
X81232365Y-63362696D01*
X81372240Y-63289283D01*
X81490483Y-63184530D01*
X81580220Y-63054523D01*
X81636237Y-62906818D01*
X81655278Y-62750000D01*
X81655278Y-62749999D01*
X82344722Y-62749999D01*
X82344722Y-62750000D01*
X82363762Y-62906818D01*
X82415680Y-63043713D01*
X82419780Y-63054523D01*
X82434683Y-63076114D01*
X82509518Y-63184532D01*
X82514491Y-63190145D01*
X82513044Y-63191426D01*
X82544850Y-63242120D01*
X82549500Y-63275759D01*
X82549500Y-64474240D01*
X82529815Y-64541279D01*
X82514153Y-64559556D01*
X82514491Y-64559856D01*
X82509515Y-64565472D01*
X82419781Y-64695475D01*
X82419780Y-64695476D01*
X82363762Y-64843181D01*
X82344722Y-64999999D01*
X82344722Y-65000000D01*
X82363762Y-65156818D01*
X82400818Y-65254524D01*
X82419780Y-65304523D01*
X82509517Y-65434530D01*
X82627760Y-65539283D01*
X82627762Y-65539284D01*
X82767634Y-65612696D01*
X82921014Y-65650500D01*
X82921015Y-65650500D01*
X83078985Y-65650500D01*
X83232365Y-65612696D01*
X83255602Y-65600500D01*
X83372240Y-65539283D01*
X83490483Y-65434530D01*
X83580220Y-65304523D01*
X83636237Y-65156818D01*
X83655278Y-65000000D01*
X83636237Y-64843182D01*
X83580220Y-64695477D01*
X83490483Y-64565470D01*
X83490479Y-64565466D01*
X83485509Y-64559856D01*
X83486953Y-64558576D01*
X83455145Y-64507860D01*
X83450500Y-64474240D01*
X83450500Y-63275759D01*
X83470185Y-63208720D01*
X83485846Y-63190444D01*
X83485509Y-63190145D01*
X83490481Y-63184532D01*
X83490481Y-63184531D01*
X83490483Y-63184530D01*
X83580220Y-63054523D01*
X83584320Y-63043713D01*
X251999500Y-63043713D01*
X251999500Y-63256286D01*
X252032753Y-63466239D01*
X252098444Y-63668414D01*
X252194951Y-63857820D01*
X252319890Y-64029786D01*
X252470213Y-64180109D01*
X252642179Y-64305048D01*
X252642181Y-64305049D01*
X252642184Y-64305051D01*
X252831588Y-64401557D01*
X253033757Y-64467246D01*
X253243713Y-64500500D01*
X253243714Y-64500500D01*
X253456286Y-64500500D01*
X253456287Y-64500500D01*
X253666243Y-64467246D01*
X253868412Y-64401557D01*
X254057816Y-64305051D01*
X254079789Y-64289086D01*
X254229786Y-64180109D01*
X254229788Y-64180106D01*
X254229792Y-64180104D01*
X254380104Y-64029792D01*
X254380106Y-64029788D01*
X254380109Y-64029786D01*
X254505048Y-63857820D01*
X254505047Y-63857820D01*
X254505051Y-63857816D01*
X254601557Y-63668412D01*
X254667246Y-63466243D01*
X254700500Y-63256287D01*
X254700500Y-63043713D01*
X254667246Y-62833757D01*
X254601557Y-62631588D01*
X254505051Y-62442184D01*
X254505049Y-62442181D01*
X254505048Y-62442179D01*
X254380109Y-62270213D01*
X254229786Y-62119890D01*
X254057820Y-61994951D01*
X253868414Y-61898444D01*
X253868413Y-61898443D01*
X253868412Y-61898443D01*
X253666243Y-61832754D01*
X253666241Y-61832753D01*
X253666240Y-61832753D01*
X253504957Y-61807208D01*
X253456287Y-61799500D01*
X253243713Y-61799500D01*
X253195042Y-61807208D01*
X253033760Y-61832753D01*
X252831585Y-61898444D01*
X252642179Y-61994951D01*
X252470213Y-62119890D01*
X252319890Y-62270213D01*
X252194951Y-62442179D01*
X252098444Y-62631585D01*
X252032753Y-62833760D01*
X251999500Y-63043713D01*
X83584320Y-63043713D01*
X83636237Y-62906818D01*
X83655278Y-62750000D01*
X83643623Y-62654007D01*
X83636237Y-62593181D01*
X83589590Y-62470185D01*
X83580220Y-62445477D01*
X83490483Y-62315470D01*
X83372240Y-62210717D01*
X83372238Y-62210716D01*
X83372237Y-62210715D01*
X83232365Y-62137303D01*
X83078986Y-62099500D01*
X83078985Y-62099500D01*
X82921015Y-62099500D01*
X82921014Y-62099500D01*
X82767634Y-62137303D01*
X82627762Y-62210715D01*
X82509516Y-62315471D01*
X82419781Y-62445475D01*
X82419780Y-62445476D01*
X82363762Y-62593181D01*
X82344722Y-62749999D01*
X81655278Y-62749999D01*
X81643623Y-62654007D01*
X81636237Y-62593181D01*
X81589590Y-62470185D01*
X81580220Y-62445477D01*
X81490483Y-62315470D01*
X81372240Y-62210717D01*
X81372238Y-62210716D01*
X81372237Y-62210715D01*
X81232365Y-62137303D01*
X81078986Y-62099500D01*
X81078985Y-62099500D01*
X80921015Y-62099500D01*
X80921014Y-62099500D01*
X80767634Y-62137303D01*
X80627762Y-62210715D01*
X80509516Y-62315471D01*
X80419781Y-62445475D01*
X80419780Y-62445476D01*
X80363763Y-62593180D01*
X80347368Y-62728207D01*
X80319746Y-62792385D01*
X80311954Y-62800941D01*
X80139510Y-62973387D01*
X80139509Y-62973389D01*
X80080201Y-63076112D01*
X80080200Y-63076117D01*
X80049500Y-63190691D01*
X80049500Y-64424240D01*
X80029815Y-64491279D01*
X80014153Y-64509556D01*
X80014491Y-64509856D01*
X80009515Y-64515472D01*
X79919781Y-64645475D01*
X79919780Y-64645476D01*
X79863762Y-64793181D01*
X79844722Y-64949999D01*
X63900000Y-64949999D01*
X63900000Y-63150882D01*
X63900012Y-63149144D01*
X63901489Y-63043713D01*
X65549500Y-63043713D01*
X65549500Y-63256286D01*
X65582753Y-63466239D01*
X65648444Y-63668414D01*
X65744951Y-63857820D01*
X65869890Y-64029786D01*
X66020213Y-64180109D01*
X66192179Y-64305048D01*
X66192181Y-64305049D01*
X66192184Y-64305051D01*
X66381588Y-64401557D01*
X66583757Y-64467246D01*
X66793713Y-64500500D01*
X66793714Y-64500500D01*
X67006286Y-64500500D01*
X67006287Y-64500500D01*
X67216243Y-64467246D01*
X67418412Y-64401557D01*
X67607816Y-64305051D01*
X67629789Y-64289086D01*
X67779786Y-64180109D01*
X67779788Y-64180106D01*
X67779792Y-64180104D01*
X67930104Y-64029792D01*
X67930106Y-64029788D01*
X67930109Y-64029786D01*
X68055048Y-63857820D01*
X68055047Y-63857820D01*
X68055051Y-63857816D01*
X68151557Y-63668412D01*
X68217246Y-63466243D01*
X68250500Y-63256287D01*
X68250500Y-63043713D01*
X68217246Y-62833757D01*
X68151557Y-62631588D01*
X68055051Y-62442184D01*
X68055049Y-62442181D01*
X68055048Y-62442179D01*
X67930109Y-62270213D01*
X67779786Y-62119890D01*
X67614768Y-61999999D01*
X165594722Y-61999999D01*
X165594722Y-62000000D01*
X165613762Y-62156818D01*
X165634203Y-62210715D01*
X165669780Y-62304523D01*
X165759517Y-62434530D01*
X165877760Y-62539283D01*
X165877762Y-62539284D01*
X166017634Y-62612696D01*
X166171014Y-62650500D01*
X166171015Y-62650500D01*
X166328985Y-62650500D01*
X166482365Y-62612696D01*
X166519549Y-62593180D01*
X166622240Y-62539283D01*
X166687256Y-62481683D01*
X166750490Y-62451963D01*
X166769483Y-62450500D01*
X167230517Y-62450500D01*
X167297556Y-62470185D01*
X167312741Y-62481682D01*
X167377760Y-62539283D01*
X167377762Y-62539284D01*
X167517634Y-62612696D01*
X167671014Y-62650500D01*
X167671015Y-62650500D01*
X167828985Y-62650500D01*
X167982365Y-62612696D01*
X168019549Y-62593180D01*
X168122240Y-62539283D01*
X168240483Y-62434530D01*
X168330220Y-62304523D01*
X168386237Y-62156818D01*
X168405278Y-62000000D01*
X168404643Y-61994766D01*
X168386237Y-61843181D01*
X168333439Y-61703965D01*
X168330220Y-61695477D01*
X168240483Y-61565470D01*
X168122240Y-61460717D01*
X168122238Y-61460716D01*
X168122237Y-61460715D01*
X167982365Y-61387303D01*
X167828986Y-61349500D01*
X167828985Y-61349500D01*
X167671015Y-61349500D01*
X167671014Y-61349500D01*
X167517634Y-61387303D01*
X167377762Y-61460715D01*
X167312744Y-61518316D01*
X167249510Y-61548037D01*
X167230517Y-61549500D01*
X166769483Y-61549500D01*
X166702444Y-61529815D01*
X166687256Y-61518316D01*
X166622240Y-61460717D01*
X166622238Y-61460716D01*
X166622237Y-61460715D01*
X166482365Y-61387303D01*
X166328986Y-61349500D01*
X166328985Y-61349500D01*
X166171015Y-61349500D01*
X166171014Y-61349500D01*
X166017634Y-61387303D01*
X165877762Y-61460715D01*
X165759516Y-61565471D01*
X165669781Y-61695475D01*
X165669780Y-61695476D01*
X165613762Y-61843181D01*
X165594722Y-61999999D01*
X67614768Y-61999999D01*
X67607820Y-61994951D01*
X67418414Y-61898444D01*
X67418413Y-61898443D01*
X67418412Y-61898443D01*
X67216243Y-61832754D01*
X67216241Y-61832753D01*
X67216240Y-61832753D01*
X67054957Y-61807208D01*
X67006287Y-61799500D01*
X66793713Y-61799500D01*
X66745042Y-61807208D01*
X66583760Y-61832753D01*
X66381585Y-61898444D01*
X66192179Y-61994951D01*
X66020213Y-62119890D01*
X65869890Y-62270213D01*
X65744951Y-62442179D01*
X65648444Y-62631585D01*
X65582753Y-62833760D01*
X65549500Y-63043713D01*
X63901489Y-63043713D01*
X63902274Y-62987729D01*
X63903041Y-62975610D01*
X63939277Y-62654005D01*
X63941606Y-62640299D01*
X64013426Y-62325633D01*
X64017272Y-62312279D01*
X64123883Y-62007601D01*
X64129196Y-61994777D01*
X64269243Y-61703965D01*
X64275959Y-61691813D01*
X64447693Y-61418501D01*
X64455723Y-61407183D01*
X64656979Y-61154816D01*
X64666228Y-61144467D01*
X64894467Y-60916228D01*
X64904816Y-60906979D01*
X65157183Y-60705723D01*
X65168501Y-60697693D01*
X65441813Y-60525959D01*
X65453965Y-60519243D01*
X65744777Y-60379196D01*
X65757601Y-60373883D01*
X66062279Y-60267272D01*
X66075627Y-60263427D01*
X66293293Y-60213746D01*
X66390299Y-60191606D01*
X66404005Y-60189277D01*
X66725610Y-60153041D01*
X66737729Y-60152274D01*
X66899144Y-60150011D01*
X66900882Y-60150000D01*
X253349118Y-60150000D01*
X253350855Y-60150011D01*
G37*
%TD.AperFunction*%
%TA.AperFunction,Conductor*%
G36*
X67199075Y-67877007D02*
G01*
X67165000Y-68004174D01*
X67165000Y-68135826D01*
X67199075Y-68262993D01*
X67231988Y-68320000D01*
X65558012Y-68320000D01*
X65590925Y-68262993D01*
X65625000Y-68135826D01*
X65625000Y-68004174D01*
X65590925Y-67877007D01*
X65558012Y-67820000D01*
X67231988Y-67820000D01*
X67199075Y-67877007D01*
G37*
%TD.AperFunction*%
%TD*%
M02*
