M48
; DRILL file {KiCad 8.0.4} date 2025-06-19T21:57:43-0500
; FORMAT={-:-/ absolute / metric / decimal}
; #@! TF.CreationDate,2025-06-19T21:57:43-05:00
; #@! TF.GenerationSoftware,Kicad,Pcbnew,8.0.4
; #@! TF.FileFunction,MixedPlating,1,2
FMAT,2
METRIC
; #@! TA.AperFunction,Plated,PTH,ViaDrill
T1C0.300
; #@! TA.AperFunction,Plated,PTH,ComponentDrill
T2C1.000
; #@! TA.AperFunction,Plated,PTH,ComponentDrill
T3C1.500
; #@! TA.AperFunction,Plated,PTH,ComponentDrill
T4C1.800
; #@! TA.AperFunction,NonPlated,NPTH,ComponentDrill
T5C2.200
; #@! TA.AperFunction,NonPlated,NPTH,ComponentDrill
T6C4.000
%
G90
G05
T1
X65.125Y-69.75
X67.665Y-70.0
X80.5Y-64.95
X81.0Y-62.75
X83.0Y-62.75
X83.0Y-65.0
X84.25Y-119.0
X90.75Y-71.75
X90.75Y-74.0
X94.5Y-98.31
X100.5Y-91.8
X101.75Y-93.25
X102.0Y-87.5
X102.125Y-89.375
X103.625Y-90.95
X103.75Y-89.25
X104.25Y-119.0
X110.845Y-85.25
X114.5Y-98.25
X124.25Y-119.25
X144.25Y-119.25
X154.5Y-98.0
X163.75Y-119.75
X166.25Y-62.0
X167.75Y-62.0
X169.55Y-79.8
X174.5Y-98.25
X184.0Y-119.5
X189.55Y-80.0
X194.0Y-99.5
X204.25Y-119.25
X243.75Y-119.75
T2
X65.125Y-68.07
X65.125Y-83.31
X67.665Y-68.07
X67.665Y-83.31
X70.205Y-68.07
X70.205Y-83.31
X72.745Y-68.07
X72.745Y-83.31
X75.285Y-68.07
X75.285Y-83.31
X77.825Y-68.07
X77.825Y-83.31
X80.365Y-68.07
X80.365Y-83.31
X82.905Y-68.07
X82.905Y-83.31
X85.445Y-68.07
X85.445Y-83.31
X87.985Y-68.07
X87.985Y-83.31
X90.525Y-68.07
X90.525Y-83.31
X93.065Y-68.07
X93.065Y-83.31
X95.605Y-68.07
X95.605Y-83.31
X98.145Y-68.07
X98.145Y-83.31
X100.685Y-68.07
X100.685Y-83.31
X103.225Y-68.07
X103.225Y-83.31
X105.765Y-68.07
X105.765Y-83.31
X108.305Y-68.07
X108.305Y-83.31
X110.845Y-68.07
X110.845Y-83.31
X113.385Y-68.07
X113.385Y-83.31
X164.55Y-78.31
X167.05Y-78.31
X169.55Y-78.31
X184.55Y-78.31
X187.05Y-78.31
X189.55Y-78.31
T3
X76.35Y-120.85
X82.7Y-118.31
X86.35Y-100.85
X92.7Y-98.31
X96.35Y-120.85
X102.7Y-118.31
X106.35Y-100.85
X112.7Y-98.31
X116.35Y-120.85
X122.7Y-118.31
X136.35Y-120.85
X142.7Y-118.31
X146.35Y-100.85
X152.7Y-98.31
X156.35Y-120.85
X162.7Y-118.31
X166.35Y-100.85
X172.7Y-98.31
X176.35Y-120.85
X182.7Y-118.31
X186.35Y-100.85
X192.7Y-98.31
X196.35Y-120.85
X202.7Y-118.31
X236.3Y-120.85
X242.65Y-118.31
T4
X162.25Y-70.81
X171.85Y-70.81
X182.25Y-70.81
X191.85Y-70.81
T5
X66.9Y-63.15
X66.9Y-132.9
X253.35Y-63.15
X253.35Y-132.9
T6
X80.16Y-123.39
X90.16Y-103.39
X100.16Y-123.39
X110.16Y-103.39
X120.16Y-123.39
X140.16Y-123.39
X150.16Y-103.39
X160.16Y-123.39
X170.16Y-103.39
X180.16Y-123.39
X190.16Y-103.39
X200.16Y-123.39
X240.11Y-123.39
M30
